<?xml version="1.0" encoding="UTF-8"?>
<svg xmlns="http://www.w3.org/2000/svg" data-v-cd00e9e7="" viewBox="0 0 1416 320.9" class="stroke-current opacity-50">
  <path fill="#fff" stroke="#fff" d="M397.4 5.2c0-3.9 6-3.9 6 0 0 1.7-1.3 3-3 3a3.08 3.08 0 0 1-3-3zm12 0c0-3.9 6-3.9 6 0 0 1.7-1.3 3-3 3a3.08 3.08 0 0 1-3-3zm14.9-3c3.9 0 3.9 6 0 6s-3.9-6 0-6zm12.1 0c3.9 0 3.9 6 0 6-4 0-4-6 0-6zm11.9 0c3.9 0 3.9 6 0 6s-3.9-6 0-6zm9 3c0-3.9 6-3.9 6 0 0 1.7-1.3 3-3 3a3.01 3.01 0 0 1-3-3zm12 0c0-3.9 6-3.9 6 0 0 1.7-1.3 3-3 3a3.08 3.08 0 0 1-3-3zm71.9 0c0-3.9 6-3.9 6 0 0 1.7-1.3 3-3 3a3.08 3.08 0 0 1-3-3zm11.9 0c0-3.9 6-3.9 6 0 0 1.7-1.3 3-3 3a3.08 3.08 0 0 1-3-3zm15.1-3c3.9 0 3.9 6 0 6-4 0-4-6 0-6zm11.9 0c3.9 0 3.9 6 0 6s-3.9-6 0-6zm12 0c3.9 0 3.9 6 0 6s-3.9-6 0-6zm380.5 3c0-3.9 6-3.9 6 0 0 1.7-1.3 3-3 3a3.01 3.01 0 0 1-3-3zm11.9 0c0-3.9 6-3.9 6 0 0 1.7-1.3 3-3 3a3.08 3.08 0 0 1-3-3zm-623 12c0-3.9 6-3.9 6 0 0 1.7-1.3 3-3 3s-3.1-1.3-3-3zm12 0c0-3.9 6-3.9 6 0 0 1.7-1.3 3-3 3s-3-1.3-3-3zm11.9 0c0-3.9 6-3.9 6 0 0 1.7-1.3 3-3 3s-3-1.3-3-3zm12 0c0-3.9 6-3.9 6 0 0 1.7-1.3 3-3 3a3.01 3.01 0 0 1-3-3zm12 0c0-3.9 6-3.9 6 0 0 1.7-1.3 3-3 3a3.01 3.01 0 0 1-3-3zm11.9 0c0-3.9 6-3.9 6 0 0 1.7-1.3 3-3 3a3.01 3.01 0 0 1-3-3zm12.1 0c0-3.9 6-3.9 6 0 0 1.7-1.3 3-3 3s-3-1.3-3-3zm11.9 0c0-3.9 6-3.9 6 0 0 1.7-1.3 3-3 3s-3-1.3-3-3zm12 0c0-3.9 6-3.9 6 0 0 1.7-1.3 3-3 3s-3-1.3-3-3zm23.9 0c0-3.9 6-3.9 6 0 0 1.7-1.3 3-3 3a3.01 3.01 0 0 1-3-3zm12.1 0c0-3.9 6-3.9 6 0 0 1.7-1.3 3-3 3s-3.1-1.3-3-3zm12 0c0-3.9 6-3.9 6 0 0 1.7-1.3 3-3 3s-3-1.3-3-3zm11.9 0c0-3.9 6-3.9 6 0 0 1.7-1.3 3-3 3s-3-1.3-3-3zm12 0c0-3.9 6-3.9 6 0 0 1.7-1.3 3-3 3a3.01 3.01 0 0 1-3-3zm12 0c0-3.9 6-3.9 6 0 0 1.7-1.3 3-3 3a3.01 3.01 0 0 1-3-3zm11.9 0c0-3.9 6-3.9 6 0 0 1.7-1.3 3-3 3a3.01 3.01 0 0 1-3-3zm12.1 0c0-3.9 6-3.9 6 0 0 1.7-1.3 3-3 3s-3-1.3-3-3zm11.9 0c0-3.9 6-3.9 6 0 0 1.7-1.3 3-3 3a3.01 3.01 0 0 1-3-3zm12 0c0-3.9 6-3.9 6 0 0 1.7-1.3 3-3 3s-3-1.3-3-3zm12 0c0-3.9 6-3.9 6 0 0 1.7-1.3 3-3 3a3.01 3.01 0 0 1-3-3zm24 0c0-3.9 6-3.9 6 0 0 1.7-1.3 3-3 3s-3-1.3-3-3zm215.7 0c0-3.9 6-3.9 6 0 0 1.7-1.3 3-3 3s-3-1.3-3-3zm23.9 0c0-3.9 6-3.9 6 0 0 1.7-1.3 3-3 3a3.01 3.01 0 0 1-3-3zm95.9 0c0-3.9 6-3.9 6 0 0 1.7-1.3 3-3 3s-3-1.3-3-3zm12 0c0-3.9 6-3.9 6 0 0 1.7-1.3 3-3 3s-3-1.3-3-3zm11.9 0c0-3.9 6-3.9 6 0 0 1.7-1.3 3-3 3a3.08 3.08 0 0 1-3-3zM301.6 29.1c0-3.9 6-3.9 6 0 0 1.7-1.3 3-3 3s-3-1.3-3-3zm23.9 0c0-3.9 6-3.9 6 0 0 1.7-1.3 3-3 3s-3-1.3-3-3zm12 0c0-3.9 6-3.9 6 0 0 1.7-1.3 3-3 3a3.01 3.01 0 0 1-3-3zm11.9 0c0-3.9 6-3.9 6 0 0 1.7-1.3 3-3 3a3.01 3.01 0 0 1-3-3zm24.1 0c0-3.9 6-3.9 6 0 0 1.7-1.3 3-3 3s-3-1.3-3-3zm11.9 0c0-3.9 6-3.9 6 0 0 1.7-1.3 3-3 3s-3-1.3-3-3zm12 0c0-3.9 6-3.9 6 0 0 1.7-1.3 3-3 3a3.01 3.01 0 0 1-3-3zm12 0c0-3.9 6-3.9 6 0 0 1.7-1.3 3-3 3a3.01 3.01 0 0 1-3-3zm11.9 0c0-3.9 6-3.9 6 0 0 1.7-1.3 3-3 3a3.01 3.01 0 0 1-3-3zm12.1 0c0-3.9 6-3.9 6 0 0 1.7-1.3 3-3 3s-3-1.3-3-3zm35.9 0c0-3.9 6-3.9 6 0 0 1.7-1.3 3-3 3a3.01 3.01 0 0 1-3-3zm11.9 0c0-3.9 6-3.9 6 0 0 1.7-1.3 3-3 3a3.01 3.01 0 0 1-3-3zm12.1 0c0-3.9 6-3.9 6 0 0 1.7-1.3 3-3 3s-3.1-1.3-3-3zm12 0c0-3.9 6-3.9 6 0 0 1.7-1.3 3-3 3s-3-1.3-3-3zm11.9 0c0-3.9 6-3.9 6 0 0 1.7-1.3 3-3 3s-3-1.3-3-3zm12 0c0-3.9 6-3.9 6 0 0 1.7-1.3 3-3 3a3.01 3.01 0 0 1-3-3zm12 0c0-3.9 6-3.9 6 0 0 1.7-1.3 3-3 3a3.01 3.01 0 0 1-3-3zm11.9 0c0-3.9 6-3.9 6 0 0 1.7-1.3 3-3 3a3.01 3.01 0 0 1-3-3zm12.1 0c0-3.9 6-3.9 6 0 0 1.7-1.3 3-3 3s-3-1.3-3-3zm11.9 0c0-3.9 6-3.9 6 0 0 1.7-1.3 3-3 3s-3-1.3-3-3zm12 0c0-3.9 6-3.9 6 0 0 1.7-1.3 3-3 3s-3-1.3-3-3zm12 0c0-3.9 6-3.9 6 0 0 1.7-1.3 3-3 3a3.01 3.01 0 0 1-3-3zm11.9 0c0-3.9 6-3.9 6 0 0 1.7-1.3 3-3 3a3.01 3.01 0 0 1-3-3zm107.9 0c0-3.9 6-3.9 6 0 0 1.7-1.3 3-3 3s-3-1.3-3-3zm12 0c0-3.9 6-3.9 6 0 0 1.7-1.3 3-3 3a3.01 3.01 0 0 1-3-3zm12.1 0c0-3.9 6-3.9 6 0 0 1.7-1.3 3-3 3s-3.1-1.3-3-3zm263.6 0c0-3.9 6-3.9 6 0 0 1.7-1.3 3-3 3s-3.1-1.3-3-3zm143.8 0c0-3.9 6-3.9 6 0 0 1.7-1.3 3-3 3s-3-1.3-3-3zm-898.8 12c0-3.9 6-3.9 6 0 0 1.7-1.3 3-3 3s-3-1.3-3-3zm12 0c0-3.9 6-3.9 6 0 0 1.7-1.3 3-3 3a3.01 3.01 0 0 1-3-3zm11.9 0c0-3.9 6-3.9 6 0 0 1.7-1.3 3-3 3a3.01 3.01 0 0 1-3-3zm48 0c0-3.9 6-3.9 6 0 0 1.7-1.3 3-3 3s-3-1.3-3-3zm59.9 0c0-3.9 6-3.9 6 0 0 1.7-1.3 3-3 3s-3-1.3-3-3zm12 0c0-3.9 6-3.9 6 0 0 1.7-1.3 3-3 3a3.01 3.01 0 0 1-3-3zm12 0c0-3.9 6-3.9 6 0 0 1.7-1.3 3-3 3a3.01 3.01 0 0 1-3-3zm11.9 0c0-3.9 6-3.9 6 0 0 1.7-1.3 3-3 3a3.01 3.01 0 0 1-3-3zm24 0c0-3.9 6-3.9 6 0 0 1.7-1.3 3-3 3s-3-1.3-3-3zm12 0c0-3.9 6-3.9 6 0 0 1.7-1.3 3-3 3s-3-1.3-3-3zm12 0c0-3.9 6-3.9 6 0 0 1.7-1.3 3-3 3a3.01 3.01 0 0 1-3-3zm11.9 0c0-3.9 6-3.9 6 0 0 1.7-1.3 3-3 3a3.01 3.01 0 0 1-3-3zm12.1 0c0-3.9 6-3.9 6 0 0 1.7-1.3 3-3 3s-3.1-1.3-3-3zm12 0c0-3.9 6-3.9 6 0 0 1.7-1.3 3-3 3s-3-1.3-3-3zm11.9 0c0-3.9 6-3.9 6 0 0 1.7-1.3 3-3 3s-3-1.3-3-3zm12 0c0-3.9 6-3.9 6 0 0 1.7-1.3 3-3 3a3.01 3.01 0 0 1-3-3zm12 0c0-3.9 6-3.9 6 0 0 1.7-1.3 3-3 3a3.01 3.01 0 0 1-3-3zm11.9 0c0-3.9 6-3.9 6 0 0 1.7-1.3 3-3 3a3.01 3.01 0 0 1-3-3zm12.1 0c0-3.9 6-3.9 6 0 0 1.7-1.3 3-3 3s-3-1.3-3-3zm11.9 0c0-3.9 6-3.9 6 0 0 1.7-1.3 3-3 3s-3-1.3-3-3zm12 0c0-3.9 6-3.9 6 0 0 1.7-1.3 3-3 3s-3-1.3-3-3zm12 0c0-3.9 6-3.9 6 0 0 1.7-1.3 3-3 3a3.01 3.01 0 0 1-3-3zm95.9 0c0-3.9 6-3.9 6 0 0 1.7-1.3 3-3 3s-3-1.3-3-3zm12 0c0-3.9 6-3.9 6 0 0 1.7-1.3 3-3 3s-3-1.3-3-3zm11.9 0c0-3.9 6-3.9 6 0 0 1.7-1.3 3-3 3s-3-1.3-3-3zm251.7 0c0-3.9 6-3.9 6 0 0 1.7-1.3 3-3 3s-3-1.3-3-3zm11.9 0c0-3.9 6-3.9 6 0 0 1.7-1.3 3-3 3a3.01 3.01 0 0 1-3-3zm12 0c0-3.9 6-3.9 6 0 0 1.7-1.3 3-3 3a3.01 3.01 0 0 1-3-3zm12.1 0c0-3.9 6-3.9 6 0 0 1.7-1.3 3-3 3s-3.1-1.3-3-3zm11.9 0c0-3.9 6-3.9 6 0 0 1.7-1.3 3-3 3s-3-1.3-3-3zm12 0c0-3.9 6-3.9 6 0 0 1.7-1.3 3-3 3s-3-1.3-3-3zm12 0c0-3.9 6-3.9 6 0 0 1.7-1.3 3-3 3a3.01 3.01 0 0 1-3-3zm11.9 0c0-3.9 6-3.9 6 0 0 1.7-1.3 3-3 3a3.01 3.01 0 0 1-3-3zm12 0c0-3.9 6-3.9 6 0 0 1.7-1.3 3-3 3a3.01 3.01 0 0 1-3-3zm12.1 0c0-3.9 6-3.9 6 0 0 1.7-1.3 3-3 3s-3-1.3-3-3zm47.8 0c0-3.9 6-3.9 6 0 0 1.7-1.3 3-3 3a3.01 3.01 0 0 1-3-3zm12.1 0c0-3.9 6-3.9 6 0 0 1.7-1.3 3-3 3s-3-1.3-3-3zm12 0c0-3.9 6-3.9 6 0 0 1.7-1.3 3-3 3s-3-1.3-3-3zm11.9 0c0-3.9 6-3.9 6 0 0 1.7-1.3 3-3 3s-3-1.3-3-3zm12 0c0-3.9 6-3.9 6 0 0 1.7-1.3 3-3 3a3.01 3.01 0 0 1-3-3zm11.9 0c0-3.9 6-3.9 6 0 0 1.7-1.3 3-3 3-1.6 0-2.9-1.3-3-3zM277.5 53.2c0-3.9 6-3.9 6 0 0 1.7-1.3 3-3 3a3.23 3.23 0 0 1-3-3zm12 0c0-3.9 6-3.9 6 0 0 1.7-1.3 3-3 3a3.23 3.23 0 0 1-3-3zm12.1 0c0-3.9 6-3.9 6 0 0 1.7-1.3 3-3 3-1.7-.1-3-1.4-3-3zm11.9 0c0-3.9 6-3.9 6 0 0 1.7-1.3 3-3 3-1.7-.1-3-1.4-3-3zm24 0c0-3.9 6-3.9 6 0 0 1.7-1.3 3-3 3a3.23 3.23 0 0 1-3-3zm24 0c0-3.9 6-3.9 6 0 0 1.7-1.3 3-3 3-1.7-.1-3-1.4-3-3zm47.9 0c0-3.9 6-3.9 6 0 0 1.7-1.3 3-3 3a3.23 3.23 0 0 1-3-3zm35.9 0c0-3.9 6-3.9 6 0 0 1.7-1.3 3-3 3-1.6-.1-3-1.4-3-3zm12 0c0-3.9 6-3.9 6 0 0 1.7-1.3 3-3 3a3.23 3.23 0 0 1-3-3zm12 0c0-3.9 6-3.9 6 0 0 1.7-1.3 3-3 3a3.23 3.23 0 0 1-3-3zm11.9 0c0-3.9 6-3.9 6 0 0 1.7-1.3 3-3 3a3.23 3.23 0 0 1-3-3zm12.1 0c0-3.9 6-3.9 6 0 0 1.7-1.3 3-3 3-1.7-.1-3-1.4-3-3zm12 0c0-3.9 6-3.9 6 0 0 1.7-1.3 3-3 3-1.6-.1-3-1.4-3-3zm11.9 0c0-3.9 6-3.9 6 0 0 1.7-1.3 3-3 3a3.23 3.23 0 0 1-3-3zm12 0c0-3.9 6-3.9 6 0 0 1.7-1.3 3-3 3a3.23 3.23 0 0 1-3-3zm12 0c0-3.9 6-3.9 6 0 0 1.7-1.3 3-3 3a3.23 3.23 0 0 1-3-3zm11.9 0c0-3.9 6-3.9 6 0 0 1.7-1.3 3-3 3a3.23 3.23 0 0 1-3-3zm12.1 0c0-3.9 6-3.9 6 0 0 1.7-1.3 3-3 3-1.7-.1-3-1.4-3-3zm11.9 0c0-3.9 6-3.9 6 0 0 1.7-1.3 3-3 3a3.23 3.23 0 0 1-3-3zm12 0c0-3.9 6-3.9 6 0 0 1.7-1.3 3-3 3a3.23 3.23 0 0 1-3-3zm12 0c0-3.9 6-3.9 6 0 0 1.7-1.3 3-3 3a3.23 3.23 0 0 1-3-3zm11.9 0c0-3.9 6-3.9 6 0 0 1.7-1.3 3-3 3a3.23 3.23 0 0 1-3-3zm96 0c0-3.9 6-3.9 6 0 0 1.7-1.3 3-3 3a3.23 3.23 0 0 1-3-3zm11.9 0c0-3.9 6-3.9 6 0 0 1.7-1.3 3-3 3a3.23 3.23 0 0 1-3-3zm143.8 0c0-3.9 6-3.9 6 0 0 1.7-1.3 3-3 3a3.23 3.23 0 0 1-3-3zm12.1 0c0-3.9 6-3.9 6 0 0 1.7-1.3 3-3 3-1.7-.1-3-1.4-3-3zm71.9 0c0-3.9 6-3.9 6 0 0 1.7-1.3 3-3 3-1.7-.1-3-1.4-3-3zm11.9 0c0-3.9 6-3.9 6 0 0 1.7-1.3 3-3 3-1.6-.1-3-1.4-3-3zm12 0c0-3.9 6-3.9 6 0 0 1.7-1.3 3-3 3a3.23 3.23 0 0 1-3-3zm11.9 0c0-3.9 6-3.9 6 0 0 1.7-1.3 3-3 3a3.23 3.23 0 0 1-3-3zm12 0c0-3.9 6-3.9 6 0 0 1.7-1.3 3-3 3a3.23 3.23 0 0 1-3-3zm12.1 0c0-3.9 6-3.9 6 0 0 1.7-1.3 3-3 3-1.7-.1-3-1.4-3-3zm11.9 0c0-3.9 6-3.9 6 0 0 1.7-1.3 3-3 3-1.7-.1-3-1.4-3-3zm12 0c0-3.9 6-3.9 6 0 0 1.7-1.3 3-3 3a3.23 3.23 0 0 1-3-3zm12 0c0-3.9 6-3.9 6 0 0 1.7-1.3 3-3 3a3.23 3.23 0 0 1-3-3zm11.9 0c0-3.9 6-3.9 6 0 0 1.7-1.3 3-3 3a3.23 3.23 0 0 1-3-3zm12 0c0-3.9 6-3.9 6 0 0 1.7-1.3 3-3 3a3.23 3.23 0 0 1-3-3zm12.1 0c0-3.9 6-3.9 6 0 0 1.7-1.3 3-3 3-1.7-.1-3-1.4-3-3zm71.9 0c0-3.9 6-3.9 6 0 0 1.7-1.3 3-3 3a3.23 3.23 0 0 1-3-3zM241.7 65.1c0-3.9 6-3.9 6 0 0 1.7-1.3 3-3 3a3.01 3.01 0 0 1-3-3zm11.9 0c0-3.9 6-3.9 6 0 0 1.7-1.3 3-3 3a3.01 3.01 0 0 1-3-3zm12 0c0-3.9 6-3.9 6 0 0 1.7-1.3 3-3 3a3.08 3.08 0 0 1-3-3zm23.9 0c0-3.9 6-3.9 6 0 0 1.7-1.3 3-3 3a3.08 3.08 0 0 1-3-3zm72 0c0-3.9 6-3.9 6 0 0 1.7-1.3 3-3 3s-3.1-1.4-3-3zm12 0c0-3.9 6-3.9 6 0 0 1.7-1.3 3-3 3a3.01 3.01 0 0 1-3-3zm11.9 0c0-3.9 6-3.9 6 0 0 1.7-1.3 3-3 3a3.01 3.01 0 0 1-3-3zm12 0c0-3.9 6-3.9 6 0 0 1.7-1.3 3-3 3a3.08 3.08 0 0 1-3-3zm12 0c0-3.9 6-3.9 6 0 0 1.7-1.3 3-3 3a3.08 3.08 0 0 1-3-3zm71.8 0c0-3.9 6-3.9 6 0 0 1.7-1.3 3-3 3a3.08 3.08 0 0 1-3-3zm12.1 0c0-3.9 6-3.9 6 0 0 1.7-1.3 3-3 3s-3.1-1.4-3-3zm12 0c0-3.9 6-3.9 6 0 0 1.7-1.3 3-3 3a3.01 3.01 0 0 1-3-3zm11.9 0c0-3.9 6-3.9 6 0 0 1.7-1.3 3-3 3a3.01 3.01 0 0 1-3-3zm12 0c0-3.9 6-3.9 6 0 0 1.7-1.3 3-3 3a3.08 3.08 0 0 1-3-3zm12 0c0-3.9 6-3.9 6 0 0 1.7-1.3 3-3 3a3.08 3.08 0 0 1-3-3zm11.9 0c0-3.9 6-3.9 6 0 0 1.7-1.3 3-3 3a3.08 3.08 0 0 1-3-3zm12.1 0c0-3.9 6-3.9 6 0 0 1.7-1.3 3-3 3a3.01 3.01 0 0 1-3-3zm11.9 0c0-3.9 6-3.9 6 0 0 1.7-1.3 3-3 3-1.7-.1-3-1.4-3-3zm12 0c0-3.9 6-3.9 6 0 0 1.7-1.3 3-3 3a3.01 3.01 0 0 1-3-3zm12 0c0-3.9 6-3.9 6 0 0 1.7-1.3 3-3 3a3.08 3.08 0 0 1-3-3zm251.6 0c0-3.9 6-3.9 6 0 0 1.7-1.3 3-3 3a3.08 3.08 0 0 1-3-3zm12 0c0-3.9 6-3.9 6 0 0 1.7-1.3 3-3 3a3.08 3.08 0 0 1-3-3zm71.9 0c0-3.9 6-3.9 6 0 0 1.7-1.3 3-3 3a3.08 3.08 0 0 1-3-3zm12.1 0c0-3.9 6-3.9 6 0 0 1.7-1.3 3-3 3a3.01 3.01 0 0 1-3-3zm11.9 0c0-3.9 6-3.9 6 0 0 1.7-1.3 3-3 3a3.01 3.01 0 0 1-3-3zm12 0c0-3.9 6-3.9 6 0 0 1.7-1.3 3-3 3a3.01 3.01 0 0 1-3-3zm11.9 0c0-3.9 6-3.9 6 0 0 1.7-1.3 3-3 3-1.6-.1-3-1.4-3-3zm12 0c0-3.9 6-3.9 6 0 0 1.7-1.3 3-3 3a3.08 3.08 0 0 1-3-3zm12.1 0c0-3.9 6-3.9 6 0 0 1.7-1.3 3-3 3s-3.1-1.4-3-3zm11.9 0c0-3.9 6-3.9 6 0 0 1.7-1.3 3-3 3a3.01 3.01 0 0 1-3-3zm12 0c0-3.9 6-3.9 6 0 0 1.7-1.3 3-3 3a3.01 3.01 0 0 1-3-3zm12 0c0-3.9 6-3.9 6 0 0 1.7-1.3 3-3 3a3.08 3.08 0 0 1-3-3zm11.9 0c0-3.9 6-3.9 6 0 0 1.7-1.3 3-3 3a3.08 3.08 0 0 1-3-3zm12 0c0-3.9 6-3.9 6 0 0 1.7-1.3 3-3 3a3.08 3.08 0 0 1-3-3zm12.1 0c0-3.9 6-3.9 6 0 0 1.7-1.3 3-3 3a3.01 3.01 0 0 1-3-3zm11.9 0c0-3.9 6-3.9 6 0 0 1.7-1.3 3-3 3a3.01 3.01 0 0 1-3-3zm12 0c0-3.9 6-3.9 6 0 0 1.7-1.3 3-3 3a3.01 3.01 0 0 1-3-3zm48 0c0-3.9 6-3.9 6 0 0 1.7-1.3 3-3 3a3.01 3.01 0 0 1-3-3zm11.9 0c0-3.9 6-3.9 6 0 0 1.7-1.3 3-3 3a3.01 3.01 0 0 1-3-3zm12 0c0-3.9 6-3.9 6 0 0 1.7-1.3 3-3 3a3.08 3.08 0 0 1-3-3zm-946.7 12c0-3.9 6-3.9 6 0 0 1.7-1.3 3-3 3a3.01 3.01 0 0 1-3-3zm12.1 0c0-3.9 6-3.9 6 0 0 1.7-1.3 3-3 3s-3-1.3-3-3zm11.9 0c0-3.9 6-3.9 6 0 0 1.7-1.3 3-3 3s-3-1.3-3-3zm12 0c0-3.9 6-3.9 6 0 0 1.7-1.3 3-3 3a3.01 3.01 0 0 1-3-3zm11.9 0c0-3.9 6-3.9 6 0 0 1.7-1.3 3-3 3a3.01 3.01 0 0 1-3-3zm24.1 0c0-3.9 6-3.9 6 0 0 1.7-1.3 3-3 3s-3-1.3-3-3zm11.9 0c0-3.9 6-3.9 6 0 0 1.7-1.3 3-3 3s-3-1.3-3-3zm12 0c0-3.9 6-3.9 6 0 0 1.7-1.3 3-3 3s-3-1.3-3-3zm12 0c0-3.9 6-3.9 6 0 0 1.7-1.3 3-3 3a3.01 3.01 0 0 1-3-3zm11.9 0c0-3.9 6-3.9 6 0 0 1.7-1.3 3-3 3a3.01 3.01 0 0 1-3-3zm12.1 0c0-3.9 6-3.9 6 0 0 1.7-1.3 3-3 3s-3.1-1.3-3-3zm12 0c0-3.9 6-3.9 6 0 0 1.7-1.3 3-3 3s-3-1.3-3-3zm11.9 0c0-3.9 6-3.9 6 0 0 1.7-1.3 3-3 3s-3-1.3-3-3zm12 0c0-3.9 6-3.9 6 0 0 1.7-1.3 3-3 3a3.01 3.01 0 0 1-3-3zm12 0c0-3.9 6-3.9 6 0 0 1.7-1.3 3-3 3a3.01 3.01 0 0 1-3-3zm83.9 0c0-3.9 6-3.9 6 0 0 1.7-1.3 3-3 3s-3.1-1.3-3-3zm12 0c0-3.9 6-3.9 6 0 0 1.7-1.3 3-3 3s-3-1.3-3-3zm11.9 0c0-3.9 6-3.9 6 0 0 1.7-1.3 3-3 3s-3-1.3-3-3zm12 0c0-3.9 6-3.9 6 0 0 1.7-1.3 3-3 3a3.01 3.01 0 0 1-3-3zm12 0c0-3.9 6-3.9 6 0 0 1.7-1.3 3-3 3a3.01 3.01 0 0 1-3-3zm11.9 0c0-3.9 6-3.9 6 0 0 1.7-1.3 3-3 3a3.01 3.01 0 0 1-3-3zm12.1 0c0-3.9 6-3.9 6 0 0 1.7-1.3 3-3 3s-3-1.3-3-3zm11.9 0c0-3.9 6-3.9 6 0 0 1.7-1.3 3-3 3a3.01 3.01 0 0 1-3-3zm12 0c0-3.9 6-3.9 6 0 0 1.7-1.3 3-3 3s-3-1.3-3-3zm12 0c0-3.9 6-3.9 6 0 0 1.7-1.3 3-3 3a3.01 3.01 0 0 1-3-3zm239.7 0c0-3.9 6-3.9 6 0 0 1.7-1.3 3-3 3s-3-1.3-3-3zm47.9 0c0-3.9 6-3.9 6 0 0 1.7-1.3 3-3 3s-3-1.3-3-3zm12 0c0-3.9 6-3.9 6 0 0 1.7-1.3 3-3 3s-3-1.3-3-3zm12 0c0-3.9 6-3.9 6 0 0 1.7-1.3 3-3 3a3.01 3.01 0 0 1-3-3zm11.9 0c0-3.9 6-3.9 6 0 0 1.7-1.3 3-3 3a3.01 3.01 0 0 1-3-3zm12 0c0-3.9 6-3.9 6 0 0 1.7-1.3 3-3 3a3.01 3.01 0 0 1-3-3zm12.1 0c0-3.9 6-3.9 6 0 0 1.7-1.3 3-3 3s-3-1.3-3-3zm11.9 0c0-3.9 6-3.9 6 0 0 1.7-1.3 3-3 3s-3-1.3-3-3zm12 0c0-3.9 6-3.9 6 0 0 1.7-1.3 3-3 3s-3-1.3-3-3zm11.9 0c0-3.9 6-3.9 6 0 0 1.7-1.3 3-3 3a3.08 3.08 0 0 1-3-3zm12 0c0-3.9 6-3.9 6 0 0 1.7-1.3 3-3 3a3.01 3.01 0 0 1-3-3zm12.1 0c0-3.9 6-3.9 6 0 0 1.7-1.3 3-3 3s-3.1-1.3-3-3zm11.9 0c0-3.9 6-3.9 6 0 0 1.7-1.3 3-3 3s-3-1.3-3-3zm12 0c0-3.9 6-3.9 6 0 0 1.7-1.3 3-3 3s-3-1.3-3-3zm12 0c0-3.9 6-3.9 6 0 0 1.7-1.3 3-3 3a3.01 3.01 0 0 1-3-3zm11.9 0c0-3.9 6-3.9 6 0 0 1.7-1.3 3-3 3a3.01 3.01 0 0 1-3-3zm12 0c0-3.9 6-3.9 6 0 0 1.7-1.3 3-3 3a3.01 3.01 0 0 1-3-3zm12.1 0c0-3.9 6-3.9 6 0 0 1.7-1.3 3-3 3s-3-1.3-3-3zm11.9 0c0-3.9 6-3.9 6 0 0 1.7-1.3 3-3 3s-3-1.3-3-3zm35.9 0c0-3.9 6-3.9 6 0 0 1.7-1.3 3-3 3a3.01 3.01 0 0 1-3-3zm12.1 0c0-3.9 6-3.9 6 0 0 1.7-1.3 3-3 3s-3-1.3-3-3zm12 0c0-3.9 6-3.9 6 0 0 1.7-1.3 3-3 3s-3-1.3-3-3zm11.9 0c0-3.9 6-3.9 6 0 0 1.7-1.3 3-3 3s-3-1.3-3-3zm12 0c0-3.9 6-3.9 6 0 0 1.7-1.3 3-3 3a3.01 3.01 0 0 1-3-3zm11.9 0c0-3.9 6-3.9 6 0 0 1.7-1.3 3-3 3-1.6 0-2.9-1.4-3-3zm12 0c0-3.9 6-3.9 6 0 0 1.7-1.3 3-3 3a3.01 3.01 0 0 1-3-3zm12.1 0c0-3.9 6-3.9 6 0 0 1.7-1.3 3-3 3s-3-1.3-3-3zm11.9 0c0-3.9 6-3.9 6 0 0 1.7-1.3 3-3 3s-3-1.3-3-3zm12 0c0-3.9 6-3.9 6 0 0 1.7-1.3 3-3 3a3.01 3.01 0 0 1-3-3zM73.9 89c0-3.9 6-3.9 6 0s-6 3.9-6 0zm11.9 0c0-3.9 6-3.9 6 0s-6 3.9-6 0zm12 0c0-3.9 6-3.9 6 0s-5.9 3.9-6 0zm143.9 0c0-3.9 6-3.9 6 0 0 1.7-1.3 3-3 3s-3-1.3-3-3zm23.9 0c0-3.9 6-3.9 6 0 0 1.7-1.3 3-3 3a3.01 3.01 0 0 1-3-3zm14.9-3c3.9 0 3.9 6 0 6s-3.9-6 0-6zm12 0c3.9 0 3.9 6 0 6s-3.9-6 0-6zm9.1 3c0-3.9 6-3.9 6 0 0 1.7-1.3 3-3 3s-3-1.3-3-3zm35.9 0c0-3.9 6-3.9 6 0 0 1.7-1.3 3-3 3a3.01 3.01 0 0 1-3-3zm11.9 0c0-3.9 6-3.9 6 0 0 1.7-1.3 3-3 3a3.01 3.01 0 0 1-3-3zm15.1-3c3.9 0 3.9 6 0 6-4 0-4-6 0-6zm11.9 0c3.9 0 3.9 6 0 6-4 0-4-6 0-6zm9 3c0-3.9 6-3.9 6 0 0 1.7-1.3 3-3 3s-3-1.3-3-3zm12 0c0-3.9 6-3.9 6 0 0 1.7-1.3 3-3 3a3.01 3.01 0 0 1-3-3zm12 0c0-3.9 6-3.9 6 0 0 1.7-1.3 3-3 3a3.01 3.01 0 0 1-3-3zm83.9 0c0-3.9 6-3.9 6 0 0 1.7-1.3 3-3 3s-3.1-1.3-3-3zm12 0c0-3.9 6-3.9 6 0 0 1.7-1.3 3-3 3s-3-1.3-3-3zm14.9-3c3.9 0 3.9 6 0 6s-3.9-6 0-6zm9 3c0-3.9 6-3.9 6 0 0 1.7-1.3 3-3 3a3.01 3.01 0 0 1-3-3zm12 0c0-3.9 6-3.9 6 0 0 1.7-1.3 3-3 3a3.01 3.01 0 0 1-3-3zm11.9 0c0-3.9 6-3.9 6 0 0 1.7-1.3 3-3 3a3.01 3.01 0 0 1-3-3zm15.1-3c3.9 0 3.9 6 0 6-4 0-4-6 0-6zm11.9 0c3.9 0 3.9 6 0 6s-3.9-6 0-6zm12 0c3.9 0 3.9 6 0 6s-3.9-6 0-6zm9 3c0-3.9 6-3.9 6 0 0 1.7-1.3 3-3 3a3.01 3.01 0 0 1-3-3zm242.7-3c3.9 0 3.9 6 0 6s-3.9-6 0-6zm47.9 0c3.9 0 3.9 6 0 6-4 0-4-6 0-6zm9 3c0-3.9 6-3.9 6 0 0 1.7-1.3 3-3 3s-3-1.3-3-3zm14.9-3c3.9 0 3.9 6 0 6s-3.9-6 0-6zm9 3c0-3.9 6-3.9 6 0 0 1.7-1.3 3-3 3a3.01 3.01 0 0 1-3-3zm12 0c0-3.9 6-3.9 6 0 0 1.7-1.3 3-3 3a3.01 3.01 0 0 1-3-3zm12.1 0c0-3.9 6-3.9 6 0 0 1.7-1.3 3-3 3s-3-1.3-3-3zm11.9 0c0-3.9 6-3.9 6 0 0 1.7-1.3 3-3 3s-3-1.3-3-3zm12 0c0-3.9 6-3.9 6 0 0 1.7-1.3 3-3 3s-3-1.3-3-3zm11.9 0c0-3.9 6-3.9 6 0 0 1.7-1.3 3-3 3a3.08 3.08 0 0 1-3-3zm12 0c0-3.9 6-3.9 6 0 0 1.7-1.3 3-3 3a3.01 3.01 0 0 1-3-3zm12.1 0c0-3.9 6-3.9 6 0 0 1.7-1.3 3-3 3s-3.1-1.3-3-3zm11.9 0c0-3.9 6-3.9 6 0 0 1.7-1.3 3-3 3s-3-1.3-3-3zm12 0c0-3.9 6-3.9 6 0 0 1.7-1.3 3-3 3s-3-1.3-3-3zm15-3c3.9 0 3.9 6 0 6s-3.9-6 0-6zm8.9 3c0-3.9 6-3.9 6 0 0 1.7-1.3 3-3 3a3.01 3.01 0 0 1-3-3zm12 0c0-3.9 6-3.9 6 0 0 1.7-1.3 3-3 3a3.01 3.01 0 0 1-3-3zm12.1 0c0-3.9 6-3.9 6 0 0 1.7-1.3 3-3 3s-3-1.3-3-3zm11.9 0c0-3.9 6-3.9 6 0 0 1.7-1.3 3-3 3s-3-1.3-3-3zm12 0c0-3.9 6-3.9 6 0 0 1.7-1.3 3-3 3s-3-1.3-3-3zm12 0c0-3.9 6-3.9 6 0 0 1.7-1.3 3-3 3a3.01 3.01 0 0 1-3-3zm14.9-3c3.9 0 3.9 6 0 6s-3.9-6 0-6zm12.1 0c3.9 0 3.9 6 0 6-4 0-4-6 0-6zm9 3c0-3.9 6-3.9 6 0 0 1.7-1.3 3-3 3s-3-1.3-3-3zm11.9 0c0-3.9 6-3.9 6 0 0 1.7-1.3 3-3 3s-3-1.3-3-3zm12 0c0-3.9 6-3.9 6 0 0 1.7-1.3 3-3 3a3.01 3.01 0 0 1-3-3zm14.9-3c3.9 0 3.9 6 0 6s-3.9-6 0-6zm12.1 0c3.9 0 3.9 6 0 6-4 0-4-6 0-6zm9 3c0-3.9 6-3.9 6 0 0 1.7-1.3 3-3 3s-3-1.3-3-3zm14.9-3c3.9 0 3.9 6 0 6s-3.9-6 0-6zm12 0c3.9 0 3.9 6 0 6s-3.9-6 0-6zm9 3c0-3.9 6-3.9 6 0 0 1.7-1.3 3-3 3a3.01 3.01 0 0 1-3-3zm11.9 0c0-3.9 6-3.9 6 0 0 1.7-1.3 3-3 3a3.01 3.01 0 0 1-3-3zm24.1 0c0-3.9 6-3.9 6 0 0 1.7-1.3 3-3 3s-3-1.3-3-3zm14.9-3c3.9 0 3.9 6 0 6s-3.9-6 0-6zm9 3c0-3.9 6-3.9 6 0 0 1.7-1.3 3-3 3a3.01 3.01 0 0 1-3-3zm14.9-3c3.9 0 3.9 6 0 6s-3.9-6 0-6zM49.9 101c0-3.9 6-3.9 6 0 0 4-6 4-6 0zm12 0c0-3.9 6-3.9 6 0 0 4-6 4-6 0zm12 0c0-3.9 6-3.9 6 0 0 4-6 4-6 0zm11.9 0c0-3.9 6-3.9 6 0 0 4-6 4-6 0zm12 0c0-3.9 6-3.9 6 0 0 4-5.9 4-6 0zm12 0c0-3.9 6-3.9 6 0 0 4-6 4-6 0zm12 0c0-3.9 6-3.9 6 0 0 4-6 4-6 0zm12 0c0-3.9 6-3.9 6 0 0 4-6 4-6 0zm11.9 0c0-3.9 6-3.9 6 0 0 4-6 4-6 0zm12 0c0-3.9 6-3.9 6 0 0 4-6 4-6 0zm24 0c0-3.9 6-3.9 6 0 0 4-6 4-6 0zm12 0c0-3.9 6-3.9 6 0 0 4-6 4-6 0zm12 0c0-3.9 6-3.9 6 0 0 1.7-1.3 3-3 3a3.01 3.01 0 0 1-3-3zm11.9 0c0-3.9 6-3.9 6 0 0 1.7-1.3 3-3 3a3.01 3.01 0 0 1-3-3zm12 0c0-3.9 6-3.9 6 0 0 1.7-1.3 3-3 3a3.01 3.01 0 0 1-3-3zm12.1 0c0-3.9 6-3.9 6 0 0 1.7-1.3 3-3 3s-3-1.3-3-3zm23.9 0c0-3.9 6-3.9 6 0 0 1.7-1.3 3-3 3a3.01 3.01 0 0 1-3-3zm11.9 0c0-3.9 6-3.9 6 0 0 1.7-1.3 3-3 3a3.01 3.01 0 0 1-3-3zm12 0c0-3.9 6-3.9 6 0 0 1.7-1.3 3-3 3a3.01 3.01 0 0 1-3-3zm12.1 0c0-3.9 6-3.9 6 0 0 1.7-1.3 3-3 3s-3-1.3-3-3zm11.9 0c0-3.9 6-3.9 6 0 0 1.7-1.3 3-3 3s-3-1.3-3-3zm24 0c0-3.9 6-3.9 6 0 0 1.7-1.3 3-3 3a3.01 3.01 0 0 1-3-3zm11.9 0c0-3.9 6-3.9 6 0 0 1.7-1.3 3-3 3a3.01 3.01 0 0 1-3-3zm12.1 0c0-3.9 6-3.9 6 0 0 1.7-1.3 3-3 3s-3.1-1.3-3-3zm12 0c0-3.9 6-3.9 6 0 0 1.7-1.3 3-3 3s-3-1.3-3-3zm11.9 0c0-3.9 6-3.9 6 0 0 1.7-1.3 3-3 3s-3-1.3-3-3zm12 0c0-3.9 6-3.9 6 0 0 1.7-1.3 3-3 3a3.01 3.01 0 0 1-3-3zm12 0c0-3.9 6-3.9 6 0 0 1.7-1.3 3-3 3a3.01 3.01 0 0 1-3-3zm11.9 0c0-3.9 6-3.9 6 0 0 1.7-1.3 3-3 3a3.01 3.01 0 0 1-3-3zm12.1 0c0-3.9 6-3.9 6 0 0 1.7-1.3 3-3 3s-3-1.3-3-3zm11.9 0c0-3.9 6-3.9 6 0 0 1.7-1.3 3-3 3s-3-1.3-3-3zm48 0c0-3.9 6-3.9 6 0 0 1.7-1.3 3-3 3s-3.1-1.3-3-3zm12 0c0-3.9 6-3.9 6 0 0 1.7-1.3 3-3 3s-3-1.3-3-3zm11.9 0c0-3.9 6-3.9 6 0 0 1.7-1.3 3-3 3s-3-1.3-3-3zm12 0c0-3.9 6-3.9 6 0 0 1.7-1.3 3-3 3a3.01 3.01 0 0 1-3-3zm12 0c0-3.9 6-3.9 6 0 0 1.7-1.3 3-3 3a3.01 3.01 0 0 1-3-3zm11.9 0c0-3.9 6-3.9 6 0 0 1.7-1.3 3-3 3a3.01 3.01 0 0 1-3-3zm12.1 0c0-3.9 6-3.9 6 0 0 1.7-1.3 3-3 3s-3-1.3-3-3zm11.9 0c0-3.9 6-3.9 6 0 0 1.7-1.3 3-3 3s-3-1.3-3-3zm12 0c0-3.9 6-3.9 6 0 0 1.7-1.3 3-3 3s-3-1.3-3-3zm143.8 0c0-3.9 6-3.9 6 0 0 1.7-1.3 3-3 3a3.01 3.01 0 0 1-3-3zm12.1 0c0-3.9 6-3.9 6 0 0 1.7-1.3 3-3 3s-3.1-1.3-3-3zm11.9 0c0-3.9 6-3.9 6 0 0 1.7-1.3 3-3 3s-3-1.3-3-3zm95.8 0c0-3.9 6-3.9 6 0 0 1.7-1.3 3-3 3a3.01 3.01 0 0 1-3-3zm36 0c0-3.9 6-3.9 6 0 0 1.7-1.3 3-3 3s-3-1.3-3-3zm12 0c0-3.9 6-3.9 6 0 0 1.7-1.3 3-3 3s-3-1.3-3-3zm12 0c0-3.9 6-3.9 6 0 0 1.7-1.3 3-3 3a3.01 3.01 0 0 1-3-3zm11.9 0c0-3.9 6-3.9 6 0 0 1.7-1.3 3-3 3a3.01 3.01 0 0 1-3-3zm12 0c0-3.9 6-3.9 6 0 0 1.7-1.3 3-3 3a3.01 3.01 0 0 1-3-3zm12.1 0c0-3.9 6-3.9 6 0 0 1.7-1.3 3-3 3s-3-1.3-3-3zm11.9 0c0-3.9 6-3.9 6 0 0 1.7-1.3 3-3 3s-3-1.3-3-3zm12 0c0-3.9 6-3.9 6 0 0 1.7-1.3 3-3 3s-3-1.3-3-3zm11.9 0c0-3.9 6-3.9 6 0 0 1.7-1.3 3-3 3a3.01 3.01 0 0 1-3-3zm12 0c0-3.9 6-3.9 6 0 0 1.7-1.3 3-3 3a3.01 3.01 0 0 1-3-3zm12.1 0c0-3.9 6-3.9 6 0 0 1.7-1.3 3-3 3s-3.1-1.3-3-3zm11.9 0c0-3.9 6-3.9 6 0 0 1.7-1.3 3-3 3s-3-1.3-3-3zm12 0c0-3.9 6-3.9 6 0 0 1.7-1.3 3-3 3s-3-1.3-3-3zm12 0c0-3.9 6-3.9 6 0 0 1.7-1.3 3-3 3a3.01 3.01 0 0 1-3-3zm11.9 0c0-3.9 6-3.9 6 0 0 1.7-1.3 3-3 3a3.01 3.01 0 0 1-3-3zm12 0c0-3.9 6-3.9 6 0 0 1.7-1.3 3-3 3a3.01 3.01 0 0 1-3-3zm12.1 0c0-3.9 6-3.9 6 0 0 1.7-1.3 3-3 3s-3-1.3-3-3zm11.9 0c0-3.9 6-3.9 6 0 0 1.7-1.3 3-3 3s-3-1.3-3-3zm12 0c0-3.9 6-3.9 6 0 0 1.7-1.3 3-3 3s-3-1.3-3-3zm12 0c0-3.9 6-3.9 6 0 0 1.7-1.3 3-3 3a3.01 3.01 0 0 1-3-3zm11.9 0c0-3.9 6-3.9 6 0 0 1.7-1.3 3-3 3a3.01 3.01 0 0 1-3-3zm12.1 0c0-3.9 6-3.9 6 0 0 1.7-1.3 3-3 3s-3-1.3-3-3zm12 0c0-3.9 6-3.9 6 0 0 1.7-1.3 3-3 3s-3-1.3-3-3zm11.9 0c0-3.9 6-3.9 6 0 0 1.7-1.3 3-3 3s-3-1.3-3-3zm12 0c0-3.9 6-3.9 6 0 0 1.7-1.3 3-3 3a3.01 3.01 0 0 1-3-3zm11.9 0c0-3.9 6-3.9 6 0 0 1.7-1.3 3-3 3-1.6 0-2.9-1.3-3-3zm12 0c0-3.9 6-3.9 6 0 0 1.7-1.3 3-3 3a3.01 3.01 0 0 1-3-3zm12.1 0c0-3.9 6-3.9 6 0 0 1.7-1.3 3-3 3s-3-1.3-3-3zm11.9 0c0-3.9 6-3.9 6 0 0 1.7-1.3 3-3 3s-3-1.3-3-3zm12 0c0-3.9 6-3.9 6 0 0 1.7-1.3 3-3 3a3.01 3.01 0 0 1-3-3zm12 0c0-3.9 6-3.9 6 0 0 1.7-1.3 3-3 3a3.01 3.01 0 0 1-3-3zm11.9 0c0-3.9 6-3.9 6 0 0 1.7-1.3 3-3 3a3.01 3.01 0 0 1-3-3zm12.1 0c0-3.9 6-3.9 6 0 0 1.7-1.3 3-3 3s-3-1.3-3-3zm12 0c0-3.9 6-3.9 6 0 0 1.7-1.3 3-3 3s-3-1.3-3-3zm11.9 0c0-3.9 6-3.9 6 0 0 1.7-1.3 3-3 3s-3-1.3-3-3zm12 0c0-3.9 6-3.9 6 0 0 1.7-1.3 3-3 3a3.01 3.01 0 0 1-3-3zm12 0c0-3.9 6-3.9 6 0 0 1.7-1.3 3-3 3a3.01 3.01 0 0 1-3-3zm12 0c0-3.9 6-3.9 6 0 0 1.7-1.3 3-3 3s-3.1-1.3-3-3zM25.9 113c0-3.9 6-3.9 6 0 0 4-6 4-6 0zm12.1 0c0-3.9 6-3.9 6 0 0 4-6 4-6 0zm11.9 0c0-3.9 6-3.9 6 0 0 4-6 4-6 0zm12 0c0-3.9 6-3.9 6 0 0 4-6 4-6 0zm12 0c0-3.9 6-3.9 6 0 0 4-6 4-6 0zm11.9 0c0-3.9 6-3.9 6 0 0 4-6 4-6 0zm12 0c0-3.9 6-3.9 6 0 0 4-5.9 4-6 0zm12 0c0-3.9 6-3.9 6 0 0 4-6 4-6 0zm12 0c0-3.9 6-3.9 6 0 0 4-6 4-6 0zm12 0c0-3.9 6-3.9 6 0 0 4-6 4-6 0zm11.9 0c0-3.9 6-3.9 6 0 0 4-6 4-6 0zm12 0c0-3.9 6-3.9 6 0 0 4-6 4-6 0zm12.1 0c0-3.9 6-3.9 6 0 0 4-6 4-6 0zm11.9 0c0-3.9 6-3.9 6 0 0 4-6 4-6 0zm12 0c0-3.9 6-3.9 6 0 0 4-6 4-6 0zm12 0c0-3.9 6-3.9 6 0 0 1.7-1.3 3-3 3-1.6.1-3-1.3-3-3zm11.9 0c0-3.9 6-3.9 6 0 0 1.7-1.3 3-3 3-1.6.1-3-1.3-3-3zm12 0c0-3.9 6-3.9 6 0 0 1.7-1.3 3-3 3-1.6.1-3-1.3-3-3zm12.1 0c0-3.9 6-3.9 6 0 0 1.7-1.3 3-3 3-1.7.1-3-1.3-3-3zm11.9 0c0-3.9 6-3.9 6 0 0 1.7-1.3 3-3 3-1.7.1-3-1.3-3-3zm35.9 0c0-3.9 6-3.9 6 0 0 1.7-1.3 3-3 3-1.6.1-3-1.3-3-3zm12.1 0c0-3.9 6-3.9 6 0 0 1.7-1.3 3-3 3-1.7.1-3-1.3-3-3zm35.9 0c0-3.9 6-3.9 6 0 0 1.7-1.3 3-3 3-1.6.1-3-1.3-3-3zm11.9 0c0-3.9 6-3.9 6 0 0 1.7-1.3 3-3 3-1.6.1-3-1.3-3-3zm12.1 0c0-3.9 6-3.9 6 0 0 1.7-1.3 3-3 3-1.7.1-3.1-1.3-3-3zm12 0c0-3.9 6-3.9 6 0 0 1.7-1.3 3-3 3-1.7.1-3-1.3-3-3zm11.9 0c0-3.9 6-3.9 6 0 0 1.7-1.3 3-3 3-1.7.1-3-1.3-3-3zm35.9 0c0-3.9 6-3.9 6 0 0 1.7-1.3 3-3 3-1.6.1-3-1.3-3-3zm12.1 0c0-3.9 6-3.9 6 0 0 1.7-1.3 3-3 3-1.7.1-3-1.3-3-3zm59.9 0c0-3.9 6-3.9 6 0 0 1.7-1.3 3-3 3-1.7.1-3.1-1.3-3-3zm12 0c0-3.9 6-3.9 6 0 0 1.7-1.3 3-3 3-1.7.1-3-1.3-3-3zm11.9 0c0-3.9 6-3.9 6 0 0 1.7-1.3 3-3 3-1.7.1-3-1.3-3-3zm12 0c0-3.9 6-3.9 6 0 0 1.7-1.3 3-3 3-1.6.1-3-1.3-3-3zm12 0c0-3.9 6-3.9 6 0 0 1.7-1.3 3-3 3-1.6.1-3-1.3-3-3zm11.9 0c0-3.9 6-3.9 6 0 0 1.7-1.3 3-3 3-1.6.1-3-1.3-3-3zm12.1 0c0-3.9 6-3.9 6 0 0 1.7-1.3 3-3 3-1.7.1-3-1.3-3-3zm11.9 0c0-3.9 6-3.9 6 0 0 1.7-1.3 3-3 3s-3-1.3-3-3zm12 0c0-3.9 6-3.9 6 0 0 1.7-1.3 3-3 3-1.7.1-3-1.3-3-3zm131.8 0c0-3.9 6-3.9 6 0 0 1.7-1.3 3-3 3-1.7.1-3-1.3-3-3zm12 0c0-3.9 6-3.9 6 0 0 1.7-1.3 3-3 3-1.6.1-3-1.3-3-3zm12.1 0c0-3.9 6-3.9 6 0 0 1.7-1.3 3-3 3-1.7.1-3.1-1.3-3-3zm11.9 0c0-3.9 6-3.9 6 0 0 1.7-1.3 3-3 3-1.7.1-3-1.3-3-3zm12 0c0-3.9 6-3.9 6 0 0 1.7-1.3 3-3 3-1.7.1-3-1.3-3-3zm11.9 0c0-3.9 6-3.9 6 0 0 1.7-1.3 3-3 3a3.01 3.01 0 0 1-3-3zm24 0c0-3.9 6-3.9 6 0 0 1.7-1.3 3-3 3-1.6.1-3-1.3-3-3zm12 0c0-3.9 6-3.9 6 0 0 1.7-1.3 3-3 3-1.7.1-3.1-1.3-3-3zm12 0c0-3.9 6-3.9 6 0 0 1.7-1.3 3-3 3-1.7.1-3-1.3-3-3zm12 0c0-3.9 6-3.9 6 0 0 1.7-1.3 3-3 3-1.7.1-3-1.3-3-3zm11.9 0c0-3.9 6-3.9 6 0 0 1.7-1.3 3-3 3-1.6.1-3-1.3-3-3zm12 0c0-3.9 6-3.9 6 0 0 1.7-1.3 3-3 3-1.6.1-3-1.3-3-3zm12.1 0c0-3.9 6-3.9 6 0 0 1.7-1.3 3-3 3-1.7.1-3.1-1.3-3-3zm11.9 0c0-3.9 6-3.9 6 0 0 1.7-1.3 3-3 3-1.7.1-3-1.3-3-3zm12 0c0-3.9 6-3.9 6 0 0 1.7-1.3 3-3 3-1.7.1-3-1.3-3-3zm12 0c0-3.9 6-3.9 6 0 0 1.7-1.3 3-3 3-1.6.1-3-1.3-3-3zm11.9 0c0-3.9 6-3.9 6 0 0 1.7-1.3 3-3 3-1.6.1-3-1.3-3-3zm12 0c0-3.9 6-3.9 6 0 0 1.7-1.3 3-3 3-1.6.1-3-1.3-3-3zm12.1 0c0-3.9 6-3.9 6 0 0 1.7-1.3 3-3 3-1.7.1-3-1.3-3-3zm11.9 0c0-3.9 6-3.9 6 0 0 1.7-1.3 3-3 3-1.7.1-3-1.3-3-3zm12 0c0-3.9 6-3.9 6 0 0 1.7-1.3 3-3 3-1.7.1-3-1.3-3-3zm11.9 0c0-3.9 6-3.9 6 0 0 1.7-1.3 3-3 3a3.01 3.01 0 0 1-3-3zm12 0c0-3.9 6-3.9 6 0 0 1.7-1.3 3-3 3-1.6.1-3-1.3-3-3zm12.1 0c0-3.9 6-3.9 6 0 0 1.7-1.3 3-3 3-1.7.1-3.1-1.3-3-3zm11.9 0c0-3.9 6-3.9 6 0 0 1.7-1.3 3-3 3-1.7.1-3-1.3-3-3zm12 0c0-3.9 6-3.9 6 0 0 1.7-1.3 3-3 3-1.7.1-3-1.3-3-3zm12 0c0-3.9 6-3.9 6 0 0 1.7-1.3 3-3 3-1.6.1-3-1.3-3-3zm11.9 0c0-3.9 6-3.9 6 0 0 1.7-1.3 3-3 3-1.6.1-3-1.3-3-3zm12 0c0-3.9 6-3.9 6 0 0 1.7-1.3 3-3 3-1.6.1-3-1.3-3-3zm12.1 0c0-3.9 6-3.9 6 0 0 1.7-1.3 3-3 3-1.7.1-3-1.3-3-3zm11.9 0c0-3.9 6-3.9 6 0 0 1.7-1.3 3-3 3-1.7.1-3-1.3-3-3zm12 0c0-3.9 6-3.9 6 0 0 1.7-1.3 3-3 3-1.7.1-3-1.3-3-3zm12 0c0-3.9 6-3.9 6 0 0 1.7-1.3 3-3 3-1.6.1-3-1.3-3-3zm11.9 0c0-3.9 6-3.9 6 0 0 1.7-1.3 3-3 3-1.6.1-3-1.3-3-3zm12.1 0c0-3.9 6-3.9 6 0 0 1.7-1.3 3-3 3-1.7.1-3-1.3-3-3zm12 0c0-3.9 6-3.9 6 0 0 1.7-1.3 3-3 3-1.7.1-3-1.3-3-3zm11.9 0c0-3.9 6-3.9 6 0 0 1.7-1.3 3-3 3-1.7.1-3-1.3-3-3zm12 0c0-3.9 6-3.9 6 0 0 1.7-1.3 3-3 3-1.6.1-3-1.3-3-3zm11.9 0c0-3.9 6-3.9 6 0 0 1.7-1.3 3-3 3-1.6 0-2.9-1.3-3-3zm12 0c0-3.9 6-3.9 6 0 0 1.7-1.3 3-3 3-1.6.1-3-1.3-3-3zm12.1 0c0-3.9 6-3.9 6 0 0 1.7-1.3 3-3 3-1.7.1-3-1.3-3-3zm11.9 0c0-3.9 6-3.9 6 0 0 1.7-1.3 3-3 3-1.7.1-3-1.3-3-3zm12 0c0-3.9 6-3.9 6 0 0 1.7-1.3 3-3 3-1.6.1-3-1.3-3-3zm12 0c0-3.9 6-3.9 6 0 0 1.7-1.3 3-3 3-1.6.1-3-1.3-3-3zm11.9 0c0-3.9 6-3.9 6 0 0 1.7-1.3 3-3 3-1.6.1-3-1.3-3-3zm12.1 0c0-3.9 6-3.9 6 0 0 1.7-1.3 3-3 3-1.7.1-3-1.3-3-3zm12 0c0-3.9 6-3.9 6 0 0 1.7-1.3 3-3 3-1.7.1-3-1.3-3-3zm11.9 0c0-3.9 6-3.9 6 0 0 1.7-1.3 3-3 3-1.7.1-3-1.3-3-3zm12 0c0-3.9 6-3.9 6 0 0 1.7-1.3 3-3 3-1.6.1-3-1.3-3-3zm12 0c0-3.9 6-3.9 6 0 0 1.7-1.3 3-3 3-1.6.1-3-1.3-3-3zm12 0c0-3.9 6-3.9 6 0 0 1.7-1.3 3-3 3-1.7.1-3.1-1.3-3-3zm12 0c0-3.9 6-3.9 6 0 0 1.7-1.3 3-3 3-1.7.1-3-1.3-3-3zm12 0c0-3.9 6-3.9 6 0 0 1.7-1.3 3-3 3-1.7.1-3-1.3-3-3zM49.9 125c0-3.9 6-3.9 6 0s-6 3.9-6 0zm12 0c0-3.9 6-3.9 6 0s-6 3.9-6 0zm12 0c0-3.9 6-3.9 6 0s-6 3.9-6 0zm11.9 0c0-3.9 6-3.9 6 0s-6 3.9-6 0zm12 0c0-3.9 6-3.9 6 0s-5.9 3.9-6 0zm12 0c0-3.9 6-3.9 6 0s-6 3.9-6 0zm12 0c0-3.9 6-3.9 6 0s-6 3.9-6 0zm12 0c0-3.9 6-3.9 6 0s-6 3.9-6 0zm11.9 0c0-3.9 6-3.9 6 0s-6 3.9-6 0zm12 0c0-3.9 6-3.9 6 0s-6 3.9-6 0zm12.1 0c0-3.9 6-3.9 6 0s-6 3.9-6 0zm11.9 0c0-3.9 6-3.9 6 0s-6 3.9-6 0zm12 0c0-3.9 6-3.9 6 0s-6 3.9-6 0zm12 0c0-3.9 6-3.9 6 0 0 1.7-1.3 3-3 3a3.08 3.08 0 0 1-3-3zm11.9 0c0-3.9 6-3.9 6 0 0 1.7-1.3 3-3 3a3.08 3.08 0 0 1-3-3zm12 0c0-3.9 6-3.9 6 0 0 1.7-1.3 3-3 3a3.08 3.08 0 0 1-3-3zm12.1 0c0-3.9 6-3.9 6 0 0 1.7-1.3 3-3 3a3.01 3.01 0 0 1-3-3zm11.9 0c0-3.9 6-3.9 6 0 0 1.7-1.3 3-3 3a3.01 3.01 0 0 1-3-3zm12 0c0-3.9 6-3.9 6 0 0 1.7-1.3 3-3 3a3.08 3.08 0 0 1-3-3zm11.9 0c0-3.9 6-3.9 6 0 0 1.7-1.3 3-3 3a3.08 3.08 0 0 1-3-3zm12 0c0-3.9 6-3.9 6 0 0 1.7-1.3 3-3 3a3.08 3.08 0 0 1-3-3zm12.1 0c0-3.9 6-3.9 6 0 0 1.7-1.3 3-3 3a3.01 3.01 0 0 1-3-3zm11.9 0c0-3.9 6-3.9 6 0 0 1.7-1.3 3-3 3a3.01 3.01 0 0 1-3-3zm12 0c0-3.9 6-3.9 6 0 0 1.7-1.3 3-3 3a3.01 3.01 0 0 1-3-3zm12 0c0-3.9 6-3.9 6 0 0 1.7-1.3 3-3 3a3.08 3.08 0 0 1-3-3zm11.9 0c0-3.9 6-3.9 6 0 0 1.7-1.3 3-3 3a3.08 3.08 0 0 1-3-3zm12.1 0c0-3.9 6-3.9 6 0 0 1.7-1.3 3-3 3s-3.1-1.4-3-3zm12 0c0-3.9 6-3.9 6 0 0 1.7-1.3 3-3 3a3.01 3.01 0 0 1-3-3zm11.9 0c0-3.9 6-3.9 6 0 0 1.7-1.3 3-3 3a3.01 3.01 0 0 1-3-3zm24 0c0-3.9 6-3.9 6 0 0 1.7-1.3 3-3 3a3.08 3.08 0 0 1-3-3zm11.9 0c0-3.9 6-3.9 6 0 0 1.7-1.3 3-3 3a3.08 3.08 0 0 1-3-3zm12.1 0c0-3.9 6-3.9 6 0 0 1.7-1.3 3-3 3a3.01 3.01 0 0 1-3-3zm11.9 0c0-3.9 6-3.9 6 0 0 1.7-1.3 3-3 3a3.01 3.01 0 0 1-3-3zm12 0c0-3.9 6-3.9 6 0 0 1.7-1.3 3-3 3a3.01 3.01 0 0 1-3-3zm36 0c0-3.9 6-3.9 6 0 0 1.7-1.3 3-3 3s-3.1-1.4-3-3zm12 0c0-3.9 6-3.9 6 0 0 1.7-1.3 3-3 3a3.01 3.01 0 0 1-3-3zm11.9 0c0-3.9 6-3.9 6 0 0 1.7-1.3 3-3 3a3.01 3.01 0 0 1-3-3zm12 0c0-3.9 6-3.9 6 0 0 1.7-1.3 3-3 3a3.08 3.08 0 0 1-3-3zm12 0c0-3.9 6-3.9 6 0 0 1.7-1.3 3-3 3a3.08 3.08 0 0 1-3-3zm11.9 0c0-3.9 6-3.9 6 0 0 1.7-1.3 3-3 3a3.08 3.08 0 0 1-3-3zm12.1 0c0-3.9 6-3.9 6 0 0 1.7-1.3 3-3 3a3.01 3.01 0 0 1-3-3zm143.8 0c0-3.9 6-3.9 6 0 0 1.7-1.3 3-3 3a3.01 3.01 0 0 1-3-3zm11.9 0c0-3.9 6-3.9 6 0 0 1.7-1.3 3-3 3a3.01 3.01 0 0 1-3-3zm12 0c0-3.9 6-3.9 6 0 0 1.7-1.3 3-3 3a3.08 3.08 0 0 1-3-3zm12.1 0c0-3.9 6-3.9 6 0 0 1.7-1.3 3-3 3s-3.1-1.4-3-3zm11.9 0c0-3.9 6-3.9 6 0 0 1.7-1.3 3-3 3a3.01 3.01 0 0 1-3-3zm12 0c0-3.9 6-3.9 6 0 0 1.7-1.3 3-3 3a3.01 3.01 0 0 1-3-3zm11.9 0c0-3.9 6-3.9 6 0 0 1.7-1.3 3-3 3-1.6-.1-3-1.4-3-3zm12 0c0-3.9 6-3.9 6 0 0 1.7-1.3 3-3 3a3.08 3.08 0 0 1-3-3zm24 0c0-3.9 6-3.9 6 0 0 1.7-1.3 3-3 3s-3.1-1.4-3-3zm12 0c0-3.9 6-3.9 6 0 0 1.7-1.3 3-3 3a3.01 3.01 0 0 1-3-3zm12 0c0-3.9 6-3.9 6 0 0 1.7-1.3 3-3 3a3.01 3.01 0 0 1-3-3zm11.9 0c0-3.9 6-3.9 6 0 0 1.7-1.3 3-3 3a3.08 3.08 0 0 1-3-3zm12 0c0-3.9 6-3.9 6 0 0 1.7-1.3 3-3 3a3.08 3.08 0 0 1-3-3zm12.1 0c0-3.9 6-3.9 6 0 0 1.7-1.3 3-3 3s-3.1-1.4-3-3zm11.9 0c0-3.9 6-3.9 6 0 0 1.7-1.3 3-3 3a3.01 3.01 0 0 1-3-3zm12 0c0-3.9 6-3.9 6 0 0 1.7-1.3 3-3 3a3.01 3.01 0 0 1-3-3zm12 0c0-3.9 6-3.9 6 0 0 1.7-1.3 3-3 3a3.08 3.08 0 0 1-3-3zm11.9 0c0-3.9 6-3.9 6 0 0 1.7-1.3 3-3 3a3.08 3.08 0 0 1-3-3zm12 0c0-3.9 6-3.9 6 0 0 1.7-1.3 3-3 3a3.08 3.08 0 0 1-3-3zm12.1 0c0-3.9 6-3.9 6 0 0 1.7-1.3 3-3 3a3.01 3.01 0 0 1-3-3zm11.9 0c0-3.9 6-3.9 6 0 0 1.7-1.3 3-3 3a3.01 3.01 0 0 1-3-3zm12 0c0-3.9 6-3.9 6 0 0 1.7-1.3 3-3 3a3.01 3.01 0 0 1-3-3zm11.9 0c0-3.9 6-3.9 6 0 0 1.7-1.3 3-3 3-1.6-.1-3-1.4-3-3zm12 0c0-3.9 6-3.9 6 0 0 1.7-1.3 3-3 3a3.08 3.08 0 0 1-3-3zm12.1 0c0-3.9 6-3.9 6 0 0 1.7-1.3 3-3 3s-3.1-1.4-3-3zm11.9 0c0-3.9 6-3.9 6 0 0 1.7-1.3 3-3 3a3.01 3.01 0 0 1-3-3zm12 0c0-3.9 6-3.9 6 0 0 1.7-1.3 3-3 3a3.01 3.01 0 0 1-3-3zm12 0c0-3.9 6-3.9 6 0 0 1.7-1.3 3-3 3a3.08 3.08 0 0 1-3-3zm11.9 0c0-3.9 6-3.9 6 0 0 1.7-1.3 3-3 3a3.08 3.08 0 0 1-3-3zm12 0c0-3.9 6-3.9 6 0 0 1.7-1.3 3-3 3a3.08 3.08 0 0 1-3-3zm12.1 0c0-3.9 6-3.9 6 0 0 1.7-1.3 3-3 3a3.01 3.01 0 0 1-3-3zm11.9 0c0-3.9 6-3.9 6 0 0 1.7-1.3 3-3 3a3.01 3.01 0 0 1-3-3zm12 0c0-3.9 6-3.9 6 0 0 1.7-1.3 3-3 3a3.01 3.01 0 0 1-3-3zm12 0c0-3.9 6-3.9 6 0 0 1.7-1.3 3-3 3a3.08 3.08 0 0 1-3-3zm11.9 0c0-3.9 6-3.9 6 0 0 1.7-1.3 3-3 3a3.08 3.08 0 0 1-3-3zm12.1 0c0-3.9 6-3.9 6 0 0 1.7-1.3 3-3 3a3.01 3.01 0 0 1-3-3zm12 0c0-3.9 6-3.9 6 0 0 1.7-1.3 3-3 3a3.01 3.01 0 0 1-3-3zm11.9 0c0-3.9 6-3.9 6 0 0 1.7-1.3 3-3 3a3.01 3.01 0 0 1-3-3zm12 0c0-3.9 6-3.9 6 0 0 1.7-1.3 3-3 3a3.08 3.08 0 0 1-3-3zm11.9 0c0-3.9 6-3.9 6 0 0 1.7-1.3 3-3 3a3.23 3.23 0 0 1-3-3zm12 0c0-3.9 6-3.9 6 0 0 1.7-1.3 3-3 3a3.08 3.08 0 0 1-3-3zm12.1 0c0-3.9 6-3.9 6 0 0 1.7-1.3 3-3 3a3.01 3.01 0 0 1-3-3zm11.9 0c0-3.9 6-3.9 6 0 0 1.7-1.3 3-3 3a3.01 3.01 0 0 1-3-3zm12 0c0-3.9 6-3.9 6 0 0 1.7-1.3 3-3 3a3.08 3.08 0 0 1-3-3zm12 0c0-3.9 6-3.9 6 0 0 1.7-1.3 3-3 3a3.08 3.08 0 0 1-3-3zm11.9 0c0-3.9 6-3.9 6 0 0 1.7-1.3 3-3 3a3.08 3.08 0 0 1-3-3zm12.1 0c0-3.9 6-3.9 6 0 0 1.7-1.3 3-3 3a3.01 3.01 0 0 1-3-3zm12 0c0-3.9 6-3.9 6 0 0 1.7-1.3 3-3 3a3.01 3.01 0 0 1-3-3zm11.9 0c0-3.9 6-3.9 6 0 0 1.7-1.3 3-3 3a3.01 3.01 0 0 1-3-3zm12 0c0-3.9 6-3.9 6 0 0 1.7-1.3 3-3 3a3.08 3.08 0 0 1-3-3zm12 0c0-3.9 6-3.9 6 0 0 1.7-1.3 3-3 3a3.08 3.08 0 0 1-3-3zm12 0c0-3.9 6-3.9 6 0 0 1.7-1.3 3-3 3s-3.1-1.4-3-3zm12 0c0-3.9 6-3.9 6 0 0 1.7-1.3 3-3 3a3.01 3.01 0 0 1-3-3zm12 0c0-3.9 6-3.9 6 0 0 1.7-1.3 3-3 3a3.01 3.01 0 0 1-3-3zm11.9 0c0-3.9 6-3.9 6 0 0 1.7-1.3 3-3 3a3.08 3.08 0 0 1-3-3zm12 0c0-3.9 6-3.9 6 0 0 1.7-1.3 3-3 3a3.08 3.08 0 0 1-3-3zM25.9 137c0-3.9 6-3.9 6 0s-6 3.9-6 0zm12.1 0c0-3.9 6-3.9 6 0s-6 3.9-6 0zm11.9 0c0-3.9 6-3.9 6 0s-6 3.9-6 0zm12 0c0-3.9 6-3.9 6 0s-6 3.9-6 0zm12 0c0-3.9 6-3.9 6 0s-6 3.9-6 0zm11.9 0c0-3.9 6-3.9 6 0s-6 3.9-6 0zm12 0c0-3.9 6-3.9 6 0s-5.9 3.9-6 0zm12 0c0-3.9 6-3.9 6 0s-6 3.9-6 0zm12 0c0-3.9 6-3.9 6 0s-6 3.9-6 0zm12 0c0-3.9 6-3.9 6 0s-6 3.9-6 0zm11.9 0c0-3.9 6-3.9 6 0s-6 3.9-6 0zm12 0c0-3.9 6-3.9 6 0s-6 3.9-6 0zm12.1 0c0-3.9 6-3.9 6 0s-6 3.9-6 0zm11.9 0c0-3.9 6-3.9 6 0s-6 3.9-6 0zm12 0c0-3.9 6-3.9 6 0s-6 3.9-6 0zm12 0c0-3.9 6-3.9 6 0 0 1.7-1.3 3-3 3a3.08 3.08 0 0 1-3-3zm11.9 0c0-3.9 6-3.9 6 0 0 1.7-1.3 3-3 3a3.08 3.08 0 0 1-3-3zm12 0c0-3.9 6-3.9 6 0 0 1.7-1.3 3-3 3a3.08 3.08 0 0 1-3-3zm12.1 0c0-3.9 6-3.9 6 0 0 1.7-1.3 3-3 3a3.01 3.01 0 0 1-3-3zm11.9 0c0-3.9 6-3.9 6 0 0 1.7-1.3 3-3 3a3.01 3.01 0 0 1-3-3zm12 0c0-3.9 6-3.9 6 0 0 1.7-1.3 3-3 3a3.08 3.08 0 0 1-3-3zm11.9 0c0-3.9 6-3.9 6 0 0 1.7-1.3 3-3 3a3.08 3.08 0 0 1-3-3zm12 0c0-3.9 6-3.9 6 0 0 1.7-1.3 3-3 3a3.08 3.08 0 0 1-3-3zm12.1 0c0-3.9 6-3.9 6 0 0 1.7-1.3 3-3 3a3.01 3.01 0 0 1-3-3zm11.9 0c0-3.9 6-3.9 6 0 0 1.7-1.3 3-3 3a3.01 3.01 0 0 1-3-3zm12 0c0-3.9 6-3.9 6 0 0 1.7-1.3 3-3 3a3.01 3.01 0 0 1-3-3zm12 0c0-3.9 6-3.9 6 0 0 1.7-1.3 3-3 3a3.08 3.08 0 0 1-3-3zm11.9 0c0-3.9 6-3.9 6 0 0 1.7-1.3 3-3 3a3.08 3.08 0 0 1-3-3zm12.1 0c0-3.9 6-3.9 6 0 0 1.7-1.3 3-3 3s-3.1-1.4-3-3zm12 0c0-3.9 6-3.9 6 0 0 1.7-1.3 3-3 3a3.01 3.01 0 0 1-3-3zm47.8 0c0-3.9 6-3.9 6 0 0 1.7-1.3 3-3 3a3.08 3.08 0 0 1-3-3zm12.1 0c0-3.9 6-3.9 6 0 0 1.7-1.3 3-3 3a3.01 3.01 0 0 1-3-3zm11.9 0c0-3.9 6-3.9 6 0 0 1.7-1.3 3-3 3a3.01 3.01 0 0 1-3-3zm12 0c0-3.9 6-3.9 6 0 0 1.7-1.3 3-3 3a3.01 3.01 0 0 1-3-3zm36 0c0-3.9 6-3.9 6 0 0 1.7-1.3 3-3 3s-3.1-1.4-3-3zm12 0c0-3.9 6-3.9 6 0 0 1.7-1.3 3-3 3a3.01 3.01 0 0 1-3-3zm11.9 0c0-3.9 6-3.9 6 0 0 1.7-1.3 3-3 3a3.01 3.01 0 0 1-3-3zm12 0c0-3.9 6-3.9 6 0 0 1.7-1.3 3-3 3a3.08 3.08 0 0 1-3-3zm12 0c0-3.9 6-3.9 6 0 0 1.7-1.3 3-3 3a3.08 3.08 0 0 1-3-3zm11.9 0c0-3.9 6-3.9 6 0 0 1.7-1.3 3-3 3a3.08 3.08 0 0 1-3-3zm36 0c0-3.9 6-3.9 6 0 0 1.7-1.3 3-3 3a3.01 3.01 0 0 1-3-3zm12 0c0-3.9 6-3.9 6 0 0 1.7-1.3 3-3 3a3.08 3.08 0 0 1-3-3zm11.9 0c0-3.9 6-3.9 6 0 0 1.7-1.3 3-3 3a3.08 3.08 0 0 1-3-3zm84 0c0-3.9 6-3.9 6 0 0 1.7-1.3 3-3 3a3.01 3.01 0 0 1-3-3zm12 0c0-3.9 6-3.9 6 0 0 1.7-1.3 3-3 3a3.01 3.01 0 0 1-3-3zm11.9 0c0-3.9 6-3.9 6 0 0 1.7-1.3 3-3 3a3.01 3.01 0 0 1-3-3zm12 0c0-3.9 6-3.9 6 0 0 1.7-1.3 3-3 3a3.08 3.08 0 0 1-3-3zm12.1 0c0-3.9 6-3.9 6 0 0 1.7-1.3 3-3 3s-3.1-1.4-3-3zm11.9 0c0-3.9 6-3.9 6 0 0 1.7-1.3 3-3 3a3.01 3.01 0 0 1-3-3zm12 0c0-3.9 6-3.9 6 0 0 1.7-1.3 3-3 3a3.01 3.01 0 0 1-3-3zm11.9 0c0-3.9 6-3.9 6 0 0 1.7-1.3 3-3 3a3.08 3.08 0 0 1-3-3zm12 0c0-3.9 6-3.9 6 0 0 1.7-1.3 3-3 3a3.08 3.08 0 0 1-3-3zm12 0c0-3.9 6-3.9 6 0 0 1.7-1.3 3-3 3a3.08 3.08 0 0 1-3-3zm12 0c0-3.9 6-3.9 6 0 0 1.7-1.3 3-3 3s-3.1-1.4-3-3zm12 0c0-3.9 6-3.9 6 0 0 1.7-1.3 3-3 3a3.01 3.01 0 0 1-3-3zm12 0c0-3.9 6-3.9 6 0 0 1.7-1.3 3-3 3a3.01 3.01 0 0 1-3-3zm11.9 0c0-3.9 6-3.9 6 0 0 1.7-1.3 3-3 3a3.08 3.08 0 0 1-3-3zm12 0c0-3.9 6-3.9 6 0 0 1.7-1.3 3-3 3a3.08 3.08 0 0 1-3-3zm12.1 0c0-3.9 6-3.9 6 0 0 1.7-1.3 3-3 3s-3.1-1.4-3-3zm11.9 0c0-3.9 6-3.9 6 0 0 1.7-1.3 3-3 3a3.01 3.01 0 0 1-3-3zm12 0c0-3.9 6-3.9 6 0 0 1.7-1.3 3-3 3a3.01 3.01 0 0 1-3-3zm12 0c0-3.9 6-3.9 6 0 0 1.7-1.3 3-3 3a3.08 3.08 0 0 1-3-3zm11.9 0c0-3.9 6-3.9 6 0 0 1.7-1.3 3-3 3a3.08 3.08 0 0 1-3-3zm12 0c0-3.9 6-3.9 6 0 0 1.7-1.3 3-3 3a3.08 3.08 0 0 1-3-3zm12.1 0c0-3.9 6-3.9 6 0 0 1.7-1.3 3-3 3a3.01 3.01 0 0 1-3-3zm11.9 0c0-3.9 6-3.9 6 0 0 1.7-1.3 3-3 3a3.01 3.01 0 0 1-3-3zm12 0c0-3.9 6-3.9 6 0 0 1.7-1.3 3-3 3a3.01 3.01 0 0 1-3-3zm11.9 0c0-3.9 6-3.9 6 0 0 1.7-1.3 3-3 3a3.08 3.08 0 0 1-3-3zm12 0c0-3.9 6-3.9 6 0 0 1.7-1.3 3-3 3a3.08 3.08 0 0 1-3-3zm12.1 0c0-3.9 6-3.9 6 0 0 1.7-1.3 3-3 3s-3.1-1.4-3-3zm11.9 0c0-3.9 6-3.9 6 0 0 1.7-1.3 3-3 3a3.01 3.01 0 0 1-3-3zm12 0c0-3.9 6-3.9 6 0 0 1.7-1.3 3-3 3a3.01 3.01 0 0 1-3-3zm12 0c0-3.9 6-3.9 6 0 0 1.7-1.3 3-3 3a3.08 3.08 0 0 1-3-3zm11.9 0c0-3.9 6-3.9 6 0 0 1.7-1.3 3-3 3a3.08 3.08 0 0 1-3-3zm12 0c0-3.9 6-3.9 6 0 0 1.7-1.3 3-3 3a3.08 3.08 0 0 1-3-3zm12.1 0c0-3.9 6-3.9 6 0 0 1.7-1.3 3-3 3a3.01 3.01 0 0 1-3-3zm11.9 0c0-3.9 6-3.9 6 0 0 1.7-1.3 3-3 3a3.01 3.01 0 0 1-3-3zm12 0c0-3.9 6-3.9 6 0 0 1.7-1.3 3-3 3a3.01 3.01 0 0 1-3-3zm12 0c0-3.9 6-3.9 6 0 0 1.7-1.3 3-3 3a3.08 3.08 0 0 1-3-3zm11.9 0c0-3.9 6-3.9 6 0 0 1.7-1.3 3-3 3a3.08 3.08 0 0 1-3-3zm12.1 0c0-3.9 6-3.9 6 0 0 1.7-1.3 3-3 3a3.01 3.01 0 0 1-3-3zm12 0c0-3.9 6-3.9 6 0 0 1.7-1.3 3-3 3a3.01 3.01 0 0 1-3-3zm11.9 0c0-3.9 6-3.9 6 0 0 1.7-1.3 3-3 3a3.01 3.01 0 0 1-3-3zm12 0c0-3.9 6-3.9 6 0 0 1.7-1.3 3-3 3a3.08 3.08 0 0 1-3-3zm11.9 0c0-3.9 6-3.9 6 0 0 1.7-1.3 3-3 3-1.6 0-2.9-1.4-3-3zm12 0c0-3.9 6-3.9 6 0 0 1.7-1.3 3-3 3a3.08 3.08 0 0 1-3-3zm12.1 0c0-3.9 6-3.9 6 0 0 1.7-1.3 3-3 3a3.01 3.01 0 0 1-3-3zm11.9 0c0-3.9 6-3.9 6 0 0 1.7-1.3 3-3 3a3.01 3.01 0 0 1-3-3zm12 0c0-3.9 6-3.9 6 0 0 1.7-1.3 3-3 3a3.08 3.08 0 0 1-3-3zm12 0c0-3.9 6-3.9 6 0 0 1.7-1.3 3-3 3a3.08 3.08 0 0 1-3-3zm11.9 0c0-3.9 6-3.9 6 0 0 1.7-1.3 3-3 3a3.08 3.08 0 0 1-3-3zm12.1 0c0-3.9 6-3.9 6 0 0 1.7-1.3 3-3 3a3.01 3.01 0 0 1-3-3zm12 0c0-3.9 6-3.9 6 0 0 1.7-1.3 3-3 3a3.01 3.01 0 0 1-3-3zm11.9 0c0-3.9 6-3.9 6 0 0 1.7-1.3 3-3 3a3.01 3.01 0 0 1-3-3zm12 0c0-3.9 6-3.9 6 0 0 1.7-1.3 3-3 3a3.08 3.08 0 0 1-3-3zm12 0c0-3.9 6-3.9 6 0 0 1.7-1.3 3-3 3a3.08 3.08 0 0 1-3-3zm36 0c0-3.9 6-3.9 6 0 0 1.7-1.3 3-3 3a3.01 3.01 0 0 1-3-3zm11.9 0c0-3.9 6-3.9 6 0 0 1.7-1.3 3-3 3a3.08 3.08 0 0 1-3-3zM49.9 149c0-3.9 6-3.9 6 0s-6 3.9-6 0zm12 0c0-3.9 6-3.9 6 0s-6 3.9-6 0zm12 0c0-3.9 6-3.9 6 0s-6 3.9-6 0zm11.9 0c0-3.9 6-3.9 6 0s-6 3.9-6 0zm12 0c0-3.9 6-3.9 6 0s-5.9 3.9-6 0zm12 0c0-3.9 6-3.9 6 0s-6 3.9-6 0zm12 0c0-3.9 6-3.9 6 0s-6 3.9-6 0zm12 0c0-3.9 6-3.9 6 0s-6 3.9-6 0zm11.9 0c0-3.9 6-3.9 6 0s-6 3.9-6 0zm12 0c0-3.9 6-3.9 6 0s-6 3.9-6 0zm12.1 0c0-3.9 6-3.9 6 0s-6 3.9-6 0zm11.9 0c0-3.9 6-3.9 6 0s-6 3.9-6 0zm12 0c0-3.9 6-3.9 6 0s-6 3.9-6 0zm12 0c0-3.9 6-3.9 6 0 0 1.7-1.3 3-3 3a3.01 3.01 0 0 1-3-3zm11.9 0c0-3.9 6-3.9 6 0 0 1.7-1.3 3-3 3a3.01 3.01 0 0 1-3-3zm12 0c0-3.9 6-3.9 6 0 0 1.7-1.3 3-3 3a3.01 3.01 0 0 1-3-3zm12.1 0c0-3.9 6-3.9 6 0 0 1.7-1.3 3-3 3s-3-1.3-3-3zm11.9 0c0-3.9 6-3.9 6 0 0 1.7-1.3 3-3 3s-3-1.3-3-3zm12 0c0-3.9 6-3.9 6 0 0 1.7-1.3 3-3 3a3.01 3.01 0 0 1-3-3zm11.9 0c0-3.9 6-3.9 6 0 0 1.7-1.3 3-3 3a3.01 3.01 0 0 1-3-3zm12 0c0-3.9 6-3.9 6 0 0 1.7-1.3 3-3 3a3.01 3.01 0 0 1-3-3zm12.1 0c0-3.9 6-3.9 6 0 0 1.7-1.3 3-3 3s-3-1.3-3-3zm11.9 0c0-3.9 6-3.9 6 0 0 1.7-1.3 3-3 3s-3-1.3-3-3zm12 0c0-3.9 6-3.9 6 0 0 1.7-1.3 3-3 3s-3-1.3-3-3zm12 0c0-3.9 6-3.9 6 0 0 1.7-1.3 3-3 3a3.01 3.01 0 0 1-3-3zm11.9 0c0-3.9 6-3.9 6 0 0 1.7-1.3 3-3 3a3.01 3.01 0 0 1-3-3zm24.1 0c0-3.9 6-3.9 6 0 0 1.7-1.3 3-3 3s-3-1.3-3-3zm11.9 0c0-3.9 6-3.9 6 0 0 1.7-1.3 3-3 3s-3-1.3-3-3zm35.9 0c0-3.9 6-3.9 6 0 0 1.7-1.3 3-3 3a3.01 3.01 0 0 1-3-3zm12.1 0c0-3.9 6-3.9 6 0 0 1.7-1.3 3-3 3s-3-1.3-3-3zm59.9 0c0-3.9 6-3.9 6 0 0 1.7-1.3 3-3 3s-3.1-1.3-3-3zm12 0c0-3.9 6-3.9 6 0 0 1.7-1.3 3-3 3s-3-1.3-3-3zm11.9 0c0-3.9 6-3.9 6 0 0 1.7-1.3 3-3 3s-3-1.3-3-3zm12 0c0-3.9 6-3.9 6 0 0 1.7-1.3 3-3 3a3.01 3.01 0 0 1-3-3zm59.9 0c0-3.9 6-3.9 6 0 0 1.7-1.3 3-3 3s-3-1.3-3-3zm12 0c0-3.9 6-3.9 6 0 0 1.7-1.3 3-3 3a3.01 3.01 0 0 1-3-3zm11.9 0c0-3.9 6-3.9 6 0 0 1.7-1.3 3-3 3a3.01 3.01 0 0 1-3-3zm84 0c0-3.9 6-3.9 6 0 0 1.7-1.3 3-3 3s-3-1.3-3-3zm12 0c0-3.9 6-3.9 6 0 0 1.7-1.3 3-3 3s-3-1.3-3-3zm11.9 0c0-3.9 6-3.9 6 0 0 1.7-1.3 3-3 3s-3-1.3-3-3zm12 0c0-3.9 6-3.9 6 0 0 1.7-1.3 3-3 3a3.01 3.01 0 0 1-3-3zm12.1 0c0-3.9 6-3.9 6 0 0 1.7-1.3 3-3 3s-3.1-1.3-3-3zm11.9 0c0-3.9 6-3.9 6 0 0 1.7-1.3 3-3 3s-3-1.3-3-3zm12 0c0-3.9 6-3.9 6 0 0 1.7-1.3 3-3 3s-3-1.3-3-3zm11.9 0c0-3.9 6-3.9 6 0 0 1.7-1.3 3-3 3a3.08 3.08 0 0 1-3-3zm12 0c0-3.9 6-3.9 6 0 0 1.7-1.3 3-3 3a3.01 3.01 0 0 1-3-3zm12 0c0-3.9 6-3.9 6 0 0 1.7-1.3 3-3 3a3.01 3.01 0 0 1-3-3zm12 0c0-3.9 6-3.9 6 0 0 1.7-1.3 3-3 3s-3.1-1.3-3-3zm12 0c0-3.9 6-3.9 6 0 0 1.7-1.3 3-3 3s-3-1.3-3-3zm12 0c0-3.9 6-3.9 6 0 0 1.7-1.3 3-3 3s-3-1.3-3-3zm11.9 0c0-3.9 6-3.9 6 0 0 1.7-1.3 3-3 3a3.01 3.01 0 0 1-3-3zm12 0c0-3.9 6-3.9 6 0 0 1.7-1.3 3-3 3a3.01 3.01 0 0 1-3-3zm12.1 0c0-3.9 6-3.9 6 0 0 1.7-1.3 3-3 3s-3.1-1.3-3-3zm11.9 0c0-3.9 6-3.9 6 0 0 1.7-1.3 3-3 3s-3-1.3-3-3zm12 0c0-3.9 6-3.9 6 0 0 1.7-1.3 3-3 3s-3-1.3-3-3zm12 0c0-3.9 6-3.9 6 0 0 1.7-1.3 3-3 3a3.01 3.01 0 0 1-3-3zm11.9 0c0-3.9 6-3.9 6 0 0 1.7-1.3 3-3 3a3.01 3.01 0 0 1-3-3zm12 0c0-3.9 6-3.9 6 0 0 1.7-1.3 3-3 3a3.01 3.01 0 0 1-3-3zm12.1 0c0-3.9 6-3.9 6 0 0 1.7-1.3 3-3 3s-3-1.3-3-3zm11.9 0c0-3.9 6-3.9 6 0 0 1.7-1.3 3-3 3s-3-1.3-3-3zm12 0c0-3.9 6-3.9 6 0 0 1.7-1.3 3-3 3s-3-1.3-3-3zm11.9 0c0-3.9 6-3.9 6 0 0 1.7-1.3 3-3 3a3.08 3.08 0 0 1-3-3zm12 0c0-3.9 6-3.9 6 0 0 1.7-1.3 3-3 3a3.01 3.01 0 0 1-3-3zm12.1 0c0-3.9 6-3.9 6 0 0 1.7-1.3 3-3 3s-3.1-1.3-3-3zm11.9 0c0-3.9 6-3.9 6 0 0 1.7-1.3 3-3 3s-3-1.3-3-3zm12 0c0-3.9 6-3.9 6 0 0 1.7-1.3 3-3 3s-3-1.3-3-3zm12 0c0-3.9 6-3.9 6 0 0 1.7-1.3 3-3 3a3.01 3.01 0 0 1-3-3zm11.9 0c0-3.9 6-3.9 6 0 0 1.7-1.3 3-3 3a3.01 3.01 0 0 1-3-3zm12 0c0-3.9 6-3.9 6 0 0 1.7-1.3 3-3 3a3.01 3.01 0 0 1-3-3zm12.1 0c0-3.9 6-3.9 6 0 0 1.7-1.3 3-3 3s-3-1.3-3-3zm11.9 0c0-3.9 6-3.9 6 0 0 1.7-1.3 3-3 3s-3-1.3-3-3zm12 0c0-3.9 6-3.9 6 0 0 1.7-1.3 3-3 3s-3-1.3-3-3zm12 0c0-3.9 6-3.9 6 0 0 1.7-1.3 3-3 3a3.01 3.01 0 0 1-3-3zm11.9 0c0-3.9 6-3.9 6 0 0 1.7-1.3 3-3 3a3.01 3.01 0 0 1-3-3zm12.1 0c0-3.9 6-3.9 6 0 0 1.7-1.3 3-3 3s-3-1.3-3-3zm12 0c0-3.9 6-3.9 6 0 0 1.7-1.3 3-3 3s-3-1.3-3-3zm11.9 0c0-3.9 6-3.9 6 0 0 1.7-1.3 3-3 3s-3-1.3-3-3zm12 0c0-3.9 6-3.9 6 0 0 1.7-1.3 3-3 3a3.01 3.01 0 0 1-3-3zm11.9 0c0-3.9 6-3.9 6 0 0 1.7-1.3 3-3 3-1.6 0-2.9-1.4-3-3zm12 0c0-3.9 6-3.9 6 0 0 1.7-1.3 3-3 3a3.01 3.01 0 0 1-3-3zm12.1 0c0-3.9 6-3.9 6 0 0 1.7-1.3 3-3 3s-3-1.3-3-3zm11.9 0c0-3.9 6-3.9 6 0 0 1.7-1.3 3-3 3s-3-1.3-3-3zm12 0c0-3.9 6-3.9 6 0 0 1.7-1.3 3-3 3a3.01 3.01 0 0 1-3-3zm12 0c0-3.9 6-3.9 6 0 0 1.7-1.3 3-3 3a3.01 3.01 0 0 1-3-3zm11.9 0c0-3.9 6-3.9 6 0 0 1.7-1.3 3-3 3a3.01 3.01 0 0 1-3-3zm12.1 0c0-3.9 6-3.9 6 0 0 1.7-1.3 3-3 3s-3-1.3-3-3zm12 0c0-3.9 6-3.9 6 0 0 1.7-1.3 3-3 3s-3-1.3-3-3zm11.9 0c0-3.9 6-3.9 6 0 0 1.7-1.3 3-3 3s-3-1.3-3-3zm12 0c0-3.9 6-3.9 6 0 0 1.7-1.3 3-3 3a3.01 3.01 0 0 1-3-3zm12 0c0-3.9 6-3.9 6 0 0 1.7-1.3 3-3 3a3.01 3.01 0 0 1-3-3zm12 0c0-3.9 6-3.9 6 0 0 1.7-1.3 3-3 3s-3.1-1.3-3-3zM2 160.9c0-3.9 6-3.9 6 0s-6 4-6 0zm36 0c0-3.9 6-3.9 6 0s-6 4-6 0zm11.9 0c0-3.9 6-3.9 6 0s-6 4-6 0zm12 0c0-3.9 6-3.9 6 0s-6 4-6 0zm12 0c0-3.9 6-3.9 6 0s-6 4-6 0zm11.9 0c0-3.9 6-3.9 6 0s-6 4-6 0zm12 0c0-3.9 6-3.9 6 0s-5.9 4-6 0zm12 0c0-3.9 6-3.9 6 0s-6 4-6 0zm12 0c0-3.9 6-3.9 6 0s-6 4-6 0zm12 0c0-3.9 6-3.9 6 0s-6 4-6 0zm11.9 0c0-3.9 6-3.9 6 0s-6 4-6 0zm12 0c0-3.9 6-3.9 6 0s-6 4-6 0zm12.1 0c0-3.9 6-3.9 6 0s-6 4-6 0zm11.9 0c0-3.9 6-3.9 6 0s-6 4-6 0zm12 0c0-3.9 6-3.9 6 0s-6 4-6 0zm12 0c0-3.9 6-3.9 6 0 0 1.7-1.3 3-3 3a3.01 3.01 0 0 1-3-3zm11.9 0c0-3.9 6-3.9 6 0 0 1.7-1.3 3-3 3a3.01 3.01 0 0 1-3-3zm12 0c0-3.9 6-3.9 6 0 0 1.7-1.3 3-3 3a3.01 3.01 0 0 1-3-3zm12.1 0c0-3.9 6-3.9 6 0 0 1.7-1.3 3-3 3s-3-1.3-3-3zm11.9 0c0-3.9 6-3.9 6 0 0 1.7-1.3 3-3 3s-3-1.3-3-3zm12 0c0-3.9 6-3.9 6 0 0 1.7-1.3 3-3 3a3.01 3.01 0 0 1-3-3zm11.9 0c0-3.9 6-3.9 6 0 0 1.7-1.3 3-3 3a3.01 3.01 0 0 1-3-3zm12 0c0-3.9 6-3.9 6 0 0 1.7-1.3 3-3 3a3.01 3.01 0 0 1-3-3zm12.1 0c0-3.9 6-3.9 6 0 0 1.7-1.3 3-3 3s-3-1.3-3-3zm11.9 0c0-3.9 6-3.9 6 0 0 1.7-1.3 3-3 3s-3-1.3-3-3zm12 0c0-3.9 6-3.9 6 0 0 1.7-1.3 3-3 3s-3-1.3-3-3zm12 0c0-3.9 6-3.9 6 0 0 1.7-1.3 3-3 3a3.01 3.01 0 0 1-3-3zm59.9 0c0-3.9 6-3.9 6 0 0 1.7-1.3 3-3 3a3.01 3.01 0 0 1-3-3zm12 0c0-3.9 6-3.9 6 0 0 1.7-1.3 3-3 3a3.01 3.01 0 0 1-3-3zm24 0c0-3.9 6-3.9 6 0 0 1.7-1.3 3-3 3s-3-1.3-3-3zm59.9 0c0-3.9 6-3.9 6 0 0 1.7-1.3 3-3 3s-3.1-1.3-3-3zm12 0c0-3.9 6-3.9 6 0 0 1.7-1.3 3-3 3s-3-1.3-3-3zm11.9 0c0-3.9 6-3.9 6 0 0 1.7-1.3 3-3 3s-3-1.3-3-3zm83.9 0c0-3.9 6-3.9 6 0 0 1.7-1.3 3-3 3a3.01 3.01 0 0 1-3-3zm83.8 0c0-3.9 6-3.9 6 0 0 1.7-1.3 3-3 3a3.01 3.01 0 0 1-3-3zm12.1 0c0-3.9 6-3.9 6 0 0 1.7-1.3 3-3 3s-3-1.3-3-3zm12 0c0-3.9 6-3.9 6 0 0 1.7-1.3 3-3 3s-3-1.3-3-3zm11.9 0c0-3.9 6-3.9 6 0 0 1.7-1.3 3-3 3s-3-1.3-3-3zm12 0c0-3.9 6-3.9 6 0 0 1.7-1.3 3-3 3a3.01 3.01 0 0 1-3-3zm12.1 0c0-3.9 6-3.9 6 0 0 1.7-1.3 3-3 3s-3.1-1.3-3-3zm11.9 0c0-3.9 6-3.9 6 0 0 1.7-1.3 3-3 3s-3-1.3-3-3zm12 0c0-3.9 6-3.9 6 0 0 1.7-1.3 3-3 3s-3-1.3-3-3zm11.9 0c0-3.9 6-3.9 6 0 0 1.7-1.3 3-3 3a3.01 3.01 0 0 1-3-3zm12 0c0-3.9 6-3.9 6 0 0 1.7-1.3 3-3 3a3.01 3.01 0 0 1-3-3zm12 0c0-3.9 6-3.9 6 0 0 1.7-1.3 3-3 3a3.01 3.01 0 0 1-3-3zm12 0c0-3.9 6-3.9 6 0 0 1.7-1.3 3-3 3s-3.1-1.3-3-3zm12 0c0-3.9 6-3.9 6 0 0 1.7-1.3 3-3 3s-3-1.3-3-3zm12 0c0-3.9 6-3.9 6 0 0 1.7-1.3 3-3 3s-3-1.3-3-3zm11.9 0c0-3.9 6-3.9 6 0 0 1.7-1.3 3-3 3a3.01 3.01 0 0 1-3-3zm12 0c0-3.9 6-3.9 6 0 0 1.7-1.3 3-3 3a3.01 3.01 0 0 1-3-3zm12.1 0c0-3.9 6-3.9 6 0 0 1.7-1.3 3-3 3s-3.1-1.3-3-3zm11.9 0c0-3.9 6-3.9 6 0 0 1.7-1.3 3-3 3s-3-1.3-3-3zm12 0c0-3.9 6-3.9 6 0 0 1.7-1.3 3-3 3s-3-1.3-3-3zm12 0c0-3.9 6-3.9 6 0 0 1.7-1.3 3-3 3a3.01 3.01 0 0 1-3-3zm11.9 0c0-3.9 6-3.9 6 0 0 1.7-1.3 3-3 3a3.01 3.01 0 0 1-3-3zm12 0c0-3.9 6-3.9 6 0 0 1.7-1.3 3-3 3a3.01 3.01 0 0 1-3-3zm12.1 0c0-3.9 6-3.9 6 0 0 1.7-1.3 3-3 3s-3-1.3-3-3zm11.9 0c0-3.9 6-3.9 6 0 0 1.7-1.3 3-3 3s-3-1.3-3-3zm12 0c0-3.9 6-3.9 6 0 0 1.7-1.3 3-3 3s-3-1.3-3-3zm11.9 0c0-3.9 6-3.9 6 0 0 1.7-1.3 3-3 3a3.01 3.01 0 0 1-3-3zm12 0c0-3.9 6-3.9 6 0 0 1.7-1.3 3-3 3a3.01 3.01 0 0 1-3-3zm12.1 0c0-3.9 6-3.9 6 0 0 1.7-1.3 3-3 3s-3.1-1.3-3-3zm11.9 0c0-3.9 6-3.9 6 0 0 1.7-1.3 3-3 3s-3-1.3-3-3zm12 0c0-3.9 6-3.9 6 0 0 1.7-1.3 3-3 3s-3-1.3-3-3zm12 0c0-3.9 6-3.9 6 0 0 1.7-1.3 3-3 3a3.01 3.01 0 0 1-3-3zm11.9 0c0-3.9 6-3.9 6 0 0 1.7-1.3 3-3 3a3.01 3.01 0 0 1-3-3zm12 0c0-3.9 6-3.9 6 0 0 1.7-1.3 3-3 3a3.01 3.01 0 0 1-3-3zm12.1 0c0-3.9 6-3.9 6 0 0 1.7-1.3 3-3 3s-3-1.3-3-3zm11.9 0c0-3.9 6-3.9 6 0 0 1.7-1.3 3-3 3s-3-1.3-3-3zm12 0c0-3.9 6-3.9 6 0 0 1.7-1.3 3-3 3s-3-1.3-3-3zm12 0c0-3.9 6-3.9 6 0 0 1.7-1.3 3-3 3a3.01 3.01 0 0 1-3-3zm11.9 0c0-3.9 6-3.9 6 0 0 1.7-1.3 3-3 3a3.01 3.01 0 0 1-3-3zm12.1 0c0-3.9 6-3.9 6 0 0 1.7-1.3 3-3 3s-3-1.3-3-3zm12 0c0-3.9 6-3.9 6 0 0 1.7-1.3 3-3 3s-3-1.3-3-3zm11.9 0c0-3.9 6-3.9 6 0 0 1.7-1.3 3-3 3s-3-1.3-3-3zm12 0c0-3.9 6-3.9 6 0 0 1.7-1.3 3-3 3a3.01 3.01 0 0 1-3-3zm11.9 0c0-3.9 6-3.9 6 0 0 1.7-1.3 3-3 3-1.6 0-2.9-1.3-3-3zm12 0c0-3.9 6-3.9 6 0 0 1.7-1.3 3-3 3a3.01 3.01 0 0 1-3-3zm12.1 0c0-3.9 6-3.9 6 0 0 1.7-1.3 3-3 3s-3-1.3-3-3zm11.9 0c0-3.9 6-3.9 6 0 0 1.7-1.3 3-3 3s-3-1.3-3-3zm12 0c0-3.9 6-3.9 6 0 0 1.7-1.3 3-3 3a3.01 3.01 0 0 1-3-3zm12 0c0-3.9 6-3.9 6 0 0 1.7-1.3 3-3 3a3.01 3.01 0 0 1-3-3zm11.9 0c0-3.9 6-3.9 6 0 0 1.7-1.3 3-3 3a3.01 3.01 0 0 1-3-3zm12.1 0c0-3.9 6-3.9 6 0 0 1.7-1.3 3-3 3s-3-1.3-3-3zm12 0c0-3.9 6-3.9 6 0 0 1.7-1.3 3-3 3s-3-1.3-3-3zm11.9 0c0-3.9 6-3.9 6 0 0 1.7-1.3 3-3 3s-3-1.3-3-3zm12 0c0-3.9 6-3.9 6 0 0 1.7-1.3 3-3 3a3.01 3.01 0 0 1-3-3zm-1282.2 12c0-3.9 6-3.9 6 0 0 4-6 4-6 0zm12.1 0c0-3.9 6-3.9 6 0 0 4-6 4-6 0zm11.9 0c0-3.9 6-3.9 6 0 0 4-6 4-6 0zm12 0c0-3.9 6-3.9 6 0 0 4-6 4-6 0zm12 0c0-3.9 6-3.9 6 0 0 4-6 4-6 0zm11.9 0c0-3.9 6-3.9 6 0 0 4-6 4-6 0zm12 0c0-3.9 6-3.9 6 0 0 4-5.9 4-6 0zm12 0c0-3.9 6-3.9 6 0 0 4-6 4-6 0zm12 0c0-3.9 6-3.9 6 0 0 4-6 4-6 0zm12 0c0-3.9 6-3.9 6 0 0 4-6 4-6 0zm11.9 0c0-3.9 6-3.9 6 0 0 4-6 4-6 0zm12 0c0-3.9 6-3.9 6 0 0 4-6 4-6 0zm12.1 0c0-3.9 6-3.9 6 0 0 4-6 4-6 0zm11.9 0c0-3.9 6-3.9 6 0 0 4-6 4-6 0zm12 0c0-3.9 6-3.9 6 0 0 4-6 4-6 0zm12 0c0-3.9 6-3.9 6 0 0 1.7-1.3 3-3 3-1.6.1-3-1.3-3-3zm11.9 0c0-3.9 6-3.9 6 0 0 1.7-1.3 3-3 3-1.6.1-3-1.3-3-3zm12 0c0-3.9 6-3.9 6 0 0 1.7-1.3 3-3 3-1.6.1-3-1.3-3-3zm12.1 0c0-3.9 6-3.9 6 0 0 1.7-1.3 3-3 3-1.7.1-3-1.3-3-3zm11.9 0c0-3.9 6-3.9 6 0 0 1.7-1.3 3-3 3-1.7.1-3-1.3-3-3zm12 0c0-3.9 6-3.9 6 0 0 1.7-1.3 3-3 3-1.6.1-3-1.3-3-3zm11.9 0c0-3.9 6-3.9 6 0 0 1.7-1.3 3-3 3-1.6.1-3-1.3-3-3zm12 0c0-3.9 6-3.9 6 0 0 1.7-1.3 3-3 3-1.6.1-3-1.3-3-3zm12.1 0c0-3.9 6-3.9 6 0 0 1.7-1.3 3-3 3-1.7.1-3-1.3-3-3zm11.9 0c0-3.9 6-3.9 6 0 0 1.7-1.3 3-3 3-1.7.1-3-1.3-3-3zm12 0c0-3.9 6-3.9 6 0 0 1.7-1.3 3-3 3-1.7.1-3-1.3-3-3zm71.9 0c0-3.9 6-3.9 6 0 0 1.7-1.3 3-3 3-1.6.1-3-1.3-3-3zm12 0c0-3.9 6-3.9 6 0 0 1.7-1.3 3-3 3-1.6.1-3-1.3-3-3zm11.9 0c0-3.9 6-3.9 6 0 0 1.7-1.3 3-3 3-1.6.1-3-1.3-3-3zm72 0c0-3.9 6-3.9 6 0 0 1.7-1.3 3-3 3-1.7.1-3.1-1.3-3-3zm12 0c0-3.9 6-3.9 6 0 0 1.7-1.3 3-3 3-1.7.1-3-1.3-3-3zm11.9 0c0-3.9 6-3.9 6 0 0 1.7-1.3 3-3 3-1.7.1-3-1.3-3-3zm167.7 0c0-3.9 6-3.9 6 0 0 1.7-1.3 3-3 3-1.6.1-3-1.3-3-3zm12.1 0c0-3.9 6-3.9 6 0 0 1.7-1.3 3-3 3-1.7.1-3-1.3-3-3zm12 0c0-3.9 6-3.9 6 0 0 1.7-1.3 3-3 3-1.7.1-3-1.3-3-3zm11.9 0c0-3.9 6-3.9 6 0 0 1.7-1.3 3-3 3-1.7.1-3-1.3-3-3zm12 0c0-3.9 6-3.9 6 0 0 1.7-1.3 3-3 3-1.6.1-3-1.3-3-3zm12.1 0c0-3.9 6-3.9 6 0 0 1.7-1.3 3-3 3-1.7.1-3.1-1.3-3-3zm11.9 0c0-3.9 6-3.9 6 0 0 1.7-1.3 3-3 3-1.7.1-3-1.3-3-3zm12 0c0-3.9 6-3.9 6 0 0 1.7-1.3 3-3 3-1.7.1-3-1.3-3-3zm11.9 0c0-3.9 6-3.9 6 0 0 1.7-1.3 3-3 3a3.01 3.01 0 0 1-3-3zm12 0c0-3.9 6-3.9 6 0 0 1.7-1.3 3-3 3-1.6.1-3-1.3-3-3zm12 0c0-3.9 6-3.9 6 0 0 1.7-1.3 3-3 3-1.6.1-3-1.3-3-3zm12 0c0-3.9 6-3.9 6 0 0 1.7-1.3 3-3 3-1.7.1-3.1-1.3-3-3zm12 0c0-3.9 6-3.9 6 0 0 1.7-1.3 3-3 3-1.7.1-3-1.3-3-3zm12 0c0-3.9 6-3.9 6 0 0 1.7-1.3 3-3 3-1.7.1-3-1.3-3-3zm11.9 0c0-3.9 6-3.9 6 0 0 1.7-1.3 3-3 3-1.6.1-3-1.3-3-3zm12 0c0-3.9 6-3.9 6 0 0 1.7-1.3 3-3 3-1.6.1-3-1.3-3-3zm12.1 0c0-3.9 6-3.9 6 0 0 1.7-1.3 3-3 3-1.7.1-3.1-1.3-3-3zm11.9 0c0-3.9 6-3.9 6 0 0 1.7-1.3 3-3 3-1.7.1-3-1.3-3-3zm12 0c0-3.9 6-3.9 6 0 0 1.7-1.3 3-3 3-1.7.1-3-1.3-3-3zm12 0c0-3.9 6-3.9 6 0 0 1.7-1.3 3-3 3-1.6.1-3-1.3-3-3zm11.9 0c0-3.9 6-3.9 6 0 0 1.7-1.3 3-3 3-1.6.1-3-1.3-3-3zm12 0c0-3.9 6-3.9 6 0 0 1.7-1.3 3-3 3-1.6.1-3-1.3-3-3zm12.1 0c0-3.9 6-3.9 6 0 0 1.7-1.3 3-3 3-1.7.1-3-1.3-3-3zm11.9 0c0-3.9 6-3.9 6 0 0 1.7-1.3 3-3 3-1.7.1-3-1.3-3-3zm12 0c0-3.9 6-3.9 6 0 0 1.7-1.3 3-3 3-1.7.1-3-1.3-3-3zm11.9 0c0-3.9 6-3.9 6 0 0 1.7-1.3 3-3 3a3.01 3.01 0 0 1-3-3zm12 0c0-3.9 6-3.9 6 0 0 1.7-1.3 3-3 3-1.6.1-3-1.3-3-3zm12.1 0c0-3.9 6-3.9 6 0 0 1.7-1.3 3-3 3-1.7.1-3.1-1.3-3-3zm11.9 0c0-3.9 6-3.9 6 0 0 1.7-1.3 3-3 3-1.7.1-3-1.3-3-3zm12 0c0-3.9 6-3.9 6 0 0 1.7-1.3 3-3 3-1.7.1-3-1.3-3-3zm12 0c0-3.9 6-3.9 6 0 0 1.7-1.3 3-3 3-1.6.1-3-1.3-3-3zm11.9 0c0-3.9 6-3.9 6 0 0 1.7-1.3 3-3 3-1.6.1-3-1.3-3-3zm12 0c0-3.9 6-3.9 6 0 0 1.7-1.3 3-3 3-1.6.1-3-1.3-3-3zm12.1 0c0-3.9 6-3.9 6 0 0 1.7-1.3 3-3 3-1.7.1-3-1.3-3-3zm11.9 0c0-3.9 6-3.9 6 0 0 1.7-1.3 3-3 3-1.7.1-3-1.3-3-3zm12 0c0-3.9 6-3.9 6 0 0 1.7-1.3 3-3 3-1.7.1-3-1.3-3-3zm12 0c0-3.9 6-3.9 6 0 0 1.7-1.3 3-3 3-1.6.1-3-1.3-3-3zm11.9 0c0-3.9 6-3.9 6 0 0 1.7-1.3 3-3 3-1.6.1-3-1.3-3-3zm12.1 0c0-3.9 6-3.9 6 0 0 1.7-1.3 3-3 3-1.7.1-3-1.3-3-3zm12 0c0-3.9 6-3.9 6 0 0 1.7-1.3 3-3 3-1.7.1-3-1.3-3-3zm11.9 0c0-3.9 6-3.9 6 0 0 1.7-1.3 3-3 3-1.7.1-3-1.3-3-3zm12 0c0-3.9 6-3.9 6 0 0 1.7-1.3 3-3 3-1.6.1-3-1.3-3-3zm11.9 0c0-3.9 6-3.9 6 0 0 1.7-1.3 3-3 3-1.6 0-2.9-1.3-3-3zm12 0c0-3.9 6-3.9 6 0 0 1.7-1.3 3-3 3-1.6.1-3-1.3-3-3zm12.1 0c0-3.9 6-3.9 6 0 0 1.7-1.3 3-3 3-1.7.1-3-1.3-3-3zm11.9 0c0-3.9 6-3.9 6 0 0 1.7-1.3 3-3 3-1.7.1-3-1.3-3-3zm24 0c0-3.9 6-3.9 6 0 0 1.7-1.3 3-3 3-1.6.1-3-1.3-3-3zm11.9 0c0-3.9 6-3.9 6 0 0 1.7-1.3 3-3 3-1.6.1-3-1.3-3-3zm12.1 0c0-3.9 6-3.9 6 0 0 1.7-1.3 3-3 3-1.7.1-3-1.3-3-3zm12 0c0-3.9 6-3.9 6 0 0 1.7-1.3 3-3 3-1.7.1-3-1.3-3-3zm11.9 0c0-3.9 6-3.9 6 0 0 1.7-1.3 3-3 3-1.7.1-3-1.3-3-3zM25.9 185c0-3.9 6-3.9 6 0s-5.9 3.9-6 0zm12.1 0c0-3.9 6-3.9 6 0-.1 3.9-6 3.9-6 0zm11.9 0c0-3.9 6-3.9 6 0-.1 3.9-6 3.9-6 0zm12 0c0-3.9 6-3.9 6 0 0 1.7-1.3 3-3 3-1.7-.1-3-1.4-3-3zm12 0c0-3.9 6-3.9 6 0 0 1.7-1.3 3-3 3-1.6-.1-3-1.4-3-3zm11.9 0c0-3.9 6-3.9 6 0 0 1.7-1.3 3-3 3a3.23 3.23 0 0 1-3-3zm12 0c0-3.9 6-3.9 6 0 0 1.7-1.3 3-3 3a3.23 3.23 0 0 1-3-3zm47.9 0c0-3.9 6-3.9 6 0 0 1.7-1.3 3-3 3-1.6-.1-3-1.4-3-3zm12 0c0-3.9 6-3.9 6 0 0 1.7-1.3 3-3 3a3.23 3.23 0 0 1-3-3zm12.1 0c0-3.9 6-3.9 6 0 0 1.7-1.3 3-3 3-1.7-.1-3-1.4-3-3zm11.9 0c0-3.9 6-3.9 6 0 0 1.7-1.3 3-3 3-1.7-.1-3-1.4-3-3zm12 0c0-3.9 6-3.9 6 0 0 1.7-1.3 3-3 3-1.6-.1-3-1.4-3-3zm12 0c0-3.9 6-3.9 6 0s-5.9 3.9-6 0zm11.9 0c0-3.9 6-3.9 6 0s-5.9 3.9-6 0zm12 0c0-3.9 6-3.9 6 0s-5.9 3.9-6 0zm12.1 0c0-3.9 6-3.9 6 0s-6 3.9-6 0zm11.9 0c0-3.9 6-3.9 6 0s-5.9 3.9-6 0zm12 0c0-3.9 6-3.9 6 0s-5.9 3.9-6 0zm11.9 0c0-3.9 6-3.9 6 0s-5.9 3.9-6 0zm12 0c0-3.9 6-3.9 6 0s-5.9 3.9-6 0zm12.1 0c0-3.9 6-3.9 6 0-.1 3.9-6 3.9-6 0zm11.9 0c0-3.9 6-3.9 6 0s-5.9 3.9-6 0zm12 0c0-3.9 6-3.9 6 0s-5.9 3.9-6 0zm71.9 0c0-3.9 6-3.9 6 0s-5.9 3.9-6 0zm12 0c0-3.9 6-3.9 6 0s-5.9 3.9-6 0zm11.9 0c0-3.9 6-3.9 6 0s-5.9 3.9-6 0zm12.1 0c0-3.9 6-3.9 6 0-.1 3.9-6 3.9-6 0zm11.9 0c0-3.9 6-3.9 6 0s-5.9 3.9-6 0zm203.7 0c0-3.9 6-3.9 6 0 0 1.7-1.3 3-3 3-1.6-.1-3-1.4-3-3zm35.9 0c0-3.9 6-3.9 6 0 0 1.7-1.3 3-3 3a3.23 3.23 0 0 1-3-3zm12.1 0c0-3.9 6-3.9 6 0 0 1.7-1.3 3-3 3-1.7-.1-3-1.4-3-3zm12 0c0-3.9 6-3.9 6 0 0 1.7-1.3 3-3 3-1.6-.1-3-1.4-3-3zm11.9 0c0-3.9 6-3.9 6 0 0 1.7-1.3 3-3 3-1.6-.1-3-1.4-3-3zm12 0c0-3.9 6-3.9 6 0 0 1.7-1.3 3-3 3a3.23 3.23 0 0 1-3-3zm12.1 0c0-3.9 6-3.9 6 0 0 1.7-1.3 3-3 3-1.7-.1-3-1.4-3-3zm11.9 0c0-3.9 6-3.9 6 0 0 1.7-1.3 3-3 3-1.7-.1-3-1.4-3-3zm12 0c0-3.9 6-3.9 6 0 0 1.7-1.3 3-3 3-1.7-.1-3-1.4-3-3zm11.9 0c0-3.9 6-3.9 6 0 0 1.7-1.3 3-3 3a3.23 3.23 0 0 1-3-3zm12 0c0-3.9 6-3.9 6 0 0 1.7-1.3 3-3 3a3.23 3.23 0 0 1-3-3zm12 0c0-3.9 6-3.9 6 0 0 1.7-1.3 3-3 3a3.23 3.23 0 0 1-3-3zm12 0c0-3.9 6-3.9 6 0 0 1.7-1.3 3-3 3-1.7-.1-3-1.4-3-3zm12 0c0-3.9 6-3.9 6 0 0 1.7-1.3 3-3 3-1.7-.1-3-1.4-3-3zm12 0c0-3.9 6-3.9 6 0 0 1.7-1.3 3-3 3-1.6-.1-3-1.4-3-3zm11.9 0c0-3.9 6-3.9 6 0 0 1.7-1.3 3-3 3-1.6-.1-3-1.4-3-3zm12 0c0-3.9 6-3.9 6 0 0 1.7-1.3 3-3 3a3.23 3.23 0 0 1-3-3zm12.1 0c0-3.9 6-3.9 6 0 0 1.7-1.3 3-3 3-1.7-.1-3-1.4-3-3zm11.9 0c0-3.9 6-3.9 6 0 0 1.7-1.3 3-3 3-1.7-.1-3-1.4-3-3zm12 0c0-3.9 6-3.9 6 0 0 1.7-1.3 3-3 3-1.7-.1-3-1.4-3-3zm12 0c0-3.9 6-3.9 6 0 0 1.7-1.3 3-3 3-1.6-.1-3-1.4-3-3zm11.9 0c0-3.9 6-3.9 6 0 0 1.7-1.3 3-3 3a3.23 3.23 0 0 1-3-3zm12 0c0-3.9 6-3.9 6 0 0 1.7-1.3 3-3 3a3.23 3.23 0 0 1-3-3zm12.1 0c0-3.9 6-3.9 6 0 0 1.7-1.3 3-3 3-1.7-.1-3-1.4-3-3zm11.9 0c0-3.9 6-3.9 6 0 0 1.7-1.3 3-3 3-1.7-.1-3-1.4-3-3zm12 0c0-3.9 6-3.9 6 0 0 1.7-1.3 3-3 3-1.6-.1-3-1.4-3-3zm11.9 0c0-3.9 6-3.9 6 0 0 1.7-1.3 3-3 3a3.23 3.23 0 0 1-3-3zm12 0c0-3.9 6-3.9 6 0 0 1.7-1.3 3-3 3a3.23 3.23 0 0 1-3-3zm12.1 0c0-3.9 6-3.9 6 0 0 1.7-1.3 3-3 3-1.7-.1-3-1.4-3-3zm11.9 0c0-3.9 6-3.9 6 0 0 1.7-1.3 3-3 3-1.7-.1-3-1.4-3-3zm12 0c0-3.9 6-3.9 6 0 0 1.7-1.3 3-3 3-1.7-.1-3-1.4-3-3zm12 0c0-3.9 6-3.9 6 0 0 1.7-1.3 3-3 3-1.6-.1-3-1.4-3-3zm11.9 0c0-3.9 6-3.9 6 0 0 1.7-1.3 3-3 3a3.23 3.23 0 0 1-3-3zm12 0c0-3.9 6-3.9 6 0 0 1.7-1.3 3-3 3a3.23 3.23 0 0 1-3-3zm12.1 0c0-3.9 6-3.9 6 0 0 1.7-1.3 3-3 3-1.7-.1-3-1.4-3-3zm11.9 0c0-3.9 6-3.9 6 0 0 1.7-1.3 3-3 3-1.7-.1-3-1.4-3-3zm12 0c0-3.9 6-3.9 6 0 0 1.7-1.3 3-3 3-1.6-.1-3-1.4-3-3zm12 0c0-3.9 6-3.9 6 0 0 1.7-1.3 3-3 3a3.23 3.23 0 0 1-3-3zm11.9 0c0-3.9 6-3.9 6 0 0 1.7-1.3 3-3 3a3.23 3.23 0 0 1-3-3zm12.1 0c0-3.9 6-3.9 6 0 0 1.7-1.3 3-3 3-1.7-.1-3-1.4-3-3zm12 0c0-3.9 6-3.9 6 0 0 1.7-1.3 3-3 3-1.7-.1-3-1.4-3-3zm11.9 0c0-3.9 6-3.9 6 0 0 1.7-1.3 3-3 3-1.6-.1-3-1.4-3-3zm83.9 0c0-3.9 6-3.9 6 0 0 1.7-1.3 3-3 3a3.23 3.23 0 0 1-3-3zm11.9 0c0-3.9 6-3.9 6 0 0 1.7-1.3 3-3 3a3.23 3.23 0 0 1-3-3zM49.9 196.9c0-3.9 6-3.9 6 0s-6 3.9-6 0zm12 0c0-3.9 6-3.9 6 0 0 1.7-1.3 3-3 3a3.01 3.01 0 0 1-3-3zm12 0c0-3.9 6-3.9 6 0 0 1.7-1.3 3-3 3a3.08 3.08 0 0 1-3-3zm83.8 0c0-3.9 6-3.9 6 0 0 1.7-1.3 3-3 3a3.08 3.08 0 0 1-3-3zm12.1 0c0-3.9 6-3.9 6 0 0 1.7-1.3 3-3 3a3.01 3.01 0 0 1-3-3zm11.9 0c0-3.9 6-3.9 6 0 0 1.7-1.3 3-3 3a3.01 3.01 0 0 1-3-3zm12 0c0-3.9 6-3.9 6 0 0 1.7-1.3 3-3 3a3.01 3.01 0 0 1-3-3zm12 0c0-3.9 6-3.9 6 0s-6 3.9-6 0zm11.9 0c0-3.9 6-3.9 6 0s-6 3.9-6 0zm12 0c0-3.9 6-3.9 6 0s-5.9 3.9-6 0zm12.1 0c0-3.9 6-3.9 6 0s-6 3.9-6 0zm11.9 0c0-3.9 6-3.9 6 0s-6 3.9-6 0zm12 0c0-3.9 6-3.9 6 0s-6 3.9-6 0zm11.9 0c0-3.9 6-3.9 6 0s-6 3.9-6 0zm12 0c0-3.9 6-3.9 6 0s-6 3.9-6 0zm12.1 0c0-3.9 6-3.9 6 0s-6 3.9-6 0zm11.9 0c0-3.9 6-3.9 6 0s-6 3.9-6 0zm12 0c0-3.9 6-3.9 6 0s-6 3.9-6 0zm12 0c0-3.9 6-3.9 6 0s-6 3.9-6 0zm11.9 0c0-3.9 6-3.9 6 0s-6 3.9-6 0zm48 0c0-3.9 6-3.9 6 0s-6 3.9-6 0zm12 0c0-3.9 6-3.9 6 0s-6 3.9-6 0zm11.9 0c0-3.9 6-3.9 6 0s-6 3.9-6 0zm12.1 0c0-3.9 6-3.9 6 0s-6 3.9-6 0zm11.9 0c0-3.9 6-3.9 6 0s-6 3.9-6 0zm191.8 0c0-3.9 6-3.9 6 0 0 1.7-1.3 3-3 3a3.01 3.01 0 0 1-3-3zm11.9 0c0-3.9 6-3.9 6 0 0 1.7-1.3 3-3 3a3.01 3.01 0 0 1-3-3zm60 0c0-3.9 6-3.9 6 0 0 1.7-1.3 3-3 3a3.01 3.01 0 0 1-3-3zm11.9 0c0-3.9 6-3.9 6 0 0 1.7-1.3 3-3 3a3.01 3.01 0 0 1-3-3zm12 0c0-3.9 6-3.9 6 0 0 1.7-1.3 3-3 3a3.08 3.08 0 0 1-3-3zm12.1 0c0-3.9 6-3.9 6 0 0 1.7-1.3 3-3 3s-3.1-1.4-3-3zm11.9 0c0-3.9 6-3.9 6 0 0 1.7-1.3 3-3 3a3.01 3.01 0 0 1-3-3zm12 0c0-3.9 6-3.9 6 0 0 1.7-1.3 3-3 3a3.01 3.01 0 0 1-3-3zm11.9 0c0-3.9 6-3.9 6 0 0 1.7-1.3 3-3 3-1.6-.1-3-1.4-3-3zm12 0c0-3.9 6-3.9 6 0 0 1.7-1.3 3-3 3a3.08 3.08 0 0 1-3-3zm12 0c0-3.9 6-3.9 6 0 0 1.7-1.3 3-3 3a3.08 3.08 0 0 1-3-3zm12 0c0-3.9 6-3.9 6 0 0 1.7-1.3 3-3 3s-3.1-1.4-3-3zm12 0c0-3.9 6-3.9 6 0 0 1.7-1.3 3-3 3a3.01 3.01 0 0 1-3-3zm12 0c0-3.9 6-3.9 6 0 0 1.7-1.3 3-3 3a3.01 3.01 0 0 1-3-3zm11.9 0c0-3.9 6-3.9 6 0 0 1.7-1.3 3-3 3a3.08 3.08 0 0 1-3-3zm12 0c0-3.9 6-3.9 6 0 0 1.7-1.3 3-3 3a3.08 3.08 0 0 1-3-3zm12.1 0c0-3.9 6-3.9 6 0 0 1.7-1.3 3-3 3s-3.1-1.4-3-3zm11.9 0c0-3.9 6-3.9 6 0 0 1.7-1.3 3-3 3a3.01 3.01 0 0 1-3-3zm12 0c0-3.9 6-3.9 6 0 0 1.7-1.3 3-3 3a3.01 3.01 0 0 1-3-3zm12 0c0-3.9 6-3.9 6 0 0 1.7-1.3 3-3 3a3.08 3.08 0 0 1-3-3zm11.9 0c0-3.9 6-3.9 6 0 0 1.7-1.3 3-3 3a3.08 3.08 0 0 1-3-3zm12 0c0-3.9 6-3.9 6 0 0 1.7-1.3 3-3 3a3.08 3.08 0 0 1-3-3zm12.1 0c0-3.9 6-3.9 6 0 0 1.7-1.3 3-3 3a3.01 3.01 0 0 1-3-3zm11.9 0c0-3.9 6-3.9 6 0 0 1.7-1.3 3-3 3a3.01 3.01 0 0 1-3-3zm12 0c0-3.9 6-3.9 6 0 0 1.7-1.3 3-3 3a3.01 3.01 0 0 1-3-3zm11.9 0c0-3.9 6-3.9 6 0 0 1.7-1.3 3-3 3-1.6-.1-3-1.4-3-3zm12 0c0-3.9 6-3.9 6 0 0 1.7-1.3 3-3 3a3.08 3.08 0 0 1-3-3zm12.1 0c0-3.9 6-3.9 6 0 0 1.7-1.3 3-3 3s-3.1-1.4-3-3zm11.9 0c0-3.9 6-3.9 6 0 0 1.7-1.3 3-3 3a3.01 3.01 0 0 1-3-3zm12 0c0-3.9 6-3.9 6 0 0 1.7-1.3 3-3 3a3.01 3.01 0 0 1-3-3zm12 0c0-3.9 6-3.9 6 0 0 1.7-1.3 3-3 3a3.08 3.08 0 0 1-3-3zm11.9 0c0-3.9 6-3.9 6 0 0 1.7-1.3 3-3 3a3.08 3.08 0 0 1-3-3zm12 0c0-3.9 6-3.9 6 0 0 1.7-1.3 3-3 3a3.08 3.08 0 0 1-3-3zm12.1 0c0-3.9 6-3.9 6 0 0 1.7-1.3 3-3 3a3.01 3.01 0 0 1-3-3zm11.9 0c0-3.9 6-3.9 6 0 0 1.7-1.3 3-3 3a3.01 3.01 0 0 1-3-3zm12 0c0-3.9 6-3.9 6 0 0 1.7-1.3 3-3 3a3.01 3.01 0 0 1-3-3zm12 0c0-3.9 6-3.9 6 0 0 1.7-1.3 3-3 3a3.08 3.08 0 0 1-3-3zm11.9 0c0-3.9 6-3.9 6 0 0 1.7-1.3 3-3 3a3.08 3.08 0 0 1-3-3zm12.1 0c0-3.9 6-3.9 6 0 0 1.7-1.3 3-3 3a3.01 3.01 0 0 1-3-3zm12 0c0-3.9 6-3.9 6 0 0 1.7-1.3 3-3 3a3.01 3.01 0 0 1-3-3zm11.9 0c0-3.9 6-3.9 6 0 0 1.7-1.3 3-3 3a3.01 3.01 0 0 1-3-3zm71.9 0c0-3.9 6-3.9 6 0 0 1.7-1.3 3-3 3a3.08 3.08 0 0 1-3-3zm12 0c0-3.9 6-3.9 6 0 0 1.7-1.3 3-3 3a3.08 3.08 0 0 1-3-3zm11.9 0c0-3.9 6-3.9 6 0 0 1.7-1.3 3-3 3a3.08 3.08 0 0 1-3-3zm12.1 0c0-3.9 6-3.9 6 0 0 1.7-1.3 3-3 3a3.01 3.01 0 0 1-3-3zm-1222.3 12c0-3.9 6-3.9 6 0s-6 3.9-6 0zm12 0c0-3.9 6-3.9 6 0 0 1.7-1.3 3-3 3s-3-1.3-3-3zm23.9 0c0-3.9 6-3.9 6 0 0 1.7-1.3 3-3 3a3.01 3.01 0 0 1-3-3zm95.9 0c0-3.9 6-3.9 6 0 0 1.7-1.3 3-3 3s-3-1.3-3-3zm12 0c0-3.9 6-3.9 6 0 0 1.7-1.3 3-3 3s-3-1.3-3-3zm12 0c0-3.9 6-3.9 6 0s-6 3.9-6 0zm11.9 0c0-3.9 6-3.9 6 0s-6 3.9-6 0zm12 0c0-3.9 6-3.9 6 0s-5.9 3.9-6 0zm12.1 0c0-3.9 6-3.9 6 0s-6 3.9-6 0zm11.9 0c0-3.9 6-3.9 6 0s-6 3.9-6 0zm12 0c0-3.9 6-3.9 6 0s-6 3.9-6 0zm11.9 0c0-3.9 6-3.9 6 0s-6 3.9-6 0zm12 0c0-3.9 6-3.9 6 0s-6 3.9-6 0zm12.1 0c0-3.9 6-3.9 6 0s-6 3.9-6 0zm11.9 0c0-3.9 6-3.9 6 0s-6 3.9-6 0zm12 0c0-3.9 6-3.9 6 0s-6 3.9-6 0zm12 0c0-3.9 6-3.9 6 0s-6 3.9-6 0zm11.9 0c0-3.9 6-3.9 6 0s-6 3.9-6 0zm12.1 0c0-3.9 6-3.9 6 0-.1 3.9-6 3.9-6 0zm23.9 0c0-3.9 6-3.9 6 0s-6 3.9-6 0zm12 0c0-3.9 6-3.9 6 0s-6 3.9-6 0zm12 0c0-3.9 6-3.9 6 0s-6 3.9-6 0zm11.9 0c0-3.9 6-3.9 6 0s-6 3.9-6 0zm12.1 0c0-3.9 6-3.9 6 0s-6 3.9-6 0zm11.9 0c0-3.9 6-3.9 6 0s-6 3.9-6 0zm12 0c0-3.9 6-3.9 6 0s-6 3.9-6 0zm179.8 0c0-3.9 6-3.9 6 0 0 1.7-1.3 3-3 3s-3-1.3-3-3zm11.9 0c0-3.9 6-3.9 6 0 0 1.7-1.3 3-3 3s-3-1.3-3-3zm12 0c0-3.9 6-3.9 6 0 0 1.7-1.3 3-3 3a3.01 3.01 0 0 1-3-3zm36 0c0-3.9 6-3.9 6 0 0 1.7-1.3 3-3 3s-3-1.3-3-3zm12 0c0-3.9 6-3.9 6 0 0 1.7-1.3 3-3 3s-3-1.3-3-3zm11.9 0c0-3.9 6-3.9 6 0 0 1.7-1.3 3-3 3s-3-1.3-3-3zm12 0c0-3.9 6-3.9 6 0 0 1.7-1.3 3-3 3a3.01 3.01 0 0 1-3-3zm12.1 0c0-3.9 6-3.9 6 0 0 1.7-1.3 3-3 3s-3.1-1.3-3-3zm11.9 0c0-3.9 6-3.9 6 0 0 1.7-1.3 3-3 3s-3-1.3-3-3zm12 0c0-3.9 6-3.9 6 0 0 1.7-1.3 3-3 3s-3-1.3-3-3zm11.9 0c0-3.9 6-3.9 6 0 0 1.7-1.3 3-3 3a3.08 3.08 0 0 1-3-3zm12 0c0-3.9 6-3.9 6 0 0 1.7-1.3 3-3 3a3.01 3.01 0 0 1-3-3zm12 0c0-3.9 6-3.9 6 0 0 1.7-1.3 3-3 3a3.01 3.01 0 0 1-3-3zm12 0c0-3.9 6-3.9 6 0 0 1.7-1.3 3-3 3s-3.1-1.3-3-3zm12 0c0-3.9 6-3.9 6 0 0 1.7-1.3 3-3 3s-3-1.3-3-3zm12 0c0-3.9 6-3.9 6 0 0 1.7-1.3 3-3 3s-3-1.3-3-3zm11.9 0c0-3.9 6-3.9 6 0 0 1.7-1.3 3-3 3a3.01 3.01 0 0 1-3-3zm12 0c0-3.9 6-3.9 6 0 0 1.7-1.3 3-3 3a3.01 3.01 0 0 1-3-3zm12.1 0c0-3.9 6-3.9 6 0 0 1.7-1.3 3-3 3s-3.1-1.3-3-3zm11.9 0c0-3.9 6-3.9 6 0 0 1.7-1.3 3-3 3s-3-1.3-3-3zm12 0c0-3.9 6-3.9 6 0 0 1.7-1.3 3-3 3s-3-1.3-3-3zm12 0c0-3.9 6-3.9 6 0 0 1.7-1.3 3-3 3a3.01 3.01 0 0 1-3-3zm11.9 0c0-3.9 6-3.9 6 0 0 1.7-1.3 3-3 3a3.01 3.01 0 0 1-3-3zm12 0c0-3.9 6-3.9 6 0 0 1.7-1.3 3-3 3a3.01 3.01 0 0 1-3-3zm12.1 0c0-3.9 6-3.9 6 0 0 1.7-1.3 3-3 3s-3-1.3-3-3zm11.9 0c0-3.9 6-3.9 6 0 0 1.7-1.3 3-3 3s-3-1.3-3-3zm12 0c0-3.9 6-3.9 6 0 0 1.7-1.3 3-3 3s-3-1.3-3-3zm11.9 0c0-3.9 6-3.9 6 0 0 1.7-1.3 3-3 3a3.08 3.08 0 0 1-3-3zm12 0c0-3.9 6-3.9 6 0 0 1.7-1.3 3-3 3a3.01 3.01 0 0 1-3-3zm12.1 0c0-3.9 6-3.9 6 0 0 1.7-1.3 3-3 3s-3.1-1.3-3-3zm11.9 0c0-3.9 6-3.9 6 0 0 1.7-1.3 3-3 3s-3-1.3-3-3zm12 0c0-3.9 6-3.9 6 0 0 1.7-1.3 3-3 3s-3-1.3-3-3zm12 0c0-3.9 6-3.9 6 0 0 1.7-1.3 3-3 3a3.01 3.01 0 0 1-3-3zm11.9 0c0-3.9 6-3.9 6 0 0 1.7-1.3 3-3 3a3.01 3.01 0 0 1-3-3zm12 0c0-3.9 6-3.9 6 0 0 1.7-1.3 3-3 3a3.01 3.01 0 0 1-3-3zm12.1 0c0-3.9 6-3.9 6 0 0 1.7-1.3 3-3 3s-3-1.3-3-3zm11.9 0c0-3.9 6-3.9 6 0 0 1.7-1.3 3-3 3s-3-1.3-3-3zm12 0c0-3.9 6-3.9 6 0 0 1.7-1.3 3-3 3s-3-1.3-3-3zm12 0c0-3.9 6-3.9 6 0 0 1.7-1.3 3-3 3a3.01 3.01 0 0 1-3-3zm11.9 0c0-3.9 6-3.9 6 0 0 1.7-1.3 3-3 3a3.01 3.01 0 0 1-3-3zm12.1 0c0-3.9 6-3.9 6 0 0 1.7-1.3 3-3 3s-3-1.3-3-3zm12 0c0-3.9 6-3.9 6 0 0 1.7-1.3 3-3 3s-3-1.3-3-3zm11.9 0c0-3.9 6-3.9 6 0 0 1.7-1.3 3-3 3s-3-1.3-3-3zm12 0c0-3.9 6-3.9 6 0 0 1.7-1.3 3-3 3a3.01 3.01 0 0 1-3-3zm11.9 0c0-3.9 6-3.9 6 0 0 1.7-1.3 3-3 3-1.6 0-2.9-1.4-3-3zm60 0c0-3.9 6-3.9 6 0 0 1.7-1.3 3-3 3a3.01 3.01 0 0 1-3-3zm11.9 0c0-3.9 6-3.9 6 0 0 1.7-1.3 3-3 3a3.01 3.01 0 0 1-3-3zm-1234.2 12c0-3.9 6-3.9 6 0 0 4-5.8 3.9-6 0zm12.1 0c0-3.9 6-3.9 6 0-.1 4-5.9 3.9-6 0zm131.8 0c0-3.9 6-3.9 6 0 0 1.7-1.3 3-3 3s-3-1.3-3-3zm11.9 0c0-3.9 6-3.9 6 0 0 1.7-1.3 3-3 3a3.01 3.01 0 0 1-3-3zm12 0c0-3.9 6-3.9 6 0 0 1.7-1.3 3-3 3-1.6 0-2.9-1.4-3-3zm12 0c0-3.9 6-3.9 6 0 0 4-5.8 3.9-6 0zm11.9 0c0-3.9 6-3.9 6 0 0 4-5.8 3.9-6 0zm12 0c0-3.9 6-3.9 6 0 0 4-5.8 3.9-6 0zm12.1 0c0-3.9 6-3.9 6 0-.1 4-5.9 3.9-6 0zm11.9 0c0-3.9 6-3.9 6 0-.1 4-5.9 3.9-6 0zm12 0c0-3.9 6-3.9 6 0 0 4-5.8 3.9-6 0zm11.9 0c0-3.9 6-3.9 6 0 0 4-5.8 3.9-6 0zm12 0c0-3.9 6-3.9 6 0 0 4-5.8 3.9-6 0zm12.1 0c0-3.9 6-3.9 6 0-.1 4-5.9 3.9-6 0zm11.9 0c0-3.9 6-3.9 6 0-.1 4-5.9 3.9-6 0zm12 0c0-3.9 6-3.9 6 0 0 4-5.9 3.9-6 0zm12 0c0-3.9 6-3.9 6 0 0 4-5.8 3.9-6 0zm11.9 0c0-3.9 6-3.9 6 0 0 4-5.8 3.9-6 0zm12.1 0c0-3.9 6-3.9 6 0-.1 4-5.9 3.9-6 0zm23.9 0c0-3.9 6-3.9 6 0 0 4-5.9 3.9-6 0zm12 0c0-3.9 6-3.9 6 0 0 4-5.9 3.9-6 0zm12 0c0-3.9 6-3.9 6 0 0 4-5.8 3.9-6 0zm11.9 0c0-3.9 6-3.9 6 0 0 4-5.9 3.9-6 0zm12.1 0c0-3.9 6-3.9 6 0-.1 4-5.9 3.9-6 0zm11.9 0c0-3.9 6-3.9 6 0-.1 4-5.9 3.9-6 0zm12 0c0-3.9 6-3.9 6 0 0 4-5.9 3.9-6 0zm12 0c0-3.9 6-3.9 6 0 0 4-5.8 3.9-6 0zm155.8 0c0-3.9 6-3.9 6 0 0 1.7-1.3 3-3 3a3.01 3.01 0 0 1-3-3zm12 0c0-3.9 6-3.9 6 0 0 1.7-1.3 3-3 3-1.6 0-2.9-1.4-3-3zm11.9 0c0-3.9 6-3.9 6 0 0 1.7-1.3 3-3 3-1.6 0-2.9-1.4-3-3zm12 0c0-3.9 6-3.9 6 0 0 1.7-1.3 3-3 3-1.6 0-2.9-1.4-3-3zm23.9 0c0-3.9 6-3.9 6 0 0 1.7-1.3 3-3 3-1.6 0-2.9-1.4-3-3zm12.1 0c0-3.9 6-3.9 6 0 0 1.7-1.3 3-3 3a3.01 3.01 0 0 1-3-3zm12 0c0-3.9 6-3.9 6 0 0 1.7-1.3 3-3 3-1.6 0-2.9-1.4-3-3zm11.9 0c0-3.9 6-3.9 6 0 0 1.7-1.3 3-3 3-1.6 0-2.9-1.4-3-3zm12 0c0-3.9 6-3.9 6 0 0 1.7-1.3 3-3 3-1.6 0-2.9-1.4-3-3zm12.1 0c0-3.9 6-3.9 6 0 0 1.7-1.3 3-3 3a3.01 3.01 0 0 1-3-3zm11.9 0c0-3.9 6-3.9 6 0 0 1.7-1.3 3-3 3a3.01 3.01 0 0 1-3-3zm12 0c0-3.9 6-3.9 6 0 0 1.7-1.3 3-3 3-1.6 0-2.9-1.4-3-3zm11.9 0c0-3.9 6-3.9 6 0 0 1.7-1.3 3-3 3a3.23 3.23 0 0 1-3-3zm12 0c0-3.9 6-3.9 6 0 0 1.7-1.3 3-3 3-1.6 0-2.9-1.4-3-3zm12 0c0-3.9 6-3.9 6 0 0 1.7-1.3 3-3 3-1.6 0-2.9-1.4-3-3zm12 0c0-3.9 6-3.9 6 0 0 1.7-1.3 3-3 3a3.01 3.01 0 0 1-3-3zm12 0c0-3.9 6-3.9 6 0 0 1.7-1.3 3-3 3a3.08 3.08 0 0 1-3-3zm12 0c0-3.9 6-3.9 6 0 0 1.7-1.3 3-3 3-1.6 0-2.9-1.4-3-3zm11.9 0c0-3.9 6-3.9 6 0 0 1.7-1.3 3-3 3-1.6 0-2.9-1.4-3-3zm12 0c0-3.9 6-3.9 6 0 0 1.7-1.3 3-3 3-1.6 0-2.9-1.4-3-3zm12.1 0c0-3.9 6-3.9 6 0 0 1.7-1.3 3-3 3a3.01 3.01 0 0 1-3-3zm11.9 0c0-3.9 6-3.9 6 0 0 1.7-1.3 3-3 3a3.01 3.01 0 0 1-3-3zm12 0c0-3.9 6-3.9 6 0 0 1.7-1.3 3-3 3-1.6 0-2.9-1.4-3-3zm12 0c0-3.9 6-3.9 6 0 0 1.7-1.3 3-3 3-1.6 0-2.9-1.4-3-3zm11.9 0c0-3.9 6-3.9 6 0 0 1.7-1.3 3-3 3-1.6 0-2.9-1.4-3-3zm12 0c0-3.9 6-3.9 6 0 0 1.7-1.3 3-3 3-1.6 0-2.9-1.4-3-3zm12.1 0c0-3.9 6-3.9 6 0 0 1.7-1.3 3-3 3a3.01 3.01 0 0 1-3-3zm11.9 0c0-3.9 6-3.9 6 0 0 1.7-1.3 3-3 3a3.08 3.08 0 0 1-3-3zm12 0c0-3.9 6-3.9 6 0 0 1.7-1.3 3-3 3-1.6 0-2.9-1.4-3-3zm11.9 0c0-3.9 6-3.9 6 0 0 1.7-1.3 3-3 3a3.23 3.23 0 0 1-3-3zm12 0c0-3.9 6-3.9 6 0 0 1.7-1.3 3-3 3-1.6 0-2.9-1.4-3-3zm12.1 0c0-3.9 6-3.9 6 0 0 1.7-1.3 3-3 3a3.01 3.01 0 0 1-3-3zm11.9 0c0-3.9 6-3.9 6 0 0 1.7-1.3 3-3 3a3.01 3.01 0 0 1-3-3zm12 0c0-3.9 6-3.9 6 0 0 1.7-1.3 3-3 3-1.6 0-2.9-1.4-3-3zm12 0c0-3.9 6-3.9 6 0 0 1.7-1.3 3-3 3-1.6 0-2.9-1.4-3-3zm11.9 0c0-3.9 6-3.9 6 0 0 1.7-1.3 3-3 3-1.6 0-2.9-1.4-3-3zm12 0c0-3.9 6-3.9 6 0 0 1.7-1.3 3-3 3-1.6 0-2.9-1.4-3-3zm12.1 0c0-3.9 6-3.9 6 0 0 1.7-1.3 3-3 3a3.01 3.01 0 0 1-3-3zm11.9 0c0-3.9 6-3.9 6 0 0 1.7-1.3 3-3 3-1.6 0-2.9-1.4-3-3zm12 0c0-3.9 6-3.9 6 0 0 1.7-1.3 3-3 3-1.6 0-2.9-1.4-3-3zm12 0c0-3.9 6-3.9 6 0 0 1.7-1.3 3-3 3-1.6 0-2.9-1.4-3-3zm11.9 0c0-3.9 6-3.9 6 0 0 1.7-1.3 3-3 3-1.6 0-2.9-1.4-3-3zm12.1 0c0-3.9 6-3.9 6 0 0 1.7-1.3 3-3 3a3.01 3.01 0 0 1-3-3zm12 0c0-3.9 6-3.9 6 0 0 1.7-1.3 3-3 3-1.6 0-2.9-1.4-3-3zm11.9 0c0-3.9 6-3.9 6 0 0 1.7-1.3 3-3 3-1.6 0-2.9-1.4-3-3zm12 0c0-3.9 6-3.9 6 0 0 1.7-1.3 3-3 3-1.6 0-2.9-1.4-3-3zm11.9 0c0-3.9 6-3.9 6 0 0 1.7-1.3 3-3 3a3.23 3.23 0 0 1-3-3zm12 0c0-3.9 6-3.9 6 0 0 1.7-1.3 3-3 3-1.6 0-2.9-1.4-3-3zm48 0c0-3.9 6-3.9 6 0 0 1.7-1.3 3-3 3-1.6 0-2.9-1.4-3-3zM193.7 232.8c0-3.9 6-3.9 6 0 0 1.7-1.3 3-3 3s-3-1.3-3-3zm12 0c0-3.9 6-3.9 6 0 0 4-6 4-6 0zm14.9-3c3.9 0 3.9 6 0 6s-3.9-6 0-6zm9 3c0-3.9 6-3.9 6 0 0 4-5.9 4-6 0zm12.1 0c0-3.9 6-3.9 6 0 0 4-6 4-6 0zm11.9 0c0-3.9 6-3.9 6 0 0 4-6 4-6 0zm12 0c0-3.9 6-3.9 6 0 0 4-6 4-6 0zm14.9-3c3.9 0 3.9 6 0 6s-3.9-6 0-6zm12 0c3.9 0 3.9 6 0 6s-3.9-6 0-6zm9.1 3c0-3.9 6-3.9 6 0 0 4-6 4-6 0zm11.9 0c0-3.9 6-3.9 6 0 0 4-6 4-6 0zm12 0c0-3.9 6-3.9 6 0 0 4-6 4-6 0zm12 0c0-3.9 6-3.9 6 0 0 4-6 4-6 0zm11.9 0c0-3.9 6-3.9 6 0 0 4-6 4-6 0zm15.1-3c3.9 0 3.9 6 0 6-4 0-4-6 0-6zm11.9 0c3.9 0 3.9 6 0 6-4 0-4-6 0-6zm9 3c0-3.9 6-3.9 6 0 0 4-6 4-6 0zm12 0c0-3.9 6-3.9 6 0 0 4-6 4-6 0zm12 0c0-3.9 6-3.9 6 0 0 4-6 4-6 0zm14.9-3c3.9 0 3.9 6 0 6s-3.9-6 0-6zm12.1 0c3.9 0 3.9 6 0 6-4 0-4-6 0-6zm11.9 0c3.9 0 3.9 6 0 6s-3.9-6 0-6zm9 3c0-3.9 6-3.9 6 0 0 4-6 4-6 0zm191.7 0c0-3.9 6-3.9 6 0 0 1.7-1.3 3-3 3s-3-1.3-3-3zm24 0c0-3.9 6-3.9 6 0 0 1.7-1.3 3-3 3a3.01 3.01 0 0 1-3-3zm11.9 0c0-3.9 6-3.9 6 0 0 1.7-1.3 3-3 3a3.01 3.01 0 0 1-3-3zm12.1 0c0-3.9 6-3.9 6 0 0 1.7-1.3 3-3 3s-3-1.3-3-3zm12 0c0-3.9 6-3.9 6 0 0 1.7-1.3 3-3 3s-3-1.3-3-3zm14.9-3c3.9 0 3.9 6 0 6s-3.9-6 0-6zm12 0c3.9 0 3.9 6 0 6s-3.9-6 0-6zm9.1 3c0-3.9 6-3.9 6 0 0 1.7-1.3 3-3 3s-3.1-1.3-3-3zm11.9 0c0-3.9 6-3.9 6 0 0 1.7-1.3 3-3 3s-3-1.3-3-3zm15-3c3.9 0 3.9 6 0 6s-3.9-6 0-6zm8.9 3c0-3.9 6-3.9 6 0 0 1.7-1.3 3-3 3a3.01 3.01 0 0 1-3-3zm15-3c3.9 0 3.9 6 0 6s-3.9-6 0-6zm9 3c0-3.9 6-3.9 6 0 0 1.7-1.3 3-3 3a3.01 3.01 0 0 1-3-3zm15-3c3.9 0 3.9 6 0 6-4 0-4-6 0-6zm9 3c0-3.9 6-3.9 6 0 0 1.7-1.3 3-3 3s-3-1.3-3-3zm15-3c3.9 0 3.9 6 0 6s-3.9-6 0-6zm8.9 3c0-3.9 6-3.9 6 0 0 1.7-1.3 3-3 3a3.01 3.01 0 0 1-3-3zm15-3c3.9 0 3.9 6 0 6s-3.9-6 0-6zm9.1 3c0-3.9 6-3.9 6 0 0 1.7-1.3 3-3 3s-3.1-1.3-3-3zm14.9-3c3.9 0 3.9 6 0 6-4 0-4-6 0-6zm9 3c0-3.9 6-3.9 6 0 0 1.7-1.3 3-3 3s-3-1.3-3-3zm14.9-3c3.9 0 3.9 6 0 6s-3.9-6 0-6zm9 3c0-3.9 6-3.9 6 0 0 1.7-1.3 3-3 3a3.01 3.01 0 0 1-3-3zm12 0c0-3.9 6-3.9 6 0 0 1.7-1.3 3-3 3a3.01 3.01 0 0 1-3-3zm12.1 0c0-3.9 6-3.9 6 0 0 1.7-1.3 3-3 3s-3-1.3-3-3zm11.9 0c0-3.9 6-3.9 6 0 0 1.7-1.3 3-3 3s-3-1.3-3-3zm12 0c0-3.9 6-3.9 6 0 0 1.7-1.3 3-3 3s-3-1.3-3-3zm11.9 0c0-3.9 6-3.9 6 0 0 1.7-1.3 3-3 3a3.01 3.01 0 0 1-3-3zm12 0c0-3.9 6-3.9 6 0 0 1.7-1.3 3-3 3a3.01 3.01 0 0 1-3-3zm12.1 0c0-3.9 6-3.9 6 0 0 1.7-1.3 3-3 3s-3.1-1.3-3-3zm11.9 0c0-3.9 6-3.9 6 0 0 1.7-1.3 3-3 3s-3-1.3-3-3zm12 0c0-3.9 6-3.9 6 0 0 1.7-1.3 3-3 3s-3-1.3-3-3zm15-3c3.9 0 3.9 6 0 6s-3.9-6 0-6zm8.9 3c0-3.9 6-3.9 6 0 0 1.7-1.3 3-3 3a3.01 3.01 0 0 1-3-3zm12 0c0-3.9 6-3.9 6 0 0 1.7-1.3 3-3 3a3.01 3.01 0 0 1-3-3zm12.1 0c0-3.9 6-3.9 6 0 0 1.7-1.3 3-3 3s-3-1.3-3-3zm11.9 0c0-3.9 6-3.9 6 0 0 1.7-1.3 3-3 3s-3-1.3-3-3zm12 0c0-3.9 6-3.9 6 0 0 1.7-1.3 3-3 3s-3-1.3-3-3zm12 0c0-3.9 6-3.9 6 0 0 1.7-1.3 3-3 3a3.01 3.01 0 0 1-3-3zm14.9-3c3.9 0 3.9 6 0 6s-3.9-6 0-6zm12.1 0c3.9 0 3.9 6 0 6-4 0-4-6 0-6zm9 3c0-3.9 6-3.9 6 0 0 1.7-1.3 3-3 3s-3-1.3-3-3zm11.9 0c0-3.9 6-3.9 6 0 0 1.7-1.3 3-3 3s-3-1.3-3-3zm12 0c0-3.9 6-3.9 6 0 0 1.7-1.3 3-3 3a3.01 3.01 0 0 1-3-3zm14.9-3c3.9 0 3.9 6 0 6s-3.9-6 0-6zm12.1 0c3.9 0 3.9 6 0 6-4 0-4-6 0-6zm-1021.6 15c0-3.9 6-3.9 6 0 0 1.7-1.3 3-3 3-1.7.1-3-1.3-3-3zm12 0c0-3.9 6-3.9 6 0 0 1.7-1.3 3-3 3-1.7.1-3-1.3-3-3zm12 0c0-3.9 6-3.9 6 0 0 4-6 4-6 0zm14.9-3c3.9 0 3.9 6 0 6s-3.9-5.9 0-6zm9 3c0-3.9 6-3.9 6 0 0 4-5.9 4-6 0zm12.1 0c0-3.9 6-3.9 6 0 0 4-6 4-6 0zm11.9 0c0-3.9 6-3.9 6 0 0 4-6 4-6 0zm12 0c0-3.9 6-3.9 6 0 0 4-6 4-6 0zm14.9-3c3.9 0 3.9 6 0 6s-3.9-5.9 0-6zm12 0c3.9 0 3.9 6 0 6s-3.9-5.9 0-6zm9.1 3c0-3.9 6-3.9 6 0 0 4-6 4-6 0zm11.9 0c0-3.9 6-3.9 6 0 0 4-6 4-6 0zm12 0c0-3.9 6-3.9 6 0 0 4-6 4-6 0zm12 0c0-3.9 6-3.9 6 0 0 4-6 4-6 0zm11.9 0c0-3.9 6-3.9 6 0 0 4-6 4-6 0zm15.1-3c3.9 0 3.9 6 0 6-4 0-4-5.9 0-6zm11.9 0c3.9 0 3.9 6 0 6-4 0-4-5.9 0-6zm9 3c0-3.9 6-3.9 6 0 0 4-6 4-6 0zm12 0c0-3.9 6-3.9 6 0 0 4-6 4-6 0zm12 0c0-3.9 6-3.9 6 0 0 4-6 4-6 0zm14.9-3c3.9 0 3.9 6 0 6s-3.9-5.9 0-6zm33 3c0-3.9 6-3.9 6 0 0 4-6 4-6 0zm12 0c0-3.9 6-3.9 6 0 0 4-6 4-6 0zm194.7-3c3.9 0 3.9 6 0 6s-3.9-5.9 0-6zm9 3c0-3.9 6-3.9 6 0 0 1.7-1.3 3-3 3-1.6.1-3-1.3-3-3zm11.9 0c0-3.9 6-3.9 6 0 0 1.7-1.3 3-3 3-1.6.1-3-1.3-3-3zm12.1 0c0-3.9 6-3.9 6 0 0 1.7-1.3 3-3 3-1.7.1-3-1.3-3-3zm12 0c0-3.9 6-3.9 6 0 0 1.7-1.3 3-3 3-1.7.1-3-1.3-3-3zm14.9-3c3.9 0 3.9 6 0 6s-3.9-5.9 0-6zm12 0c3.9 0 3.9 6 0 6s-3.9-5.9 0-6zm9.1 3c0-3.9 6-3.9 6 0 0 1.7-1.3 3-3 3-1.7.1-3.1-1.3-3-3zm11.9 0c0-3.9 6-3.9 6 0 0 1.7-1.3 3-3 3-1.7.1-3-1.3-3-3zm15-3c3.9 0 3.9 6 0 6s-3.9-5.9 0-6zm8.9 3c0-3.9 6-3.9 6 0 0 1.7-1.3 3-3 3a3.01 3.01 0 0 1-3-3zm15-3c3.9 0 3.9 6 0 6s-3.9-5.9 0-6zm9 3c0-3.9 6-3.9 6 0 0 1.7-1.3 3-3 3-1.6.1-3-1.3-3-3zm15-3c3.9 0 3.9 6 0 6-4 0-4-5.9 0-6zm9 3c0-3.9 6-3.9 6 0 0 1.7-1.3 3-3 3-1.7.1-3-1.3-3-3zm15-3c3.9 0 3.9 6 0 6s-3.9-5.9 0-6zm8.9 3c0-3.9 6-3.9 6 0 0 1.7-1.3 3-3 3-1.6.1-3-1.3-3-3zm15-3c3.9 0 3.9 6 0 6s-3.9-5.9 0-6zm9.1 3c0-3.9 6-3.9 6 0 0 1.7-1.3 3-3 3-1.7.1-3.1-1.3-3-3zm14.9-3c3.9 0 3.9 6 0 6-4 0-4-5.9 0-6zm9 3c0-3.9 6-3.9 6 0 0 1.7-1.3 3-3 3-1.7.1-3-1.3-3-3zm14.9-3c3.9 0 3.9 6 0 6s-3.9-5.9 0-6zm9 3c0-3.9 6-3.9 6 0 0 1.7-1.3 3-3 3-1.6.1-3-1.3-3-3zm12 0c0-3.9 6-3.9 6 0 0 1.7-1.3 3-3 3-1.6.1-3-1.3-3-3zm12.1 0c0-3.9 6-3.9 6 0 0 1.7-1.3 3-3 3-1.7.1-3-1.3-3-3zm11.9 0c0-3.9 6-3.9 6 0 0 1.7-1.3 3-3 3-1.7.1-3-1.3-3-3zm12 0c0-3.9 6-3.9 6 0 0 1.7-1.3 3-3 3-1.7.1-3-1.3-3-3zm11.9 0c0-3.9 6-3.9 6 0 0 1.7-1.3 3-3 3a3.01 3.01 0 0 1-3-3zm12 0c0-3.9 6-3.9 6 0 0 1.7-1.3 3-3 3-1.6.1-3-1.3-3-3zm12.1 0c0-3.9 6-3.9 6 0 0 1.7-1.3 3-3 3-1.7.1-3.1-1.3-3-3zm11.9 0c0-3.9 6-3.9 6 0 0 1.7-1.3 3-3 3-1.7.1-3-1.3-3-3zm12 0c0-3.9 6-3.9 6 0 0 1.7-1.3 3-3 3-1.7.1-3-1.3-3-3zm15-3c3.9 0 3.9 6 0 6s-3.9-5.9 0-6zm8.9 3c0-3.9 6-3.9 6 0 0 1.7-1.3 3-3 3-1.6.1-3-1.3-3-3zm12 0c0-3.9 6-3.9 6 0 0 1.7-1.3 3-3 3-1.6.1-3-1.3-3-3zm12.1 0c0-3.9 6-3.9 6 0 0 1.7-1.3 3-3 3-1.7.1-3-1.3-3-3zm11.9 0c0-3.9 6-3.9 6 0 0 1.7-1.3 3-3 3-1.7.1-3-1.3-3-3zm12 0c0-3.9 6-3.9 6 0 0 1.7-1.3 3-3 3-1.7.1-3-1.3-3-3zm12 0c0-3.9 6-3.9 6 0 0 1.7-1.3 3-3 3-1.6.1-3-1.3-3-3zm14.9-3c3.9 0 3.9 6 0 6s-3.9-5.9 0-6zm12.1 0c3.9 0 3.9 6 0 6-4 0-4-5.9 0-6zm9 3c0-3.9 6-3.9 6 0 0 1.7-1.3 3-3 3-1.7.1-3-1.3-3-3zm11.9 0c0-3.9 6-3.9 6 0 0 1.7-1.3 3-3 3-1.7.1-3-1.3-3-3zm12 0c0-3.9 6-3.9 6 0 0 1.7-1.3 3-3 3-1.6.1-3-1.3-3-3zm14.9-3c3.9 0 3.9 6 0 6s-3.9-5.9 0-6zm12.1 0c3.9 0 3.9 6 0 6-4 0-4-5.9 0-6zm-1009.6 15c0-3.9 6-3.9 6 0 0 1.7-1.3 3-3 3a3.01 3.01 0 0 1-3-3zm12 0c0-3.9 6-3.9 6 0s-6 3.9-6 0zm14.9-3c3.9 0 3.9 6 0 6-3.9-.1-3.9-6 0-6zm9 3c0-3.9 6-3.9 6 0s-5.9 3.9-6 0zm12.1 0c0-3.9 6-3.9 6 0s-6 3.9-6 0zm11.9 0c0-3.9 6-3.9 6 0s-6 3.9-6 0zm12 0c0-3.9 6-3.9 6 0s-6 3.9-6 0zm14.9-3c3.9 0 3.9 6 0 6-3.9-.1-3.9-6 0-6zm12 0c3.9 0 3.9 6 0 6-3.9-.1-3.9-6 0-6zm9.1 3c0-3.9 6-3.9 6 0s-6 3.9-6 0zm11.9 0c0-3.9 6-3.9 6 0s-6 3.9-6 0zm12 0c0-3.9 6-3.9 6 0s-6 3.9-6 0zm12 0c0-3.9 6-3.9 6 0s-6 3.9-6 0zm11.9 0c0-3.9 6-3.9 6 0s-6 3.9-6 0zm15.1-3c3.9 0 3.9 6 0 6-4-.1-4-6 0-6zm11.9 0c3.9 0 3.9 6 0 6-4-.1-4-6 0-6zm9 3c0-3.9 6-3.9 6 0s-6 3.9-6 0zm12 0c0-3.9 6-3.9 6 0s-6 3.9-6 0zm12 0c0-3.9 6-3.9 6 0s-6 3.9-6 0zm14.9-3c3.9 0 3.9 6 0 6-3.9-.1-3.9-6 0-6zm45 3c0-3.9 6-3.9 6 0s-6 3.9-6 0zm194.7-3c3.9 0 3.9 6 0 6-3.9-.1-3.9-6 0-6zm9 3c0-3.9 6-3.9 6 0 0 1.7-1.3 3-3 3a3.08 3.08 0 0 1-3-3zm11.9 0c0-3.9 6-3.9 6 0 0 1.7-1.3 3-3 3a3.08 3.08 0 0 1-3-3zm12.1 0c0-3.9 6-3.9 6 0 0 1.7-1.3 3-3 3a3.01 3.01 0 0 1-3-3zm12 0c0-3.9 6-3.9 6 0 0 1.7-1.3 3-3 3a3.01 3.01 0 0 1-3-3zm14.9-3c3.9 0 3.9 6 0 6-3.9-.1-3.9-6 0-6zm12 0c3.9 0 3.9 6 0 6-3.9-.1-3.9-6 0-6zm9.1 3c0-3.9 6-3.9 6 0 0 1.7-1.3 3-3 3s-3.1-1.4-3-3zm11.9 0c0-3.9 6-3.9 6 0 0 1.7-1.3 3-3 3a3.01 3.01 0 0 1-3-3zm15-3c3.9 0 3.9 6 0 6-3.9-.1-3.9-6 0-6zm8.9 3c0-3.9 6-3.9 6 0 0 1.7-1.3 3-3 3-1.6-.1-3-1.4-3-3zm15-3c3.9 0 3.9 6 0 6-3.9-.1-3.9-6 0-6zm9 3c0-3.9 6-3.9 6 0 0 1.7-1.3 3-3 3a3.08 3.08 0 0 1-3-3zm15-3c3.9 0 3.9 6 0 6-4-.1-4-6 0-6zm9 3c0-3.9 6-3.9 6 0 0 1.7-1.3 3-3 3a3.01 3.01 0 0 1-3-3zm15-3c3.9 0 3.9 6 0 6-3.9-.1-3.9-6 0-6zm8.9 3c0-3.9 6-3.9 6 0 0 1.7-1.3 3-3 3a3.08 3.08 0 0 1-3-3zm15-3c3.9 0 3.9 6 0 6-3.9-.1-3.9-6 0-6zm9.1 3c0-3.9 6-3.9 6 0 0 1.7-1.3 3-3 3s-3.1-1.4-3-3zm14.9-3c3.9 0 3.9 6 0 6-4-.1-4-6 0-6zm9 3c0-3.9 6-3.9 6 0 0 1.7-1.3 3-3 3a3.01 3.01 0 0 1-3-3zm14.9-3c3.9 0 3.9 6 0 6-3.9-.1-3.9-6 0-6zm9 3c0-3.9 6-3.9 6 0 0 1.7-1.3 3-3 3a3.08 3.08 0 0 1-3-3zm12 0c0-3.9 6-3.9 6 0 0 1.7-1.3 3-3 3a3.08 3.08 0 0 1-3-3zm12.1 0c0-3.9 6-3.9 6 0 0 1.7-1.3 3-3 3a3.01 3.01 0 0 1-3-3zm11.9 0c0-3.9 6-3.9 6 0 0 1.7-1.3 3-3 3a3.01 3.01 0 0 1-3-3zm12 0c0-3.9 6-3.9 6 0 0 1.7-1.3 3-3 3a3.01 3.01 0 0 1-3-3zm11.9 0c0-3.9 6-3.9 6 0 0 1.7-1.3 3-3 3-1.6-.1-3-1.4-3-3zm12 0c0-3.9 6-3.9 6 0 0 1.7-1.3 3-3 3a3.08 3.08 0 0 1-3-3zm12.1 0c0-3.9 6-3.9 6 0 0 1.7-1.3 3-3 3s-3.1-1.4-3-3zm11.9 0c0-3.9 6-3.9 6 0 0 1.7-1.3 3-3 3a3.01 3.01 0 0 1-3-3zm12 0c0-3.9 6-3.9 6 0 0 1.7-1.3 3-3 3a3.01 3.01 0 0 1-3-3zm15-3c3.9 0 3.9 6 0 6-3.9-.1-3.9-6 0-6zm8.9 3c0-3.9 6-3.9 6 0 0 1.7-1.3 3-3 3a3.08 3.08 0 0 1-3-3zm12 0c0-3.9 6-3.9 6 0 0 1.7-1.3 3-3 3a3.08 3.08 0 0 1-3-3zm12.1 0c0-3.9 6-3.9 6 0 0 1.7-1.3 3-3 3a3.01 3.01 0 0 1-3-3zm11.9 0c0-3.9 6-3.9 6 0 0 1.7-1.3 3-3 3a3.01 3.01 0 0 1-3-3zm12 0c0-3.9 6-3.9 6 0 0 1.7-1.3 3-3 3a3.01 3.01 0 0 1-3-3zm12 0c0-3.9 6-3.9 6 0 0 1.7-1.3 3-3 3a3.08 3.08 0 0 1-3-3zm14.9-3c3.9 0 3.9 6 0 6-3.9-.1-3.9-6 0-6zm12.1 0c3.9 0 3.9 6 0 6-4-.1-4-6 0-6zm9 3c0-3.9 6-3.9 6 0 0 1.7-1.3 3-3 3a3.01 3.01 0 0 1-3-3zm11.9 0c0-3.9 6-3.9 6 0 0 1.7-1.3 3-3 3a3.01 3.01 0 0 1-3-3zm12 0c0-3.9 6-3.9 6 0 0 1.7-1.3 3-3 3a3.08 3.08 0 0 1-3-3zm27-3c3.9 0 3.9 6 0 6-4-.1-4-6 0-6zm-997.6 15c0-3.9 6-3.9 6 0s-6 3.9-6 0zm11.9 0c0-3.9 6-3.9 6 0s-6 3.9-6 0zm12 0c0-3.9 6-3.9 6 0s-5.9 3.9-6 0zm12.1 0c0-3.9 6-3.9 6 0s-6 3.9-6 0zm11.9 0c0-3.9 6-3.9 6 0s-6 3.9-6 0zm12 0c0-3.9 6-3.9 6 0s-6 3.9-6 0zm11.9 0c0-3.9 6-3.9 6 0s-6 3.9-6 0zm12 0c0-3.9 6-3.9 6 0s-6 3.9-6 0zm12.1 0c0-3.9 6-3.9 6 0s-6 3.9-6 0zm11.9 0c0-3.9 6-3.9 6 0s-6 3.9-6 0zm12 0c0-3.9 6-3.9 6 0s-6 3.9-6 0zm12 0c0-3.9 6-3.9 6 0s-6 3.9-6 0zm11.9 0c0-3.9 6-3.9 6 0s-6 3.9-6 0zm12.1 0c0-3.9 6-3.9 6 0-.1 3.9-6 3.9-6 0zm12 0c0-3.9 6-3.9 6 0s-6 3.9-6 0zm11.9 0c0-3.9 6-3.9 6 0s-6 3.9-6 0zm12 0c0-3.9 6-3.9 6 0s-6 3.9-6 0zm12 0c0-3.9 6-3.9 6 0s-6 3.9-6 0zm11.9 0c0-3.9 6-3.9 6 0s-6 3.9-6 0zm12.1 0c0-3.9 6-3.9 6 0s-6 3.9-6 0zm227.6 0c0-3.9 6-3.9 6 0 0 1.7-1.3 3-3 3a3.08 3.08 0 0 1-3-3zm12 0c0-3.9 6-3.9 6 0 0 1.7-1.3 3-3 3a3.08 3.08 0 0 1-3-3zm11.9 0c0-3.9 6-3.9 6 0 0 1.7-1.3 3-3 3a3.08 3.08 0 0 1-3-3zm12.1 0c0-3.9 6-3.9 6 0 0 1.7-1.3 3-3 3a3.01 3.01 0 0 1-3-3zm12 0c0-3.9 6-3.9 6 0 0 1.7-1.3 3-3 3a3.01 3.01 0 0 1-3-3zm11.9 0c0-3.9 6-3.9 6 0 0 1.7-1.3 3-3 3a3.01 3.01 0 0 1-3-3zm12 0c0-3.9 6-3.9 6 0 0 1.7-1.3 3-3 3a3.08 3.08 0 0 1-3-3zm12.1 0c0-3.9 6-3.9 6 0 0 1.7-1.3 3-3 3s-3.1-1.4-3-3zm11.9 0c0-3.9 6-3.9 6 0 0 1.7-1.3 3-3 3a3.01 3.01 0 0 1-3-3zm12 0c0-3.9 6-3.9 6 0 0 1.7-1.3 3-3 3a3.01 3.01 0 0 1-3-3zm47.9 0c0-3.9 6-3.9 6 0 0 1.7-1.3 3-3 3s-3.1-1.4-3-3zm12 0c0-3.9 6-3.9 6 0 0 1.7-1.3 3-3 3a3.01 3.01 0 0 1-3-3zm12 0c0-3.9 6-3.9 6 0 0 1.7-1.3 3-3 3a3.01 3.01 0 0 1-3-3zm11.9 0c0-3.9 6-3.9 6 0 0 1.7-1.3 3-3 3a3.08 3.08 0 0 1-3-3zm12 0c0-3.9 6-3.9 6 0 0 1.7-1.3 3-3 3a3.08 3.08 0 0 1-3-3zm12.1 0c0-3.9 6-3.9 6 0 0 1.7-1.3 3-3 3s-3.1-1.4-3-3zm11.9 0c0-3.9 6-3.9 6 0 0 1.7-1.3 3-3 3a3.01 3.01 0 0 1-3-3zm12 0c0-3.9 6-3.9 6 0 0 1.7-1.3 3-3 3a3.01 3.01 0 0 1-3-3zm12 0c0-3.9 6-3.9 6 0 0 1.7-1.3 3-3 3a3.08 3.08 0 0 1-3-3zm11.9 0c0-3.9 6-3.9 6 0 0 1.7-1.3 3-3 3a3.08 3.08 0 0 1-3-3zm12 0c0-3.9 6-3.9 6 0 0 1.7-1.3 3-3 3a3.08 3.08 0 0 1-3-3zm12.1 0c0-3.9 6-3.9 6 0 0 1.7-1.3 3-3 3a3.01 3.01 0 0 1-3-3zm11.9 0c0-3.9 6-3.9 6 0 0 1.7-1.3 3-3 3a3.01 3.01 0 0 1-3-3zm12 0c0-3.9 6-3.9 6 0 0 1.7-1.3 3-3 3a3.01 3.01 0 0 1-3-3zm11.9 0c0-3.9 6-3.9 6 0 0 1.7-1.3 3-3 3a3.08 3.08 0 0 1-3-3zm12 0c0-3.9 6-3.9 6 0 0 1.7-1.3 3-3 3a3.08 3.08 0 0 1-3-3zm12.1 0c0-3.9 6-3.9 6 0 0 1.7-1.3 3-3 3s-3.1-1.4-3-3zm11.9 0c0-3.9 6-3.9 6 0 0 1.7-1.3 3-3 3a3.01 3.01 0 0 1-3-3zm12 0c0-3.9 6-3.9 6 0 0 1.7-1.3 3-3 3a3.01 3.01 0 0 1-3-3zm12 0c0-3.9 6-3.9 6 0 0 1.7-1.3 3-3 3a3.08 3.08 0 0 1-3-3zm11.9 0c0-3.9 6-3.9 6 0 0 1.7-1.3 3-3 3a3.08 3.08 0 0 1-3-3zm12 0c0-3.9 6-3.9 6 0 0 1.7-1.3 3-3 3a3.08 3.08 0 0 1-3-3zm12.1 0c0-3.9 6-3.9 6 0 0 1.7-1.3 3-3 3a3.01 3.01 0 0 1-3-3zm11.9 0c0-3.9 6-3.9 6 0 0 1.7-1.3 3-3 3a3.01 3.01 0 0 1-3-3zm12 0c0-3.9 6-3.9 6 0 0 1.7-1.3 3-3 3a3.01 3.01 0 0 1-3-3zm12 0c0-3.9 6-3.9 6 0 0 1.7-1.3 3-3 3a3.08 3.08 0 0 1-3-3zm11.9 0c0-3.9 6-3.9 6 0 0 1.7-1.3 3-3 3a3.08 3.08 0 0 1-3-3zm12.1 0c0-3.9 6-3.9 6 0 0 1.7-1.3 3-3 3a3.01 3.01 0 0 1-3-3zm12 0c0-3.9 6-3.9 6 0 0 1.7-1.3 3-3 3a3.01 3.01 0 0 1-3-3zm11.9 0c0-3.9 6-3.9 6 0 0 1.7-1.3 3-3 3a3.01 3.01 0 0 1-3-3zm12 0c0-3.9 6-3.9 6 0 0 1.7-1.3 3-3 3a3.08 3.08 0 0 1-3-3zm23.9 0c0-3.9 6-3.9 6 0 0 1.7-1.3 3-3 3a3.08 3.08 0 0 1-3-3zm12.1 0c0-3.9 6-3.9 6 0 0 1.7-1.3 3-3 3a3.01 3.01 0 0 1-3-3zm-1018.6 12c0-3.9 6-3.9 6 0 0 1.7-1.3 3-3 3s-3-1.3-3-3zm12 0c0-3.9 6-3.9 6 0s-6 3.9-6 0zm11.9 0c0-3.9 6-3.9 6 0s-6 3.9-6 0zm12 0c0-3.9 6-3.9 6 0s-5.9 3.9-6 0zm12.1 0c0-3.9 6-3.9 6 0s-6 3.9-6 0zm11.9 0c0-3.9 6-3.9 6 0s-6 3.9-6 0zm12 0c0-3.9 6-3.9 6 0s-6 3.9-6 0zm11.9 0c0-3.9 6-3.9 6 0s-6 3.9-6 0zm12 0c0-3.9 6-3.9 6 0s-6 3.9-6 0zm12.1 0c0-3.9 6-3.9 6 0s-6 3.9-6 0zm11.9 0c0-3.9 6-3.9 6 0s-6 3.9-6 0zm12 0c0-3.9 6-3.9 6 0s-6 3.9-6 0zm12 0c0-3.9 6-3.9 6 0s-6 3.9-6 0zm11.9 0c0-3.9 6-3.9 6 0s-6 3.9-6 0zm12.1 0c0-3.9 6-3.9 6 0-.1 3.9-6 3.9-6 0zm12 0c0-3.9 6-3.9 6 0s-6 3.9-6 0zm11.9 0c0-3.9 6-3.9 6 0s-6 3.9-6 0zm12 0c0-3.9 6-3.9 6 0s-6 3.9-6 0zm23.9 0c0-3.9 6-3.9 6 0s-6 3.9-6 0zm203.8 0c0-3.9 6-3.9 6 0 0 1.7-1.3 3-3 3s-3-1.3-3-3zm12 0c0-3.9 6-3.9 6 0 0 1.7-1.3 3-3 3s-3-1.3-3-3zm11.9 0c0-3.9 6-3.9 6 0 0 1.7-1.3 3-3 3s-3-1.3-3-3zm12 0c0-3.9 6-3.9 6 0 0 1.7-1.3 3-3 3a3.01 3.01 0 0 1-3-3zm12 0c0-3.9 6-3.9 6 0 0 1.7-1.3 3-3 3a3.01 3.01 0 0 1-3-3zm36 0c0-3.9 6-3.9 6 0 0 1.7-1.3 3-3 3s-3-1.3-3-3zm23.9 0c0-3.9 6-3.9 6 0 0 1.7-1.3 3-3 3a3.01 3.01 0 0 1-3-3zm12.1 0c0-3.9 6-3.9 6 0 0 1.7-1.3 3-3 3s-3.1-1.3-3-3zm11.9 0c0-3.9 6-3.9 6 0 0 1.7-1.3 3-3 3s-3-1.3-3-3zm12 0c0-3.9 6-3.9 6 0 0 1.7-1.3 3-3 3s-3-1.3-3-3zm11.9 0c0-3.9 6-3.9 6 0 0 1.7-1.3 3-3 3a3.01 3.01 0 0 1-3-3zm12 0c0-3.9 6-3.9 6 0 0 1.7-1.3 3-3 3a3.01 3.01 0 0 1-3-3zm12 0c0-3.9 6-3.9 6 0 0 1.7-1.3 3-3 3a3.01 3.01 0 0 1-3-3zm12 0c0-3.9 6-3.9 6 0 0 1.7-1.3 3-3 3s-3.1-1.3-3-3zm12 0c0-3.9 6-3.9 6 0 0 1.7-1.3 3-3 3s-3-1.3-3-3zm12 0c0-3.9 6-3.9 6 0 0 1.7-1.3 3-3 3s-3-1.3-3-3zm11.9 0c0-3.9 6-3.9 6 0 0 1.7-1.3 3-3 3a3.01 3.01 0 0 1-3-3zm12 0c0-3.9 6-3.9 6 0 0 1.7-1.3 3-3 3a3.01 3.01 0 0 1-3-3zm12.1 0c0-3.9 6-3.9 6 0 0 1.7-1.3 3-3 3s-3.1-1.3-3-3zm11.9 0c0-3.9 6-3.9 6 0 0 1.7-1.3 3-3 3s-3-1.3-3-3zm12 0c0-3.9 6-3.9 6 0 0 1.7-1.3 3-3 3s-3-1.3-3-3zm12 0c0-3.9 6-3.9 6 0 0 1.7-1.3 3-3 3a3.01 3.01 0 0 1-3-3zm11.9 0c0-3.9 6-3.9 6 0 0 1.7-1.3 3-3 3a3.01 3.01 0 0 1-3-3zm12 0c0-3.9 6-3.9 6 0 0 1.7-1.3 3-3 3a3.01 3.01 0 0 1-3-3zm12.1 0c0-3.9 6-3.9 6 0 0 1.7-1.3 3-3 3s-3-1.3-3-3zm11.9 0c0-3.9 6-3.9 6 0 0 1.7-1.3 3-3 3s-3-1.3-3-3zm12 0c0-3.9 6-3.9 6 0 0 1.7-1.3 3-3 3s-3-1.3-3-3zm11.9 0c0-3.9 6-3.9 6 0 0 1.7-1.3 3-3 3a3.01 3.01 0 0 1-3-3zm12 0c0-3.9 6-3.9 6 0 0 1.7-1.3 3-3 3a3.01 3.01 0 0 1-3-3zm12.1 0c0-3.9 6-3.9 6 0 0 1.7-1.3 3-3 3s-3.1-1.3-3-3zm11.9 0c0-3.9 6-3.9 6 0 0 1.7-1.3 3-3 3s-3-1.3-3-3zm12 0c0-3.9 6-3.9 6 0 0 1.7-1.3 3-3 3s-3-1.3-3-3zm12 0c0-3.9 6-3.9 6 0 0 1.7-1.3 3-3 3a3.01 3.01 0 0 1-3-3zm11.9 0c0-3.9 6-3.9 6 0 0 1.7-1.3 3-3 3a3.01 3.01 0 0 1-3-3zm12 0c0-3.9 6-3.9 6 0 0 1.7-1.3 3-3 3a3.01 3.01 0 0 1-3-3zm12.1 0c0-3.9 6-3.9 6 0 0 1.7-1.3 3-3 3s-3-1.3-3-3zm11.9 0c0-3.9 6-3.9 6 0 0 1.7-1.3 3-3 3s-3-1.3-3-3zm12 0c0-3.9 6-3.9 6 0 0 1.7-1.3 3-3 3s-3-1.3-3-3zm12 0c0-3.9 6-3.9 6 0 0 1.7-1.3 3-3 3a3.01 3.01 0 0 1-3-3zm11.9 0c0-3.9 6-3.9 6 0 0 1.7-1.3 3-3 3a3.01 3.01 0 0 1-3-3zm12.1 0c0-3.9 6-3.9 6 0 0 1.7-1.3 3-3 3s-3-1.3-3-3zm12 0c0-3.9 6-3.9 6 0 0 1.7-1.3 3-3 3s-3-1.3-3-3zm-958.7 11.9c0-3.9 6-3.9 6 0 0 1.7-1.3 3-3 3s-3-1.3-3-3zm12 0c0-3.9 6-3.9 6 0s-6 4-6 0zm11.9 0c0-3.9 6-3.9 6 0s-6 4-6 0zm12 0c0-3.9 6-3.9 6 0s-5.9 4-6 0zm12.1 0c0-3.9 6-3.9 6 0s-6 4-6 0zm11.9 0c0-3.9 6-3.9 6 0s-6 4-6 0zm12 0c0-3.9 6-3.9 6 0s-6 4-6 0zm11.9 0c0-3.9 6-3.9 6 0s-6 4-6 0zm12 0c0-3.9 6-3.9 6 0s-6 4-6 0zm12.1 0c0-3.9 6-3.9 6 0s-6 4-6 0zm11.9 0c0-3.9 6-3.9 6 0s-6 4-6 0zm12 0c0-3.9 6-3.9 6 0s-6 4-6 0zm12 0c0-3.9 6-3.9 6 0s-6 4-6 0zm11.9 0c0-3.9 6-3.9 6 0s-6 4-6 0zm12.1 0c0-3.9 6-3.9 6 0-.1 3.9-6 4-6 0zm12 0c0-3.9 6-3.9 6 0s-6 4-6 0zm11.9 0c0-3.9 6-3.9 6 0s-6 4-6 0zm12 0c0-3.9 6-3.9 6 0s-6 4-6 0zm227.7 0c0-3.9 6-3.9 6 0 0 1.7-1.3 3-3 3s-3-1.3-3-3zm12 0c0-3.9 6-3.9 6 0 0 1.7-1.3 3-3 3s-3-1.3-3-3zm11.9 0c0-3.9 6-3.9 6 0 0 1.7-1.3 3-3 3s-3-1.3-3-3zm12 0c0-3.9 6-3.9 6 0 0 1.7-1.3 3-3 3a3.01 3.01 0 0 1-3-3zm36 0c0-3.9 6-3.9 6 0 0 1.7-1.3 3-3 3s-3-1.3-3-3zm23.9 0c0-3.9 6-3.9 6 0 0 1.7-1.3 3-3 3s-3-1.3-3-3zm24.1 0c0-3.9 6-3.9 6 0 0 1.7-1.3 3-3 3s-3.1-1.3-3-3zm23.9 0c0-3.9 6-3.9 6 0 0 1.7-1.3 3-3 3s-3-1.3-3-3zm11.9 0c0-3.9 6-3.9 6 0 0 1.7-1.3 3-3 3a3.01 3.01 0 0 1-3-3zm12 0c0-3.9 6-3.9 6 0 0 1.7-1.3 3-3 3a3.01 3.01 0 0 1-3-3zm12 0c0-3.9 6-3.9 6 0 0 1.7-1.3 3-3 3a3.01 3.01 0 0 1-3-3zm12 0c0-3.9 6-3.9 6 0 0 1.7-1.3 3-3 3s-3.1-1.3-3-3zm12 0c0-3.9 6-3.9 6 0 0 1.7-1.3 3-3 3s-3-1.3-3-3zm12 0c0-3.9 6-3.9 6 0 0 1.7-1.3 3-3 3s-3-1.3-3-3zm11.9 0c0-3.9 6-3.9 6 0 0 1.7-1.3 3-3 3a3.01 3.01 0 0 1-3-3zm12 0c0-3.9 6-3.9 6 0 0 1.7-1.3 3-3 3a3.01 3.01 0 0 1-3-3zm12.1 0c0-3.9 6-3.9 6 0 0 1.7-1.3 3-3 3s-3.1-1.3-3-3zm11.9 0c0-3.9 6-3.9 6 0 0 1.7-1.3 3-3 3s-3-1.3-3-3zm12 0c0-3.9 6-3.9 6 0 0 1.7-1.3 3-3 3s-3-1.3-3-3zm12 0c0-3.9 6-3.9 6 0 0 1.7-1.3 3-3 3a3.01 3.01 0 0 1-3-3zm11.9 0c0-3.9 6-3.9 6 0 0 1.7-1.3 3-3 3a3.01 3.01 0 0 1-3-3zm12 0c0-3.9 6-3.9 6 0 0 1.7-1.3 3-3 3a3.01 3.01 0 0 1-3-3zm12.1 0c0-3.9 6-3.9 6 0 0 1.7-1.3 3-3 3s-3-1.3-3-3zm11.9 0c0-3.9 6-3.9 6 0 0 1.7-1.3 3-3 3s-3-1.3-3-3zm12 0c0-3.9 6-3.9 6 0 0 1.7-1.3 3-3 3s-3-1.3-3-3zm11.9 0c0-3.9 6-3.9 6 0 0 1.7-1.3 3-3 3a3.01 3.01 0 0 1-3-3zm12 0c0-3.9 6-3.9 6 0 0 1.7-1.3 3-3 3a3.01 3.01 0 0 1-3-3zm12.1 0c0-3.9 6-3.9 6 0 0 1.7-1.3 3-3 3s-3.1-1.3-3-3zm11.9 0c0-3.9 6-3.9 6 0 0 1.7-1.3 3-3 3s-3-1.3-3-3zm12 0c0-3.9 6-3.9 6 0 0 1.7-1.3 3-3 3s-3-1.3-3-3zm12 0c0-3.9 6-3.9 6 0 0 1.7-1.3 3-3 3a3.01 3.01 0 0 1-3-3zm11.9 0c0-3.9 6-3.9 6 0 0 1.7-1.3 3-3 3a3.01 3.01 0 0 1-3-3zm12 0c0-3.9 6-3.9 6 0 0 1.7-1.3 3-3 3a3.01 3.01 0 0 1-3-3zm12.1 0c0-3.9 6-3.9 6 0 0 1.7-1.3 3-3 3s-3-1.3-3-3zm11.9 0c0-3.9 6-3.9 6 0 0 1.7-1.3 3-3 3s-3-1.3-3-3zm12 0c0-3.9 6-3.9 6 0 0 1.7-1.3 3-3 3s-3-1.3-3-3zm12 0c0-3.9 6-3.9 6 0 0 1.7-1.3 3-3 3a3.01 3.01 0 0 1-3-3zm36 0c0-3.9 6-3.9 6 0 0 1.7-1.3 3-3 3s-3-1.3-3-3zm47.8 0c0-3.9 6-3.9 6 0 0 1.7-1.3 3-3 3a3.01 3.01 0 0 1-3-3zm-1006.5 12c0-3.9 6-3.9 6 0 0 1.7-1.3 3-3 3-1.7.1-3-1.3-3-3zm12 0c0-3.9 6-3.9 6 0 0 4-6 4-6 0zm11.9 0c0-3.9 6-3.9 6 0 0 4-6 4-6 0zm12 0c0-3.9 6-3.9 6 0 0 4-5.9 4-6 0zm12.1 0c0-3.9 6-3.9 6 0 0 4-6 4-6 0zm11.9 0c0-3.9 6-3.9 6 0 0 4-6 4-6 0zm12 0c0-3.9 6-3.9 6 0 0 4-6 4-6 0zm11.9 0c0-3.9 6-3.9 6 0 0 4-6 4-6 0zm12 0c0-3.9 6-3.9 6 0 0 4-6 4-6 0zm12.1 0c0-3.9 6-3.9 6 0 0 4-6 4-6 0zm11.9 0c0-3.9 6-3.9 6 0 0 4-6 4-6 0zm12 0c0-3.9 6-3.9 6 0 0 4-6 4-6 0zm12 0c0-3.9 6-3.9 6 0 0 4-6 4-6 0zm11.9 0c0-3.9 6-3.9 6 0 0 4-6 4-6 0zm12.1 0c0-3.9 6-3.9 6 0-.1 4-6 4-6 0zm12 0c0-3.9 6-3.9 6 0 0 4-6 4-6 0zm11.9 0c0-3.9 6-3.9 6 0 0 4-6 4-6 0zm251.7 0c0-3.9 6-3.9 6 0 0 1.7-1.3 3-3 3-1.7.1-3-1.3-3-3zm11.9 0c0-3.9 6-3.9 6 0 0 1.7-1.3 3-3 3-1.7.1-3-1.3-3-3zm71.9 0c0-3.9 6-3.9 6 0 0 1.7-1.3 3-3 3-1.7.1-3-1.3-3-3zm24.1 0c0-3.9 6-3.9 6 0 0 1.7-1.3 3-3 3-1.7.1-3.1-1.3-3-3zm23.9 0c0-3.9 6-3.9 6 0 0 1.7-1.3 3-3 3-1.7.1-3-1.3-3-3zm11.9 0c0-3.9 6-3.9 6 0 0 1.7-1.3 3-3 3a3.01 3.01 0 0 1-3-3zm12 0c0-3.9 6-3.9 6 0 0 1.7-1.3 3-3 3-1.6.1-3-1.3-3-3zm12 0c0-3.9 6-3.9 6 0 0 1.7-1.3 3-3 3-1.6.1-3-1.3-3-3zm12 0c0-3.9 6-3.9 6 0 0 1.7-1.3 3-3 3-1.7.1-3.1-1.3-3-3zm12 0c0-3.9 6-3.9 6 0 0 1.7-1.3 3-3 3-1.7.1-3-1.3-3-3zm12 0c0-3.9 6-3.9 6 0 0 1.7-1.3 3-3 3-1.7.1-3-1.3-3-3zm11.9 0c0-3.9 6-3.9 6 0 0 1.7-1.3 3-3 3-1.6.1-3-1.3-3-3zm12 0c0-3.9 6-3.9 6 0 0 1.7-1.3 3-3 3-1.6.1-3-1.3-3-3zm12.1 0c0-3.9 6-3.9 6 0 0 1.7-1.3 3-3 3-1.7.1-3.1-1.3-3-3zm11.9 0c0-3.9 6-3.9 6 0 0 1.7-1.3 3-3 3-1.7.1-3-1.3-3-3zm12 0c0-3.9 6-3.9 6 0 0 1.7-1.3 3-3 3-1.7.1-3-1.3-3-3zm12 0c0-3.9 6-3.9 6 0 0 1.7-1.3 3-3 3-1.6.1-3-1.3-3-3zm11.9 0c0-3.9 6-3.9 6 0 0 1.7-1.3 3-3 3-1.6.1-3-1.3-3-3zm12 0c0-3.9 6-3.9 6 0 0 1.7-1.3 3-3 3-1.6.1-3-1.3-3-3zm12.1 0c0-3.9 6-3.9 6 0 0 1.7-1.3 3-3 3-1.7.1-3-1.3-3-3zm11.9 0c0-3.9 6-3.9 6 0 0 1.7-1.3 3-3 3-1.7.1-3-1.3-3-3zm12 0c0-3.9 6-3.9 6 0 0 1.7-1.3 3-3 3-1.7.1-3-1.3-3-3zm11.9 0c0-3.9 6-3.9 6 0 0 1.7-1.3 3-3 3a3.01 3.01 0 0 1-3-3zm12 0c0-3.9 6-3.9 6 0 0 1.7-1.3 3-3 3-1.6.1-3-1.3-3-3zm12.1 0c0-3.9 6-3.9 6 0 0 1.7-1.3 3-3 3-1.7.1-3.1-1.3-3-3zm11.9 0c0-3.9 6-3.9 6 0 0 1.7-1.3 3-3 3-1.7.1-3-1.3-3-3zm12 0c0-3.9 6-3.9 6 0 0 1.7-1.3 3-3 3-1.7.1-3-1.3-3-3zm12 0c0-3.9 6-3.9 6 0 0 1.7-1.3 3-3 3-1.6.1-3-1.3-3-3zm11.9 0c0-3.9 6-3.9 6 0 0 1.7-1.3 3-3 3-1.6.1-3-1.3-3-3zm12 0c0-3.9 6-3.9 6 0 0 1.7-1.3 3-3 3-1.6.1-3-1.3-3-3zm12.1 0c0-3.9 6-3.9 6 0 0 1.7-1.3 3-3 3-1.7.1-3-1.3-3-3zm11.9 0c0-3.9 6-3.9 6 0 0 1.7-1.3 3-3 3-1.7.1-3-1.3-3-3zm12 0c0-3.9 6-3.9 6 0 0 1.7-1.3 3-3 3-1.7.1-3-1.3-3-3zm12 0c0-3.9 6-3.9 6 0 0 1.7-1.3 3-3 3-1.6.1-3-1.3-3-3zm11.9 0c0-3.9 6-3.9 6 0 0 1.7-1.3 3-3 3-1.6.1-3-1.3-3-3zm24.1 0c0-3.9 6-3.9 6 0 0 1.7-1.3 3-3 3-1.7.1-3-1.3-3-3zm11.9 0c0-3.9 6-3.9 6 0 0 1.7-1.3 3-3 3-1.7.1-3-1.3-3-3zm23.9 0c0-3.9 6-3.9 6 0 0 1.7-1.3 3-3 3-1.6 0-2.9-1.3-3-3zm12 0c0-3.9 6-3.9 6 0 0 1.7-1.3 3-3 3-1.6.1-3-1.3-3-3zM193.7 316.8c0-3.9 6-3.9 6 0 0 1.7-1.3 3-3 3a3.01 3.01 0 0 1-3-3zm12 0c0-3.9 6-3.9 6 0s-6 3.9-6 0zm14.9-3c3.9 0 3.9 6 0 6s-3.9-6 0-6zm9 3c0-3.9 6-3.9 6 0s-5.9 3.9-6 0zm12.1 0c0-3.9 6-3.9 6 0s-6 3.9-6 0zm11.9 0c0-3.9 6-3.9 6 0s-6 3.9-6 0zm12 0c0-3.9 6-3.9 6 0s-6 3.9-6 0zm14.9-3c3.9 0 3.9 6 0 6s-3.9-6 0-6zm12 0c3.9 0 3.9 6 0 6s-3.9-6 0-6zm9.1 3c0-3.9 6-3.9 6 0s-6 3.9-6 0zm11.9 0c0-3.9 6-3.9 6 0s-6 3.9-6 0zm12 0c0-3.9 6-3.9 6 0s-6 3.9-6 0zm12 0c0-3.9 6-3.9 6 0s-6 3.9-6 0zm11.9 0c0-3.9 6-3.9 6 0s-6 3.9-6 0zm15.1-3c3.9 0 3.9 6 0 6-4 0-4-6 0-6zm11.9 0c3.9 0 3.9 6 0 6-4 0-4-6 0-6zm272.6 3c0-3.9 6-3.9 6 0 0 1.7-1.3 3-3 3a3.01 3.01 0 0 1-3-3zm15-3c3.9 0 3.9 6 0 6s-3.9-6 0-6zm9 3c0-3.9 6-3.9 6 0 0 1.7-1.3 3-3 3a3.08 3.08 0 0 1-3-3zm11.9 0c0-3.9 6-3.9 6 0 0 1.7-1.3 3-3 3a3.08 3.08 0 0 1-3-3zm12.1 0c0-3.9 6-3.9 6 0 0 1.7-1.3 3-3 3a3.01 3.01 0 0 1-3-3zm12 0c0-3.9 6-3.9 6 0 0 1.7-1.3 3-3 3a3.01 3.01 0 0 1-3-3zm86.8-3c3.9 0 3.9 6 0 6s-3.9-6 0-6zm9 3c0-3.9 6-3.9 6 0 0 1.7-1.3 3-3 3a3.08 3.08 0 0 1-3-3zm15-3c3.9 0 3.9 6 0 6-4 0-4-6 0-6zm9 3c0-3.9 6-3.9 6 0 0 1.7-1.3 3-3 3a3.01 3.01 0 0 1-3-3zm15-3c3.9 0 3.9 6 0 6s-3.9-6 0-6zm8.9 3c0-3.9 6-3.9 6 0 0 1.7-1.3 3-3 3a3.08 3.08 0 0 1-3-3zm15-3c3.9 0 3.9 6 0 6s-3.9-6 0-6zm9.1 3c0-3.9 6-3.9 6 0 0 1.7-1.3 3-3 3s-3.1-1.4-3-3zm14.9-3c3.9 0 3.9 6 0 6-4 0-4-6 0-6zm9 3c0-3.9 6-3.9 6 0 0 1.7-1.3 3-3 3a3.01 3.01 0 0 1-3-3zm14.9-3c3.9 0 3.9 6 0 6s-3.9-6 0-6zm9 3c0-3.9 6-3.9 6 0 0 1.7-1.3 3-3 3a3.08 3.08 0 0 1-3-3zm12 0c0-3.9 6-3.9 6 0 0 1.7-1.3 3-3 3a3.08 3.08 0 0 1-3-3zm12.1 0c0-3.9 6-3.9 6 0 0 1.7-1.3 3-3 3a3.01 3.01 0 0 1-3-3zm11.9 0c0-3.9 6-3.9 6 0 0 1.7-1.3 3-3 3a3.01 3.01 0 0 1-3-3zm12 0c0-3.9 6-3.9 6 0 0 1.7-1.3 3-3 3a3.01 3.01 0 0 1-3-3zm11.9 0c0-3.9 6-3.9 6 0 0 1.7-1.3 3-3 3-1.6-.1-3-1.4-3-3zm12 0c0-3.9 6-3.9 6 0 0 1.7-1.3 3-3 3a3.08 3.08 0 0 1-3-3zm12.1 0c0-3.9 6-3.9 6 0 0 1.7-1.3 3-3 3s-3.1-1.4-3-3zm11.9 0c0-3.9 6-3.9 6 0 0 1.7-1.3 3-3 3a3.01 3.01 0 0 1-3-3zm12 0c0-3.9 6-3.9 6 0 0 1.7-1.3 3-3 3a3.01 3.01 0 0 1-3-3zm15-3c3.9 0 3.9 6 0 6s-3.9-6 0-6zm8.9 3c0-3.9 6-3.9 6 0 0 1.7-1.3 3-3 3a3.08 3.08 0 0 1-3-3zm12 0c0-3.9 6-3.9 6 0 0 1.7-1.3 3-3 3a3.08 3.08 0 0 1-3-3zm12.1 0c0-3.9 6-3.9 6 0 0 1.7-1.3 3-3 3a3.01 3.01 0 0 1-3-3zm11.9 0c0-3.9 6-3.9 6 0 0 1.7-1.3 3-3 3a3.01 3.01 0 0 1-3-3zm12 0c0-3.9 6-3.9 6 0 0 1.7-1.3 3-3 3a3.01 3.01 0 0 1-3-3zm12 0c0-3.9 6-3.9 6 0 0 1.7-1.3 3-3 3a3.08 3.08 0 0 1-3-3zm14.9-3c3.9 0 3.9 6 0 6s-3.9-6 0-6zm45 3c0-3.9 6-3.9 6 0 0 1.7-1.3 3-3 3a3.08 3.08 0 0 1-3-3zm14.9-3c3.9 0 3.9 6 0 6s-3.9-6 0-6z"></path>
</svg>
